<svg viewBox="0 0 305 251" width="305" height="251" fill="none" xmlns="http://www.w3.org/2000/svg"><g clip-path="url(#clip0)"><path opacity=".1" d="M17.1801 128.836c.8578 9.673 6.331 18.429 9.6709 27.641a65.6456 65.6456 0 0 1 1.2725 40.686c-.795 2.745-1.7758 5.498-1.7758 8.309 0 9.69 11.0178 16.122 21.029 20.4a382.7623 382.7623 0 0 0 79.1573 23.965c8.885 1.681 19.982 2.406 25.604-3.917 2.7-3.037 3.352-7.003 5.333-10.409 5.053-8.691 17.349-12.066 28.387-14a346.11 346.11 0 0 1 40.225-4.639c13.577-.765 28.992-1.432 37.991-10.363 5.719-5.679 7.384-13.515 7.612-20.916.747-24.28-10.831-50.553 4.03-71.581 6.23-8.819 16.405-15.2602 22.59-24.105 8.953-12.8161 8.181-29.0933 2.119-42.7517-6.062-13.6584-16.8-25.271-27.383-36.6516-3.5-3.762-7.235-7.6758-12.491-9.4207-5.47-1.8166-11.672-.9828-17.537-.1232-26.679 3.9024-54.371 8.1543-76.747 21.5577-11.112 6.6559-20.394 15.2887-30.311 23.2282-21.415 17.1539-46.224 32.9985-74.5019 39.7718-22.9734 5.504-46.3386 20.3485-44.274 43.3185z" fill="#F9A826"/><path d="M210.879 221.623c.46-6.366.32-11.249-.286-11.747-.258-.215-.495-.989-.684-1.805.649-.487.998-1.057.841-1.719-.761-3.181-12.794-26.595-14.73-27.022-1.935-.427-1.535-35.124-1.535-35.124l2.825-26.469h-.04c.23-1.434.62-2.837 1.164-4.183.109-.267.223-.525.337-.78 2.339.083 4.576-.957 6.509-3.693 2.104-2.98 4.06-5.63 5.833-7.954 4.186-3.2661 9.339-8.3088 10.835-14.1567 2.645-10.3376-9.437-20.9159-9.437-20.9159l-3.76-2.5357a7.845 7.845 0 0 1-.131-.4298 10.517 10.517 0 0 1-.106-.4183 11.9277 11.9277 0 0 0 2.548-.5903c.373.2568.806.4121 1.257.4507.451.0387.905-.0406 1.316-.23l.052-.0287c.14-.0355.277-.0834.409-.1433.411-.2244.8-.4883 1.161-.7879 1.469-1.083 3.225-1.6819 4.829-2.5472 2.731-1.4698 5.116-3.8909 5.811-6.9251.194-.9836.299-1.983.312-2.9856a5.8016 5.8016 0 0 0-.178-2.1546c-.189-.5501-.54-1.0286-.76-1.5673-.478-1.169-.286-2.487-.312-3.7505-.034-2.381-.858-4.7878-2.522-6.4925-1.664-1.7048-4.155-2.6188-6.471-2.1232-.62.1442-1.228.3357-1.819.5731-.266.0974-.529.2005-.792.2865-1.038.3811-2.073.6705-3.146.4212-1.283-.3009-2.402-1.381-3.717-1.2263-.274.0368-.541.118-.789.2407a4.2893 4.2893 0 0 0-1.307.6876 14.911 14.911 0 0 0-1.684 1.3982c-.669.6447-1.31 1.4183-1.404 2.3437-.023.383.03.7668.155 1.1292.126.3624.322.6963.577.9825a12.0816 12.0816 0 0 0-3.999 3.0057 12.1175 12.1175 0 0 0-2.445 4.3696 12.1448 12.1448 0 0 0-.471 4.9868c.191 1.677.73 3.2955 1.582 4.7517-.023.1318-.047.2655-.072.4012a29.4562 29.4562 0 0 1-.715 3.0027 2.705 2.705 0 0 1 .083-.5444 11.302 11.302 0 0 0-.592-.1146h-.091c-.179-.0306-.36-.0573-.543-.0802h-.046c-2.748-.3467-6.102-.0401-8.007 1.0515-3.124 1.8029-5.566 4.5902-6.946 7.928a19.6443 19.6443 0 0 0-4.515 7.163 9.765 9.765 0 0 0-4.506-.9341c-2.317-4.5843-6.697-10.2975-12.439-4.1917-6.043 6.4266 1.378 8.309 6.465 8.862.168.5887.431 1.1461.778 1.6504.368.5586.772 1.0927 1.209 1.5987a.99.99 0 0 1-.503.0258c-1.169-.3266-1.084 11.6442 4.146 15.1369a29.3226 29.3226 0 0 1-3.357 6.1685 34.6583 34.6583 0 0 0-4.498 8.965c-.54 1.665-.926 3.25-.818 4.155.011.104.032.207.063.307.014.042.03.083.049.123.018.037.039.072.063.106.022.03.047.058.074.083.026.024.054.045.083.063.03.017.062.032.095.043.033.01.068.016.102.02h.018c.038.003.076.003.114 0h.023c.042-.003.084-.009.126-.017h.028l.129-.035h.043l.131-.051.058-.023.143-.069.063-.031.163-.095.06-.034.203-.129.04-.026.26-.186c-.252.493-.543 1.028-.878 1.581-1.653 2.705-4.369 5.84-8.373 6.722-7.435 1.636-26.568 26.139-26.568 26.139s-5.899-.409-3.508 18.432c2.39 18.842 2.842 29.068 2.842 29.068l.106.065c-2.242 2.556-6.814 7.146-10.789 7.201-5.513.074-8.762 3.707-6.142 5.979 2.619 2.272 31.169-1.306 31.169-1.306s.188-7.476-1.17-10.911c.228-.202.442-.419.641-.65l-1.41-37.789s17.823-15.309 26.513-16.793c-.057-.032-.114-.06-.168-.089a6.119 6.119 0 0 1 1.661-.032c7.595 1.035 13.36 35.727 13.36 35.727s1.398 5.461 5.573 9.67c4.175 4.209 13.44 20.469 13.44 20.469l.386-.043.051.088c0 2.464-.374 6.163-2.287 9.049-3.146 4.75 5.681 6.59 5.681 6.59s6.42 1.785 6.878-4.582z" fill="url(#paint0_linear)"/><path d="M130.157 197.475s-6.643 8.748-12.139 8.825c-5.496.077-8.735 3.685-6.122 5.943 2.614 2.257 31.095-1.29 31.095-1.29s.269-10.75-2.196-12.32c-2.465-1.57-10.638-1.158-10.638-1.158zM201.488 207.976s1.018 6.928-2.122 11.653c-3.14 4.725 5.668 6.547 5.668 6.547s6.396 1.785 6.863-4.544c.466-6.329.314-11.174-.286-11.69-.601-.516-1.101-4.077-1.101-4.077l-9.022 2.111z" fill="#444176"/><path d="M201.208 210.598s-9.254-16.171-13.417-20.343c-4.164-4.172-5.562-9.616-5.562-9.616s-5.759-34.494-13.334-35.528c-7.575-1.034-28.355 16.761-28.355 16.761l1.481 37.557c-4.509 5.238-13.357-.332-13.357-.332s-.454-10.189-2.839-28.924c-2.385-18.736 3.491-18.338 3.491-18.338s19.065-24.354 26.482-25.981c4.004-.874 6.697-3.991 8.347-6.679a21.9748 21.9748 0 0 0 2.048-4.298l31.692 3.396-2.808 26.316s-.389 34.497 1.544 34.924c1.933.427 13.937 23.713 14.698 26.873.761 3.16-10.111 4.212-10.111 4.212z" fill="#565387"/><g opacity=".1" fill="#000"><path opacity=".1" d="M167.411 145.208a3.1205 3.1205 0 0 0-1.118-.398c-7.575-1.031-28.355 16.761-28.355 16.761l1.484 37.566c-1.353 1.57-3.097 2.169-4.861 2.238 2.679.624 5.782.573 7.912-1.911l-1.495-37.575s17.769-15.205 26.433-16.681zM211.751 206.438c-.761-3.152-12.765-26.446-14.698-26.873-1.933-.427-1.544-34.924-1.544-34.924l2.808-26.317-3.04-.327-2.808 26.317s-.389 34.497 1.544 34.924c1.933.427 13.938 23.713 14.698 26.873.515 2.14-4.289 3.306-7.466 3.836l.397.688s10.87-1.037 10.109-4.197z"/></g><path d="M216.675 73.8734s-29.971-1.0114-24.492-5.0427c3.38-2.4899 4.841-7.3579 5.468-10.7245.226-1.1897.377-2.3926.451-3.6015 0 0 15.977-1.5874 12.048 4.3694-1.03 1.5644-1.073 3.338-.572 5.1029 1.409 4.974 7.097 9.8964 7.097 9.8964z" fill="#FFBEC7"/><path d="M184.074 66.6416s-7.252 4.0629-8.682 13.3691c-1.43 9.3061-2.605-.2866-2.605-.2866s-4.155 3.954-5.433 3.5987c-1.278-.3553-1.052 13.965 5.779 15.7987 6.831 1.8335 12.227-28.1677 12.227-28.1677l-1.286-4.3122z" fill="#DFE5EE"/><path opacity=".05" d="M184.074 66.6416s-7.252 4.0629-8.682 13.3691c-1.43 9.3061-2.605-.2866-2.605-.2866s-4.155 3.954-5.433 3.5987c-1.278-.3553-1.052 13.965 5.779 15.7987 6.831 1.8335 12.227-28.1677 12.227-28.1677l-1.286-4.3122z" fill="#000"/><path d="M173.676 79.8242s-5.57-17.7642-14.234-8.5641c-8.665 9.2002 10.451 9.0397 10.451 9.0397l3.783-.4756z" fill="#FFBEC7"/><path opacity=".1" d="M210.152 58.8771c-1.029 1.5644-1.072 3.3379-.572 5.1029a11.987 11.987 0 0 1-6.849-1.1323 12.02 12.02 0 0 1-5.081-4.7414c.227-1.1897.378-2.3926.452-3.6015 0 0 15.979-1.5873 12.05 4.3723z" fill="#000"/><path d="M219.943 53.3248c.948-6.5763-3.604-12.6775-10.167-13.6275-6.564-.95-12.653 3.611-13.601 10.1873-.948 6.5762 3.604 12.6775 10.167 13.6275 6.563.9499 12.653-3.611 13.601-10.1873z" fill="#FFBEC7"/><path opacity=".1" d="M197.885 118.278l-.412 3.848c-3.497-.937-27.488-7.163-32.567-3.421-.241.181-.495.343-.761.484a21.9748 21.9748 0 0 0 2.048-4.298l31.692 3.387z" fill="#000"/><path d="M222.88 87.738c-1.598 6.2375-7.383 11.5382-11.684 14.744a48.4047 48.4047 0 0 1-4.95 3.272s-4.452 2.599-6.808 8.407a19.7252 19.7252 0 0 0-1.43 6.991s-27.514-7.567-32.993-3.536c-2.88 2.121-2.425-.876-1.344-4.194a34.3375 34.3375 0 0 1 4.481-8.911c1.512-2.181 3.411-5.3752 3.983-8.3522.758-3.954 5.902-18.9934 8.293-25.8699 1.281-3.7638 3.885-6.9321 7.326-8.9136 2.219-1.2578 6.371-1.467 9.265-.828 0 0-.933 3.1087 3.351 3.6646.463.0601.924.1432 1.378.2492 1.716.404 5.945 1.2091 7.821-.149l3.892 2.616s12.053 10.5324 9.419 20.8099z" fill="#DFE5EE"/><path opacity=".1" d="M210.218 46.2156c.272-.51.074-1.169-.314-1.5988a4.2643 4.2643 0 0 0-1.456-.9197l-2.611-1.1862a9.0903 9.0903 0 0 1-2.427-1.4326c-.698-.6361-1.201-1.5558-1.107-2.4927.094-.9369.732-1.6905 1.401-2.3294a14.894 14.894 0 0 1 1.679-1.3896 3.6441 3.6441 0 0 1 1.632-.7507c1.307-.1547 2.422.9197 3.704 1.2205 1.93.4527 3.786-.8853 5.719-1.2979 2.31-.4928 4.806.4183 6.454 2.1117 1.647 1.6933 2.482 4.0886 2.516 6.4553.02 1.2578-.163 2.5786.312 3.7247.217.5358.572 1.0114.757 1.5587.193.6969.254 1.424.178 2.1432a16.3801 16.3801 0 0 1-.301 2.9798c-.692 3.017-3.071 5.4209-5.793 6.8764-1.601.8596-3.351 1.4556-4.815 2.53a7.271 7.271 0 0 1-1.144.7822 2.6134 2.6134 0 0 1-2.557-.2206 1.8717 1.8717 0 0 1-.623-.6654c-.15-.27-.23-.573-.234-.8818.028-.6132.44-1.1318.757-1.6561.83-1.3667 1.024-3.3036-.08-4.464-.483-.5071-1.144-.8051-1.621-1.3237-.766-.8596-.858-2.0973-.884-3.2434-.074-2.1403-.128-4.3694.764-6.3034" fill="#000"/><path d="M210.364 44.4449a4.2646 4.2646 0 0 0-1.456-.9198l-2.61-1.1862a9.0777 9.0777 0 0 1-2.428-1.4326c-.698-.636-1.201-1.5558-1.107-2.4927.095-.9369.732-1.6904 1.401-2.3294a15.0851 15.0851 0 0 1 1.679-1.3896 3.6477 3.6477 0 0 1 1.633-.7507c1.307-.1547 2.422.9197 3.703 1.2206 1.93.4527 3.786-.8854 5.719-1.298 2.311-.4928 4.807.4184 6.454 2.1117 1.647 1.6933 2.482 4.0886 2.516 6.4553.02 1.2578-.163 2.5787.312 3.7248.217.5357.572 1.0114.758 1.5586.193.6969.253 1.424.177 2.1432a16.3474 16.3474 0 0 1-.309 2.9683c-.692 3.0171-3.071 5.421-5.793 6.8765-1.601.8596-3.352 1.4555-4.816 2.53a7.2232 7.2232 0 0 1-1.143.7822 2.6142 2.6142 0 0 1-2.557-.2206 1.8645 1.8645 0 0 1-.623-.6654c-.15-.27-.23-.573-.235-.8818.029-.6132.441-1.1318.758-1.6561.829-1.3667 1.024-3.3036-.08-4.464-.483-.5071-1.144-.8051-1.621-1.3237-.767-.8596-.858-2.0974-.884-3.2434-.074-2.1403-.437-4.1574.455-6.1029" fill="#88455E"/><path opacity=".1" d="M218.571 93.371c-1.759 2.0372-4.289 5.0743-7.366 9.111a48.4047 48.4047 0 0 1-4.95 3.272s-4.452 2.599-6.809 8.407c-9.37.493-20.697-18.1712-20.697-18.1712l7.418-7.7847 12.645 9.054 4.117-8.8391a14.8882 14.8882 0 0 1 4.886-5.8649 14.8533 14.8533 0 0 1 7.144-2.6677l.198-.0172c2.633-.2407 4.154 1.3352 5.03 3.3294a9.6825 9.6825 0 0 1 .657 5.3194 9.6727 9.6727 0 0 1-2.273 4.852z" fill="#000"/><g opacity=".05" fill="#000"><path opacity=".05" d="M195.065 60.3382s-.932 3.1087 3.352 3.6646c.463.0601.923.1432 1.378.2492 1.275.3062 2.575.5027 3.883.5874a25.6019 25.6019 0 0 1-1.93-.3782c-.48-.1146-.915-.1891-1.378-.2493-4.289-.5558-3.351-3.6646-3.351-3.6646a15.6452 15.6452 0 0 0-2.56-.3266c.209.0373.412.0745.606.1175zM213.464 66.9311l-3.892-2.616a3.3504 3.3504 0 0 1-.955.4613l2.894 1.9455s12.05 10.5296 9.416 20.8071c-1.598 6.2375-7.383 11.5381-11.684 14.744a48.4047 48.4047 0 0 1-4.95 3.272s-4.452 2.599-6.808 8.407a19.6757 19.6757 0 0 0-1.407 6.679c1.221.312 1.939.51 1.939.51.047-2.399.532-4.768 1.429-6.991 2.357-5.808 6.809-8.407 6.809-8.407a48.4047 48.4047 0 0 0 4.95-3.272c4.289-3.2033 10.085-8.5068 11.684-14.7443 2.625-10.266-9.425-20.7956-9.425-20.7956zM163.07 117.407l-.206.143c.109.906.715 1.129 2.159.066 1.716-1.255 5.545-1.386 10.009-.971-5.279-.639-10.014-.67-11.962.762z"/></g><path opacity=".05" d="M170.768 100.101s2.21 5.731 5.279 7.808c3.068 2.077 7.086 5.599 7.086 5.599" fill="#000"/><path d="M212.566 203.346l-4.61-19.948c-1.967-3.274-3.989-5.034-5.685-5.971-2.184-1.346-3.923-1.338-4.472-1.289l-.617-.653c-2.351-3.327-3.598-12.034-3.598-12.034-.123-4.083-2.705-6.848-6.028-8.716-5.599-3.361-13.628-4.011-15.335-4.112l-1.361-2.713-.366-.089-.086-.172c-.286-.077-.609-.143-.921-.206l2.408-49.5077.023-.4785 9.508.4642a2.8742 2.8742 0 0 0 2.004-.784 2.884 2.884 0 0 0 .903-1.9577 2.8875 2.8875 0 0 0-.704-2.0378 2.878 2.878 0 0 0-1.918-.9795l-11.132-.5444v-.2407l1.041-21.3916v-.2407a4.3768 4.3768 0 0 0 1.191-1.4412 4.3829 4.3829 0 0 0 .479-1.8079 4.1899 4.1899 0 0 0-.215-1.6402 4.1994 4.1994 0 0 0-.832-1.4288 4.184 4.184 0 0 0-1.32-.9944 4.1716 4.1716 0 0 0-3.233-.1576 4.174 4.174 0 0 0-1.41.8615 4.1856 4.1856 0 0 0-.966 1.3411 4.1941 4.1941 0 0 0-.374 1.6116c-.033.6297.07 1.2593.303 1.8454a4.3584 4.3584 0 0 0 1.044 1.5498v.2407l-1.046 21.3944v.2407l-11.144-.5272a2.8766 2.8766 0 0 0-2.005.784 2.8876 2.8876 0 0 0-.902 1.9577 2.8875 2.8875 0 0 0 .704 2.0378 2.8758 2.8758 0 0 0 1.917.9795l9.045.4413-.023.4785-2.439 50.1407c-3.497.441-6.953 1.16-10.335 2.152l-3.934 13.996-11.493 2.086-5.988 13.18-5.581 9.808c-.592.218-1.167.45-1.716.687-20.803 8.797-21.6467 30.641-21.6467 30.641 5.7967 9.902 35.0667 5.561 35.0667 5.561 16.705 15.005 49.91 6.287 49.91 6.287 8.006 1.977 14.343 2.833 19.342 3.025 13.937.533 17.443-4.117 17.443-4.117 5.015-12.745-8.896-27.612-8.896-27.612z" fill="url(#paint1_linear)"/><path d="M166.45 69.3631l-2.674 25.0653 5.329.5706 2.673-25.0654-5.328-.5705z" fill="#F9A826"/><path d="M161.541 95.5978l-5.99 56.1642 9.033.968 5.991-56.1649-9.034-.9673z" fill="#F0F5FA"/><path opacity=".05" d="M170.588 96.5644l-4.401-.4713-5.991 56.1649 4.402.471 5.99-56.1646z" fill="#000"/><path opacity=".1" d="M161.544 95.5998l-.248 2.322 9.033.9673.248-2.322-9.033-.9673zM164.049 91.8772l-.273 2.5527 5.329.5705.272-2.5526-5.328-.5706z" fill="#000"/><path d="M180.478 93.8649l-27.56-2.9513c-1.536-.1644-2.914.9491-3.078 2.4872-.164 1.538.948 2.9181 2.484 3.0826l27.56 2.9512c1.536.1645 2.914-.9491 3.078-2.4871.164-1.538-.948-2.9182-2.484-3.0826z" fill="#F9A826"/><path d="M101.061 221.062s-.231-22.406 21.896-31.518l5.124-9.801 5.359-13.072 11.415-2.578 3.26-13.77s12.582-4.436 20.731-2.803l1.63 2.803s20.966-.232 21.896 11.203c0 0 2.096 10.503 5.124 12.371 0 0 5.124-1.166 10.249 6.304l5.59 19.139s14.675 13.771 10.249 26.375c0 0-6.057 8.635-36.805 2.802 0 0-32.845 10.028-50.328-3.725.02.003-29.099 5.604-35.39-3.73z" fill="#A8A8A8"/><path opacity=".1" d="M115.736 217.56s4.659-6.535 4.427-11.203c-.232-4.667 1.098-16.059 1.098-16.059M132.742 200.054s4.658-8.636 4.192-13.303c0 0 4.893-8.882 8.619-8.169M158.366 175.548s12.811-4.668 13.512-8.404M163.025 186.284s13.511-6.057 13.511-7.702h6.754s9.782 12.836 8.619 18.441M178.866 195.619s-13.045-.934-17.703 2.802c-4.658 3.736-13.045 5.601-13.045 5.601s-4.893 10.504-6.754 12.372c-1.862 1.868-4.893 8.404-4.893 8.404M178.866 207.991s1.387 4.899 3.26 7.701c1.873 2.802 4.658 12.836 4.658 12.836M200.762 222.228s2.956 8.243 5.556 8.309" stroke="#000" stroke-miterlimit="10"/><path opacity=".1" d="M181.397 186.845s7.681 2.081 10.892 7.12c3.211 5.04 13.031 9.613 13.031 9.613M184.688 162.01s0 10.736 3.029 10.736c3.028 0 9.785 1.177 9.785 1.177M169.856 149.268s-.775 18.547-4.733 23.346" stroke="#000" stroke-miterlimit="10"/><g opacity=".05" fill="#000"><path opacity=".05" d="M212.875 199.12l-5.591-19.14c-5.124-7.469-10.248-6.303-10.248-6.303-3.029-1.865-5.125-12.361-5.125-12.361-.932-11.437-21.895-11.203-21.895-11.203l-1.63-2.802c-2.065-.412-4.412-.438-6.766-.243.572.057 1.113.137 1.642.243l1.63 2.802s20.966-.232 21.895 11.203c0 0 2.096 10.504 5.124 12.372 0 0 5.125-1.166 10.249 6.304l5.59 19.139s14.675 13.759 10.249 26.366c0 0-2.988 4.26-15.422 4.773 16.76.616 20.546-4.773 20.546-4.773 4.427-12.607-10.248-26.377-10.248-26.377zM130.878 224.563c-4.932.883-9.918 1.424-14.924 1.619 5.833.223 11.904-.407 15.816-.949-.299-.217-.597-.441-.892-.67zM181.194 228.296a95.5126 95.5126 0 0 1-21.998 3.484c10.737.39 20.909-1.851 25.103-2.928-1.006-.169-2.044-.352-3.105-.556z"/></g><path opacity=".05" d="M171.689 69.805l-2.781-.2977-2.425 22.7433 2.781.2978 2.425-22.7434z" fill="#000"/><path opacity=".1" d="M171.786 69.9425l-.194 1.8222a4.1891 4.1891 0 0 1-2.767.6767 4.1927 4.1927 0 0 1-2.561-1.2497l.195-1.8223 5.327.5731z" fill="#000"/><path d="M173.456 68.4729c.246-2.3066-1.421-4.3764-3.723-4.6229-2.302-.2465-4.368 1.4236-4.614 3.7302-.246 2.3067 1.421 4.3765 3.723 4.623 2.302.2465 4.368-1.4236 4.614-3.7303z" fill="#F9A826"/><path opacity=".05" d="M173.465 68.4838a4.2033 4.2033 0 0 1-1.539 2.8196 4.185 4.185 0 0 1-3.077.9052l.892-8.3549a4.1846 4.1846 0 0 1 2.82 1.5414c.346.43.604.9242.759 1.4542.155.53.204 1.0855.145 1.6345z" fill="#000"/><path d="M187.831 89.0418l-2.923 4.7476-2.796-2.4325-3.832-3.3351s-7.086.573-11.621-6.3034c-1.945-2.9426-.432-4.6273 1.927-5.5872a9.775 9.775 0 0 1 6.131-.3604 9.7902 9.7902 0 0 1 5.139 3.3689l7.975 9.9021z" fill="#FFBEC7"/><path opacity=".1" d="M187.831 89.0417l-2.92 4.7477-2.796-2.4355 4.109-4.3092 1.607 1.997z" fill="#000"/><path d="M203.89 87.6436l-4.118 8.8363-12.656-9.054-7.406 7.7847s16.991 27.9984 26.565 14.5034c5.808-8.197 10.486-13.9046 13.262-17.1222a9.6644 9.6644 0 0 0 2.278-4.851c.287-1.8.059-3.6445-.656-5.3204-.875-2.0057-2.396-3.5672-5.03-3.3294l-.197.0201a14.846 14.846 0 0 0-7.151 2.665 14.8894 14.8894 0 0 0-4.891 5.8675z" fill="#DFE5EE"/><path d="M262.845 189.209s-3.792-12.893.712-22.389a20.396 20.396 0 0 0 1.644-12.778 34.2525 34.2525 0 0 0-1.804-5.997" stroke="#535461" stroke-width="2" stroke-miterlimit="10"/><path d="M266.193 142.045c0 1.582-2.859 6.163-2.859 6.163s-2.86-4.584-2.86-6.163c0-.76.302-1.489.838-2.026a2.8581 2.8581 0 0 1 2.022-.839c.758 0 1.486.302 2.022.839.536.537.837 1.266.837 2.026zM270.917 150.798c-.858 1.327-5.742 3.619-5.742 3.619s.089-5.404.947-6.73c.428-.6 1.07-1.012 1.792-1.15a2.853 2.853 0 0 1 2.089.41 2.8647 2.8647 0 0 1 1.228 1.742c.17.717.058 1.473-.314 2.109zM270.709 165.76c-1.41.711-6.78.221-6.78.221s2.799-4.619 4.206-5.329a2.8503 2.8503 0 0 1 2.232-.24c.369.113.712.3 1.007.549.295.249.537.556.71.901.174.345.276.722.301 1.107.025.386-.029.773-.158 1.138-.128.364-.329.699-.59.984-.261.284-.577.513-.928.672v-.003zM268.009 177.046c-1.269.94-6.645 1.364-6.645 1.364s1.978-5.025 3.248-5.965c.3-.246.646-.428 1.018-.535a2.848 2.848 0 0 1 1.147-.09c.384.048.754.174 1.088.369.335.196.626.458.856.77a2.869 2.869 0 0 1 .518 2.197 2.8625 2.8625 0 0 1-1.23 1.89zM259.176 154.726c1.144 1.101 6.403 2.244 6.403 2.244s-1.29-5.246-2.422-6.346a2.8467 2.8467 0 0 0-.938-.674 2.8441 2.8441 0 0 0-1.127-.248c-.388-.005-.774.069-1.132.219-.359.149-.684.37-.955.649a2.872 2.872 0 0 0-.621.974c-.138.364-.202.752-.186 1.141.016.389.111.771.28 1.122.168.351.405.664.698.919zM256.188 167.961c1.41.71 6.78.221 6.78.221s-2.8-4.619-4.207-5.33a2.8441 2.8441 0 0 0-1.091-.348 2.8593 2.8593 0 0 0-1.141.109 2.841 2.841 0 0 0-1.006.549 2.868 2.868 0 0 0-.711.9c-.174.345-.276.722-.3 1.108a2.87 2.87 0 0 0 .157 1.137c.129.365.329.699.59.984.261.285.577.514.929.673v-.003zM255.041 181.227c1.27.939 6.646 1.363 6.646 1.363s-1.979-5.025-3.249-5.965a2.8533 2.8533 0 0 0-2.078-.439c-.724.126-1.371.527-1.808 1.119a2.8708 2.8708 0 0 0-.538 2.059c.091.73.459 1.397 1.027 1.863zM21.3378 144.948s11.9643 11.988 5.2101 29.775 11.5868 47.367 11.5868 47.367-.1973-.028-.5719-.092c-24.572-4.346-36.7793-32.502-23.1165-53.421 5.0814-7.779 9.2506-16.902 6.8915-23.629z" fill="#F9A826"/><path opacity=".1" d="M21.3378 145.145s11.9642 11.988 5.21 29.776c-6.7542 17.787 11.5868 47.367 11.5868 47.367s-.1973-.029-.5719-.092c-24.569-4.346-36.7764-32.514-23.1135-53.43 5.0785-7.767 9.2477-16.905 6.8886-23.621z" fill="#000"/><path d="M21.3378 144.948s6.7542 14.692 0 26.68-1.1438 45.629 16.7883 50.462" stroke="#535461" stroke-miterlimit="10"/><path d="M.032 193.43s13.6513-2.178 14.8952 10.079c1.2439 12.258 26.2505 13.965 26.2505 13.965l-.469.307c-20.6458 13.581-40.385 8.65-37.4083-9.384 1.0923-6.701 1.0151-13.435-3.2685-14.967z" fill="#F9A826"/><path d="M.032 193.429s10.5973 2.33 9.7223 11.986c-.875 9.655 15.7389 21.228 31.4234 12.059" stroke="#535461" stroke-miterlimit="10"/><path d="M251.204 186.473s6.408-.198 8.338-1.576c1.93-1.378 9.857-3.023 10.334-.814.478 2.209 9.628 10.988 2.397 11.048-7.232.061-16.809-1.128-18.736-2.292-1.927-1.163-2.333-6.366-2.333-6.366z" fill="#A8A8A8"/><path opacity=".2" d="M272.401 194.364c-7.234.057-16.808-1.129-18.735-2.293-1.467-.896-2.053-4.108-2.248-5.592h-.214s.406 5.177 2.333 6.355c1.927 1.177 11.501 2.363 18.736 2.292 2.087-.017 2.808-.762 2.77-1.863-.291.671-1.089 1.086-2.642 1.101z" fill="#000"/><path d="M51.7632 218.488s-10.7547-2.16-13.6285-5.025c-2.8738-2.865-15.7703-7.899-17.2029-4.298-1.4326 3.602-19.3476 15.787-7.1603 17.942 12.1873 2.155 28.6725 2.865 32.2555 1.433 3.583-1.433 5.7362-10.052 5.7362-10.052z" fill="#A8A8A8"/><path opacity=".2" d="M13.7715 225.783c12.1873 2.155 28.6724 2.865 32.2554 1.433 2.7309-1.095 4.6267-6.349 5.3759-8.796l.3575.074s-2.1504 8.619-5.7334 10.054c-3.583 1.436-20.071.719-32.2554-1.432-3.5172-.622-4.5238-2.083-4.1435-3.931.2974 1.197 1.5241 2.125 4.1435 2.598z" fill="#000"/></g><defs><linearGradient id="paint0_linear" x1="159.701" y1="221.516" x2="180.353" y2="28.6485" gradientUnits="userSpaceOnUse"><stop stop-color="gray" stop-opacity=".25"/><stop offset=".54" stop-color="gray" stop-opacity=".12"/><stop offset="1" stop-color="gray" stop-opacity=".1"/></linearGradient><linearGradient id="paint1_linear" x1="68765.1" y1="147585" x2="74154.8" y2="43231.4" gradientUnits="userSpaceOnUse"><stop stop-color="gray" stop-opacity=".25"/><stop offset=".54" stop-color="gray" stop-opacity=".12"/><stop offset="1" stop-color="gray" stop-opacity=".1"/></linearGradient><clipPath id="clip0"><path fill="#fff" d="M0 0h305v251H0z"/></clipPath></defs></svg>