<svg viewBox="0 0 70 70" width="70" height="70" fill="none" xmlns="http://www.w3.org/2000/svg"><circle cx="35" cy="35" r="35" fill="#3F2E83" filter="url(#filter0_i)"/><g clip-path="url(#clip0)"><path d="M52.129 54.3445L19.1333 24.6586 24.293 14.7l36.2786 39.4007-8.4426.2438zM37.1 23.0997c1.1025 0 1.9963-.886 1.9963-1.9788 0-1.0929-.8938-1.9788-1.9963-1.9788s-1.9963.8859-1.9963 1.9788c0 1.0928.8938 1.9788 1.9963 1.9788z" fill="#F2F2F2"/><path d="M45.8716 25.858c.3675 0 .6654-.2953.6654-.6596 0-.3643-.2979-.6596-.6654-.6596s-.6654.2953-.6654.6596c0 .3643.2979.6596.6654.6596zM45.8716 31.0746c.3675 0 .6654-.2953.6654-.6596 0-.3643-.2979-.6596-.6654-.6596s-.6654.2953-.6654.6596c0 .3643.2979.6596.6654.6596zM52.5259 32.3939c.3675 0 .6655-.2953.6655-.6596 0-.3643-.298-.6596-.6655-.6596s-.6654.2953-.6654.6596c0 .3643.2979.6596.6654.6596z" fill="#3F3D56"/><path d="M37.1 55.2999c13.531 0 24.5-.5369 24.5-1.1993 0-.6623-10.969-1.1992-24.5-1.1992s-24.5.5369-24.5 1.1992c0 .6624 10.969 1.1993 24.5 1.1993z" fill="#F2F2F2"/><path d="M51.432 34.6219c-.2779-.4544-1.2486-.4426-1.2486-.4426-.8837 1.3015-3.0081-.081-3.0081-.081-1.5778.6997-2.5405-1.5301-2.5405-1.5301-2.123-.3147-1.795-2.5249-1.795-2.5249-1.0563-.2102-.7599-2.1031-.7599-2.1031s.5861-.4765.2977-.8251c-.1834-.2216-.1948-.8576-.1788-1.2918a14.6973 14.6973 0 0 0-4.2519-.6251c-8.0517 0-14.579 6.4701-14.579 14.4512 0 7.9812 6.5273 14.4512 14.579 14.4512 8.0518 0 14.579-6.47 14.579-14.4512a14.3027 14.3027 0 0 0-.9263-5.0773c-.0748.0837-.1328.1067-.1676.0498z" fill="#3F3D56"/><path opacity=".1" d="M51.432 34.6219c-.2779-.4544-1.2486-.4426-1.2486-.4426-.8837 1.3015-3.0081-.081-3.0081-.081-1.5778.6997-2.5405-1.5301-2.5405-1.5301-2.123-.3147-1.795-2.5249-1.795-2.5249-1.0563-.2102-.7599-2.1031-.7599-2.1031s.5861-.4765.2977-.8251c-.1834-.2216-.1948-.8576-.1788-1.2918a14.6973 14.6973 0 0 0-4.2519-.6251c-8.0517 0-14.579 6.4701-14.579 14.4512 0 7.9812 6.5273 14.4512 14.579 14.4512 8.0518 0 14.579-6.47 14.579-14.4512a14.3027 14.3027 0 0 0-.9263-5.0773c-.0748.0837-.1328.1067-.1676.0498z" fill="#000"/><path d="M50.568 34.5649c-.2643-.4321-1.1875-.421-1.1875-.421-.8405 1.2379-2.8608-.077-2.8608-.077-1.5006.6654-2.4162-1.4552-2.4162-1.4552-2.0191-.2993-1.7072-2.4013-1.7072-2.4013-1.0045-.1999-.7226-2.0002-.7226-2.0002s.5574-.4531.2831-.7846c-.1744-.2108-.1852-.8156-.17-1.2286a13.9787 13.9787 0 0 0-4.0438-.5945c-7.6576 0-13.8653 6.1533-13.8653 13.7438 0 7.5905 6.2077 13.7438 13.8653 13.7438 7.6576 0 13.8654-6.1533 13.8654-13.7438a13.6063 13.6063 0 0 0-.881-4.8288c-.0712.0796-.1263.1015-.1594.0474z" fill="#3F3D56"/><path d="M36.0875 33.7273s-2.391-1.5082-4.6734 0c-.7988.5279-1.1982 1.2801-1.3799 2.035-.3231 1.3421.0312 2.7571.8953 3.839l5.1632 6.4648c.1771.2252.4145.3965.6851.4942.2707.0978.5636.1181.8454.0586a1.5454 1.5454 0 0 0 .5967-.2741 1.5304 1.5304 0 0 0 .41-.466l3.5909-6.2506a6.0092 6.0092 0 0 0 .7757-3.7653c-.1684-1.2855-.7911-2.6405-2.5618-3.1051 0 0-2.0649-.8619-4.3472.9695z" fill="#F9A826"/><path opacity=".1" d="M36.0875 33.7273s-2.391-1.5082-4.6734 0c-.7988.5279-1.1982 1.2801-1.3799 2.035-.3231 1.3421.0312 2.7571.8953 3.839l5.1632 6.4648c.1771.2252.4145.3965.6851.4942.2707.0978.5636.1181.8454.0586a1.5454 1.5454 0 0 0 .5967-.2741 1.5304 1.5304 0 0 0 .41-.466l3.5909-6.2506a6.0092 6.0092 0 0 0 .7757-3.7653c-.1684-1.2855-.7911-2.6405-2.5618-3.1051 0 0-2.0649-.8619-4.3472.9695z" fill="#000"/><path d="M36.1118 34.0913s-2.2429-1.4148-4.3839 0c-.7493.4951-1.124 1.2008-1.2945 1.9089-.3031 1.259.0293 2.5863.8398 3.6012l4.8435 6.0644a1.439 1.439 0 0 0 .6427.4637 1.4521 1.4521 0 0 0 .8247.0476 1.4482 1.4482 0 0 0 .528-.2498 1.4357 1.4357 0 0 0 .3847-.4371l3.3685-5.8635a5.6372 5.6372 0 0 0 .7276-3.5322c-.1579-1.2058-.7421-2.4769-2.4031-2.9127 0 0-1.937-.8085-4.078.9095z" fill="#F9A826"/><path opacity=".1" d="M36.1991 36.5171s-1.0912-.6883-2.1329 0c-.3234.217-.5492.55-.6298.9288a2.0453 2.0453 0 0 0 .0016.9225c.0707.3034.2099.587.407.8296 0 0 2.7938 3.2608 3.055 3.2028a.4848.4848 0 0 0 .0154-.0036c.1882-.0448 2.0829-3.1869 2.0829-3.1869a2.7429 2.7429 0 0 0 .3541-1.7185c-.0769-.5867-.3611-1.2051-1.1692-1.4172 0 0-.9425-.3933-1.9841.4425zM29.3831 41.6707l.3058.5053.6117 1.0105.2039.7074-.4078.6064.5097 1.2127.2039.7074-.4077.4042.8155.6063M44.3698 37.2241v.8085l-.5097 1.3137-.3059.7074.5098.9096.2039.6063.8156.3032.3059.5053v1.2126M49.5693 38.0325l-.8156.5053s-.4078.2021-.4078.3031v.8085M45.8991 35.2029l.2039 1.0105-.2039.7075M46.7147 44.2981l-.6117.9095-.7136.6063v.4042l.4077.5053v.6064l-.3058.6063M40.9035 27.1184H39.884l-.8156.7074-1.3254.7074-.6117.5053v.2021l-1.3254.7074-.4078.7074M29.8928 28.8364l-.9176 1.8191-.3058.7074-.7137.9095s-.5097.9095-.6117 1.0105c-.1019.1011-.8156.3032-.8156.3032l1.0195 1.0106M25.8148 35.8093l-.204 1.3138.204.8085v1.4147l-.6118 2.6275.6118.7074.7136.9095M27.344 36.4158l.6117.3031.4078 1.3138.8156-.2022.4078.7075M38.5586 49.5531l1.6313-.2022.7136-.7073h1.0195M28.6693 47.4309l.6118.7074 1.0195.3032.7137.2021.2038 1.1116M40.6996 43.995l.7137-.5053.3058-.8085.6118-.1011.3058-1.0105" fill="#000"/><path d="M22.3902 18.6023h1.707a2.041 2.041 0 0 1 1.4369.59c.3811.3777.5952.8901.5952 1.4243v3.7064H20.358v-3.7064c0-.2645.0526-.5264.1547-.7708a2.0138 2.0138 0 0 1 .4405-.6535 2.0345 2.0345 0 0 1 .6593-.4367 2.0485 2.0485 0 0 1 .7777-.1533z" fill="#2F2E41"/><path d="M24.1427 50.3877s-.1815 1.1393-.484 1.3192c-.3024.1799 1.5729.5996 1.5729.5996l.3025-1.7989-1.3914-.1199z" fill="#FBBEBE"/><path d="M26.381 37.3757l.6654.7796-.3025 2.6983-.2419 5.3368s.4839 4.6171 0 4.7371c-.484.1199-2.6618.0599-2.6013-.2399.0605-.2998.121-.5397.242-.9594.121-.4197-.121-1.9188-.121-1.9188l.3025-1.679-1.0889-7.2556 3.1457-1.4991zM24.2032 51.5272s-.6654-.1199-.7259 0-1.2099 1.3791-1.3914 1.3791-1.5123 1.1993-.121 1.2593c1.3914.0599 3.6902-1.0194 3.6902-1.0194s-.3383-1.5259-.3204-1.4525c.0179.0733-1.1315.1333-1.1315-.1665z" fill="#2F2E41"/><path d="M23.4773 48.7687s1.6938 1.8589 1.7543 2.0388c.0605.1799.9679 0 .9679 0l.363-1.1993-.3025-.4197-1.6938-1.3792-1.0889.9594z" fill="#FBBEBE"/><path d="M25.897 50.1481l-.8771.8184s1.1191 1.7 1.1191 1.8799c0 .1799.0605 1.679.6654 1.4392.605-.2399.6655-2.6384.6655-2.6384s-.0605-2.4585-.4235-2.6384c-.363-.1799-1.1585-.1231-1.1585-.1231s.4931 1.2024.0091 1.2624zM20.876 32.0391s-.3024.9594-.3629 1.1993-.4235.8995-.4235 1.9188c0 1.0194.121 2.2187 0 2.3386-.121.1199-2.0568 6.8358-1.2099 7.5554.847.7196 3.6297 3.1181 3.8112 3.4179.1814.2998.2419 1.0194.6049.8995.363-.12 1.7543-1.3192 1.8148-1.5591.0605-.2398-.7864-.6596-.7864-.6596s-1.6938-2.4585-2.1173-2.3985c-.4235.0599-.363-.2998-.3025-.4797s.1815-.2998 0-.2998c-.1814 0-.0605-.4797 0-.7196s1.4519-3.4779 1.4519-3.4779l3.6901-1.619s-.1815-4.3773-1.5123-5.5766l-.3025-.7196s-3.3877-.2398-4.3556.1799z" fill="#2F2E41"/><path d="M22.3884 22.5647s.3025 2.0987-.4235 2.2186c-.7259.12-1.3308.06-1.3308.12 0 .0599 1.8148 1.9188 1.8148 1.9188l1.6938-.1199 1.5124-1.619s-1.3914-.2399-1.3914-1.0794c0-.8395-.0605-1.4391-.0605-1.4391h-1.8148z" fill="#FBBEBE"/><path opacity=".1" d="M22.3884 22.5647s.3025 2.0987-.4235 2.2186c-.7259.12-1.3308.06-1.3308.12 0 .0599 1.8148 1.9188 1.8148 1.9188l1.6938-.1199 1.5124-1.619s-1.3914-.2399-1.3914-1.0794c0-.8395-.0605-1.4391-.0605-1.4391h-1.8148z" fill="#000"/><path d="M23.326 23.4343c1.0357 0 1.8753-.8323 1.8753-1.8589s-.8396-1.8588-1.8753-1.8588c-1.0357 0-1.8753.8322-1.8753 1.8588s.8396 1.8589 1.8753 1.8589z" fill="#FBBEBE"/><path d="M21.6625 24.6035s-2.3593.2998-2.5408 1.0794c-.1815.7795 1.2099 5.6365 1.3914 6.0563.1815.4197.121.7195.121.7195a2.4033 2.4033 0 0 1 .922-.4177 2.4143 2.4143 0 0 1 1.0138-.002c1.1494.2398 2.7827.1199 2.7827.1199s.5444-2.2186.6654-2.4585c.121-.2398.605-1.559.605-1.9188 0-.3598.7259-1.8589.7259-1.8589s-.363-1.0793-1.6938-1.0194c0 0-.5806-.2575-.744-.0688-.1635.1888-1.0709 1.0282-2.2202.6685-1.1494-.3598-1.0284-.8995-1.0284-.8995z" fill="#FF6584"/><path d="M19.7872 25.623h-.6655l-.3629 4.7372s1.3308.3597 1.5123.1199c.1815-.2399-.4839-4.8571-.4839-4.8571zM26.1995 25.623l1.1494.2999s.8469 3.0581.9074 3.1181c.0605.0599.121.4197.121.4197s0 .06.121.2399c.1209.1799.3024.0599.1814.2998-.1209.2398-.3024.1199-.1814.3598.1209.2398.0605.8994.0605.8994s-.3025-1.1393-1.3914-.8395l-.7259-3.238-.242-1.5591z" fill="#FF6584"/><path d="M24.7902 21.1233h-2.9139l-.6597-1.5029h4.0684l-.4948 1.5029z" fill="#2F2E41"/><path d="M21.494 22.2231c.0779-.0223.0922-.2073.0321-.413-.0602-.2057-.172-.3544-.2499-.332-.0778.0223-.0921.2072-.032.413.0602.2057.172.3544.2498.332zM25.4362 21.8911c.0602-.2058.0458-.3907-.032-.413-.0778-.0224-.1897.1263-.2498.332-.0602.2057-.0458.3906.032.413.0778.0224.1897-.1263.2498-.332z" fill="#FFB9B9"/><path d="M24.9407 29.8154c.6014 0 1.0889-.4832 1.0889-1.0793 0-.5961-.4875-1.0794-1.0889-1.0794-.6013 0-1.0888.4833-1.0888 1.0794 0 .5961.4875 1.0793 1.0888 1.0793z" fill="#3F3D56"/><path opacity=".1" d="M24.9407 29.8154c.6014 0 1.0889-.4832 1.0889-1.0793 0-.5961-.4875-1.0794-1.0889-1.0794-.6013 0-1.0888.4833-1.0888 1.0794 0 .5961.4875 1.0793 1.0888 1.0793z" fill="#000"/><path d="M24.9407 29.7085c.5418 0 .9809-.4353.9809-.9723s-.4391-.9723-.9809-.9723c-.5417 0-.9809.4353-.9809.9723s.4392.9723.9809.9723z" fill="#3F3D56"/><path opacity=".1" d="M24.8975 28.1865s-.2499-.1577-.4885 0a.3415.3415 0 0 0-.1442.2127.4682.4682 0 0 0 .0936.4013l.5396.6757a.1615.1615 0 0 0 .16.0578l.0035-.0008a.1608.1608 0 0 0 .1017-.0766l.3754-.6533a.6287.6287 0 0 0 .0811-.3936.3527.3527 0 0 0-.0801-.2059.3573.3573 0 0 0-.1877-.1187s-.2158-.09-.4544.1014z" fill="#000"/><path d="M24.9 28.2246s-.2344-.1479-.4582 0a.3205.3205 0 0 0-.1353.1995.4393.4393 0 0 0 .0878.3764l.5063.6339a.1501.1501 0 0 0 .15.0542l.0033-.0008a.1494.1494 0 0 0 .0954-.0718l.3521-.6129a.5886.5886 0 0 0 .0761-.3692.33.33 0 0 0-.0752-.1931.3342.3342 0 0 0-.176-.1113s-.2025-.0845-.4263.0951z" fill="#F9A826"/><path opacity=".1" d="M24.9092 28.478a.2167.2167 0 0 0-.223 0 .156.156 0 0 0-.0658.0971.2148.2148 0 0 0 .0427.1831s.292.3409.3193.3348l.0016-.0004c.0197-.0047.2177-.3331.2177-.3331a.2863.2863 0 0 0 .037-.1796.1602.1602 0 0 0-.0365-.094.163.163 0 0 0-.0857-.0541.2135.2135 0 0 0-.2073.0462z" fill="#000"/><path d="M23.9728 30.415c.6014 0 1.0889-.4832 1.0889-1.0793 0-.5961-.4875-1.0794-1.0889-1.0794-.6013 0-1.0888.4833-1.0888 1.0794 0 .5961.4875 1.0793 1.0888 1.0793z" fill="#3F3D56"/><path opacity=".1" d="M23.9728 30.415c.6014 0 1.0889-.4832 1.0889-1.0793 0-.5961-.4875-1.0794-1.0889-1.0794-.6013 0-1.0888.4833-1.0888 1.0794 0 .5961.4875 1.0793 1.0888 1.0793z" fill="#000"/><path d="M23.9728 30.3081c.5418 0 .9809-.4353.9809-.9723s-.4391-.9723-.9809-.9723c-.5417 0-.9809.4353-.9809.9723s.4392.9723.9809.9723z" fill="#3F3D56"/><path opacity=".1" d="M23.9296 28.7861s-.2499-.1576-.4885 0a.3415.3415 0 0 0-.1442.2127.4682.4682 0 0 0 .0936.4013l.5396.6757a.1606.1606 0 0 0 .16.0578l.0035-.0008a.1608.1608 0 0 0 .1018-.0766l.3753-.6533a.6285.6285 0 0 0 .0811-.3936.3527.3527 0 0 0-.0801-.2059.3571.3571 0 0 0-.1877-.1186s-.2158-.0901-.4544.1013z" fill="#000"/><path d="M23.9321 28.8242s-.2344-.1479-.4582 0a.3205.3205 0 0 0-.1353.1995.4393.4393 0 0 0 .0878.3764l.5063.6339a.1501.1501 0 0 0 .15.0542l.0033-.0008a.1494.1494 0 0 0 .0954-.0718l.3521-.6128a.589.589 0 0 0 .0761-.3692.33.33 0 0 0-.0752-.1932.3348.3348 0 0 0-.176-.1113s-.2025-.0845-.4263.0951z" fill="#F9A826"/><path opacity=".1" d="M23.9412 29.0779a.2162.2162 0 0 0-.2229 0 .1556.1556 0 0 0-.0658.097.214.214 0 0 0 .0427.1832s.292.3408.3193.3347l.0016-.0003c.0197-.0047.2177-.3331.2177-.3331a.2866.2866 0 0 0 .037-.1797.1599.1599 0 0 0-.0365-.0939.1625.1625 0 0 0-.0857-.0542.2135.2135 0 0 0-.2074.0463z" fill="#000"/><path d="M23.1425 26.6375c-.0265-.0434-.1191-.0423-.1191-.0423-.0844.1242-.2871-.0077-.2871-.0077-.1506.0668-.2425-.146-.2425-.146-.2026-.0301-.1713-.241-.1713-.241-.1008-.0201-.0725-.2007-.0725-.2007s.0559-.0455.0284-.0788a.2407.2407 0 0 1-.0171-.1232 1.4013 1.4013 0 0 0-.9145.0362 1.3865 1.3865 0 0 0-.6937.5919 1.3676 1.3676 0 0 0-.1723.8911c.0457.3078.1951.5912.4239.8041a1.4 1.4 0 0 0 1.7227.1422 1.3802 1.3802 0 0 0 .5523-.7235 1.3673 1.3673 0 0 0-.0212-.9071c-.0071.008-.0127.0102-.016.0048z" fill="#3F3D56"/><path opacity=".1" d="M23.1425 26.6375c-.0265-.0434-.1191-.0423-.1191-.0423-.0844.1242-.2871-.0077-.2871-.0077-.1506.0668-.2425-.146-.2425-.146-.2026-.0301-.1713-.241-.1713-.241-.1008-.0201-.0725-.2007-.0725-.2007s.0559-.0455.0284-.0788a.2407.2407 0 0 1-.0171-.1232 1.4013 1.4013 0 0 0-.9145.0362 1.3865 1.3865 0 0 0-.6937.5919 1.3676 1.3676 0 0 0-.1723.8911c.0457.3078.1951.5912.4239.8041a1.4 1.4 0 0 0 1.7227.1422 1.3802 1.3802 0 0 0 .5523-.7235 1.3673 1.3673 0 0 0-.0212-.9071c-.0071.008-.0127.0102-.016.0048z" fill="#000"/><path d="M23.0601 26.6318c-.0253-.0413-.1134-.0402-.1134-.0402-.0802.1181-.273-.0074-.273-.0074-.1432.0635-.2306-.1388-.2306-.1388-.1927-.0286-.1629-.2292-.1629-.2292-.0959-.0191-.069-.1909-.069-.1909s.0532-.0432.027-.0749a.2283.2283 0 0 1-.0162-.1172 1.3334 1.3334 0 0 0-.8698.0344 1.3192 1.3192 0 0 0-.6597.563 1.3001 1.3001 0 0 0-.1638.8474c.0434.2927.1855.5623.4031.7648.2176.2025.498.3261.7954.3506a1.3308 1.3308 0 0 0 .843-.2154 1.3116 1.3116 0 0 0 .5252-.6881 1.3003 1.3003 0 0 0-.0201-.8627c-.0068.0076-.0121.0097-.0152.0046z" fill="#3F3D56"/><path d="M21.6781 26.552s-.2282-.1439-.446 0a.3126.3126 0 0 0-.1317.1943.4274.4274 0 0 0 .0855.3663l.4927.617a.1472.1472 0 0 0 .1461.0528l.0032-.0008a.1468.1468 0 0 0 .0928-.0699l.3427-.5965a.5738.5738 0 0 0 .0741-.3593.3217.3217 0 0 0-.0732-.188.3263.3263 0 0 0-.1713-.1084s-.1971-.0822-.4149.0925z" fill="#F9A826"/><path opacity=".1" d="M21.6781 26.552s-.2282-.1439-.446 0a.3126.3126 0 0 0-.1317.1943.4274.4274 0 0 0 .0855.3663l.4927.617a.1472.1472 0 0 0 .1461.0528l.0032-.0008a.1468.1468 0 0 0 .0928-.0699l.3427-.5965a.5738.5738 0 0 0 .0741-.3593.3217.3217 0 0 0-.0732-.188.3263.3263 0 0 0-.1713-.1084s-.1971-.0822-.4149.0925z" fill="#000"/><path d="M21.6804 26.5866s-.214-.135-.4184 0a.2931.2931 0 0 0-.1235.1822.4008.4008 0 0 0 .0802.3437l.4622.5788a.1377.1377 0 0 0 .137.0494l.003-.0006a.1379.1379 0 0 0 .0871-.0656l.3215-.5596a.5378.5378 0 0 0 .0695-.3371.3016.3016 0 0 0-.0686-.1763.306.306 0 0 0-.1608-.1017s-.1848-.0771-.3892.0868z" fill="#F9A826"/><path opacity=".1" d="M21.6888 26.8181a.1981.1981 0 0 0-.2036 0 .1424.1424 0 0 0-.0601.0887.1957.1957 0 0 0 .039.1672s.2666.3112.2916.3056l.0014-.0003a3.4599 3.4599 0 0 0 .1988-.3042.2619.2619 0 0 0 .0338-.164.1466.1466 0 0 0-.0334-.0858.1491.1491 0 0 0-.0782-.0494.1954.1954 0 0 0-.1893.0422zM21.0383 27.3101l.0291.0482.0584.0964.0195.0675-.039.0579.0487.1157.0195.0675-.0389.0386.0778.0579M22.4685 26.8857v.0772l-.0486.1254-.0292.0675.0486.0868.0195.0578.0779.029.0291.0482v.1158M22.9648 26.9629l-.0779.0482s-.0389.0193-.0389.0289v.0772M22.6145 26.6926l.0194.0964-.0194.0676M22.6923 27.5608l-.0584.0868-.0681.0578v.0386l.039.0483v.0578l-.0292.0579M22.1377 25.9211h-.0973l-.0778.0676-.1265.0675-.0584.0482v.0193l-.1265.0675-.0389.0675M21.0869 26.0852l-.0876.1736-.0292.0675-.0681.0868s-.0486.0868-.0583.0965a.4007.4007 0 0 1-.0779.0289l.0973.0964M20.6977 26.7505l-.0195.1254.0195.0771v.1351l-.0584.2507.0584.0675.0681.0868M20.8437 26.8086l.0584.029.0388.1253.0779-.0193.0389.0676M21.9139 28.0624l.1557-.0193.0681-.0675h.0973M20.9702 27.8599l.0583.0675.0973.0289.0681.0193.0195.1061M22.1183 27.5318l.0681-.0483.0292-.0771.0583-.0097.0293-.0964" fill="#000"/><path d="M18.9402 29.8804l-.1814.4797s-.121 1.5591.6049 1.4991c.7259-.0599 1.1494-.9594 1.1494-.9594s-.4235-1.1393-.9074-1.0194c-.484.12-.6655 0-.6655 0z" fill="#FF6584"/><path d="M19.5452 30.1801s-.363 1.0793.0605 1.0793c.4234 0 1.2098-.6596 1.2703-1.1993.0605-.5396 1.1494-2.5784.363-2.3985-.7864.1799-1.1494 1.679-1.1494 1.679l-.5444.8395zM28.1958 30.24l.3779.6261s.1665 1.1728-.6804 1.1728-2.0568-1.1393-2.0568-1.1393-.6049-.2398-.9679-.1799c-.3629.06-2.3592 0-1.5123-1.0193.8469-1.0194 2.2988 0 2.2988 0l1.5123.7195.7864-.4197.242.2398z" fill="#FBBEBE"/><path d="M27.6816 29.4307l-.6049.9594s1.3913.1799 1.5123.4797c.121.2999-.5444-1.559-.5444-1.559l-.363.1199z" fill="#FF6584"/></g><circle cx="35" cy="35" r="35" fill="#fff" fill-opacity=".6"/><defs><filter id="filter0_i" x="0" y="0" width="70" height="74" filterUnits="userSpaceOnUse" color-interpolation-filters="sRGB"><feFlood flood-opacity="0" result="BackgroundImageFix"/><feBlend in="SourceGraphic" in2="BackgroundImageFix" result="shape"/><feColorMatrix in="SourceAlpha" values="0 0 0 0 0 0 0 0 0 0 0 0 0 0 0 0 0 0 127 0" result="hardAlpha"/><feOffset dy="7"/><feGaussianBlur stdDeviation="2"/><feComposite in2="hardAlpha" operator="arithmetic" k2="-1" k3="1"/><feColorMatrix values="0 0 0 0 0.14902 0 0 0 0 0 0 0 0 0 0.337255 0 0 0 0.25 0"/><feBlend in2="shape" result="effect1_innerShadow"/></filter><clipPath id="clip0"><path fill="#fff" d="M12.6 14.7h49v40.6h-49z"/></clipPath></defs></svg>