<svg viewBox="0 0 38 38" width="38" height="38" fill="none" xmlns="http://www.w3.org/2000/svg"><g filter="url(#filter0_d)"><circle cx="19" cy="15" r="14" stroke="#fff" stroke-width="2"/><path d="M20.5703 15.7578l4.0078 4.8399c.4766.0078.8321.125 1.0664.3515.2422.2188.3633.5039.3633.8555 0 .3515-.125.6406-.375.8672-.2422.2187-.6523.3281-1.2305.3281h-2.707c-.5703 0-.9805-.1094-1.2305-.3281-.2421-.2266-.3632-.5196-.3632-.8789 0-.336.1132-.6133.3398-.8321.2266-.2265.5664-.3476 1.0195-.3632l-2.414-2.9766-2.4375 2.9766c.4453.0156.7812.1367 1.0078.3632.2265.2266.3398.5079.3398.8438 0 .3515-.125.6406-.375.8672-.2422.2187-.6523.3281-1.2304.3281h-2.6954c-.5781 0-.9921-.1094-1.2421-.3281-.2422-.2266-.3633-.5196-.3633-.8789 0-.3438.1211-.6289.3633-.8555.2421-.2266.5976-.3398 1.0664-.3398l3.9843-4.8633-3.7968-4.5352c-.4688-.0156-.8203-.1328-1.0547-.3515-.2266-.2266-.3399-.5118-.3399-.8555 0-.3594.1211-.6485.3633-.8672.25-.2266.6641-.3398 1.2422-.3398l2.2148.0117c.5782 0 .9883.1093 1.2305.3281.25.2188.375.5078.375.8672 0 .2656-.0781.5078-.2344.7266-.1015.1328-.3281.2929-.6796.4804l2.2382 2.6836 2.1914-2.6836c-.3515-.1875-.5781-.3476-.6796-.4804-.1563-.2188-.2344-.461-.2344-.7266 0-.3516.1211-.6406.3633-.8672.25-.2266.664-.3398 1.2421-.3398l2.2032.0117c.5781 0 .9883.1093 1.2304.3281.25.2188.375.5078.375.8672 0 .3437-.1211.6289-.3632.8555-.2344.2265-.5782.3437-1.0313.3515l-3.75 4.5586z" fill="#fff"/></g><defs><filter id="filter0_d" x="0" y="0" width="38" height="38" filterUnits="userSpaceOnUse" color-interpolation-filters="sRGB"><feFlood flood-opacity="0" result="BackgroundImageFix"/><feColorMatrix in="SourceAlpha" values="0 0 0 0 0 0 0 0 0 0 0 0 0 0 0 0 0 0 127 0"/><feOffset dy="4"/><feGaussianBlur stdDeviation="2"/><feColorMatrix values="0 0 0 0 0 0 0 0 0 0 0 0 0 0 0 0 0 0 0.25 0"/><feBlend in2="BackgroundImageFix" result="effect1_dropShadow"/><feBlend in="SourceGraphic" in2="effect1_dropShadow" result="shape"/></filter></defs></svg>