<svg viewBox="0 0 70 70" width="70" height="70" fill="none" xmlns="http://www.w3.org/2000/svg"><circle cx="35" cy="35" r="35" fill="#fff" filter="url(#filter0_i)"/><g clip-path="url(#clip0)"><path opacity=".1" d="M11.2784 33.4583c.1437 1.6186 1.0607 3.0837 1.6202 4.6251a10.971 10.971 0 0 1 .2132 6.808c-.1332.4593-.2975.92-.2975 1.3903 0 1.6215 1.8459 2.6978 3.5232 3.4136a64.1911 64.1911 0 0 0 13.2621 4.01c1.4886.2815 3.3479.4028 4.2898-.6554.4523-.5082.5615-1.1717.8935-1.7417.8465-1.4542 2.9066-2.0189 4.7559-2.3426a58.062 58.062 0 0 1 6.7393-.7762c2.2747-.128 4.8575-.2397 6.3652-1.7341.9582-.9502 1.237-2.2615 1.2753-3.4999.1251-4.0627-1.8148-8.4591.6751-11.9777 1.0439-1.4757 2.7485-2.5535 3.7847-4.0335 1.5001-2.1445 1.3707-4.8682.355-7.1537-1.0156-2.2854-2.8146-4.2286-4.5877-6.1329-.5864-.6295-1.2121-1.2844-2.0927-1.5764-.9164-.3039-1.9556-.1644-2.9382-.0206-4.4699.653-9.1094 1.3645-12.8582 3.6073-1.8618 1.1137-3.4169 2.5582-5.0784 3.8868-3.5879 2.8703-7.7444 5.5216-12.4821 6.655-3.849.921-7.7636 3.405-7.4177 7.2486z" fill="#F9A826"/><path d="M43.7308 48.9844c.0771-1.0653.0537-1.8822-.0479-1.9657-.0431-.0359-.0829-.1654-.1145-.302.1087-.0815.1672-.1769.1408-.2877-.1274-.5321-2.1434-4.4501-2.4677-4.5215-.3244-.0715-.2573-5.8774-.2573-5.8774l.4733-4.429h-.0067c.0385-.24.1039-.4748.195-.7a4.1533 4.1533 0 0 1 .0565-.1304c.3919.0139.7666-.1602 1.0904-.618.3526-.4986.6803-.9421.9774-1.3309.7014-.5466 1.5647-1.3904 1.8152-2.3689.4432-1.7298-1.5809-3.4999-1.5809-3.4999l-.63-.4243a1.3156 1.3156 0 0 1-.0221-.0719c-.0067-.024-.0124-.048-.0177-.07a1.9988 1.9988 0 0 0 .4269-.0988.4375.4375 0 0 0 .4311.0369l.0087-.0048a.4058.4058 0 0 0 .0685-.0239 1.2185 1.2185 0 0 0 .1945-.1319c.2462-.1812.5404-.2814.8092-.4262.4575-.2459.857-.6511.9735-1.1588.0325-.1646.05-.3318.0522-.4996a.9725.9725 0 0 0-.0297-.3605c-.0316-.092-.0906-.1721-.1275-.2622-.08-.1957-.0479-.4162-.0522-.6276-.0057-.3984-.1437-.8012-.4225-1.0864-.2789-.2853-.6961-.4382-1.0842-.3553a2.0832 2.0832 0 0 0-.3047.0959c-.0446.0163-.0886.0336-.1327.0479-.1739.0638-.3474.1122-.527.0705-.2151-.0503-.4024-.2311-.6228-.2052a.429.429 0 0 0-.1323.0403.7176.7176 0 0 0-.2189.1151 2.525 2.525 0 0 0-.2822.2339c-.1121.1079-.2194.2373-.2352.3922a.4867.4867 0 0 0 .1226.3533 2.0278 2.0278 0 0 0-1.1585 2.0686c.032.2806.1223.5514.265.7951a4.9729 4.9729 0 0 1-.1317.5696.4317.4317 0 0 1 .0139-.0911 1.9609 1.9609 0 0 0-.0992-.0192h-.0153a2.0364 2.0364 0 0 0-.0911-.0134h-.0076c-.4604-.058-1.0224-.0067-1.3415.1759a2.7408 2.7408 0 0 0-1.1637 1.3266 3.2853 3.2853 0 0 0-.7564 1.1986 1.6392 1.6392 0 0 0-.7551-.1563c-.388-.7671-1.122-1.7231-2.084-.7014-1.0123 1.0754.2309 1.3904 1.0832 1.4829a.9466.9466 0 0 0 .1303.2762c.0617.0934.1294.1828.2027.2675a.1678.1678 0 0 1-.0844.0043c-.1959-.0547-.1815 1.9484.6947 2.5329a4.9187 4.9187 0 0 1-.5624 1.0322 5.7903 5.7903 0 0 0-.7536 1.5001c-.0906.2786-.1553.5437-.1371.6952a.2718.2718 0 0 0 .0106.0513.1326.1326 0 0 0 .0187.0384.0874.0874 0 0 0 .0263.0244.0834.0834 0 0 0 .0158.0072.1018.1018 0 0 0 .0173.0034h.0029a.1522.1522 0 0 0 .0191 0h.0039a.186.186 0 0 0 .021-.0029h.0048l.0216-.0058h.0072l.022-.0086.0096-.0038.0239-.0115.0106-.0053.0273-.0158.0101-.0058.034-.0215.0067-.0044.0436-.0311a4.2655 4.2655 0 0 1-.1471.2646c-.2769.4526-.7321.9771-1.4028 1.1248-1.2456.2737-4.4512 4.3739-4.4512 4.3739s-.9883-.0686-.5878 3.0842c.4005 3.1527.4762 4.8639.4762 4.8639l.0177.011c-.3756.4276-1.1417 1.1957-1.8076 1.2048-.9237.0125-1.4679.6204-1.0291 1.0006.4389.3802 5.2221-.2186 5.2221-.2186s.0316-1.2509-.196-1.8257a1.1152 1.1152 0 0 0 .1074-.1089l-.2362-6.3232s2.9861-2.5617 4.4421-2.81c-.0096-.0053-.0192-.0101-.0283-.0149a1.022 1.022 0 0 1 .2784-.0052c1.2724.173 2.2383 5.978 2.2383 5.978s.2342.9138.9337 1.6181c.6995.7043 2.2517 3.4251 2.2517 3.4251l.0647-.0072.0086.0149c0 .4123-.0628 1.0313-.3833 1.514-.527.795.952 1.1027.952 1.1027s1.0755.2987 1.1522-.7666z" fill="url(#paint0_linear)"/><path d="M30.2066 44.9437s-1.1129 1.4638-2.0337 1.4767c-.9208.0129-1.4636.6166-1.0257.9944.4379.3778 5.2096-.2158 5.2096-.2158s.045-1.7988-.3679-2.0616c-.413-.2627-1.7823-.1937-1.7823-.1937zM42.1575 46.7009s.1705 1.1593-.3555 1.9498c-.5261.7906.9495 1.0956.9495 1.0956s1.0718.2986 1.1498-.7604c.0781-1.0591.0527-1.8698-.0479-1.9561-.1006-.0863-.1844-.6823-.1844-.6823l-1.5115.3534z" fill="#444176"/><path d="M42.1105 47.1395s-1.5503-2.7059-2.2478-3.404c-.6976-.698-.9319-1.6089-.9319-1.6089s-.9649-5.772-2.234-5.945c-1.2691-.1731-4.7506 2.8047-4.7506 2.8047l.2482 6.2844c-.7555.8764-2.2378-.0556-2.2378-.0556s-.0762-1.7049-.4758-4.8399c-.3995-3.135.585-3.0684.585-3.0684s3.1941-4.0752 4.4368-4.3475c.6707-.1463 1.122-.6679 1.3985-1.1176.14-.2266.255-.4677.343-.7191l5.3097.5681-.4704 4.4036s-.0652 5.7724.2587 5.8438c.3238.0715 2.3351 3.9679 2.4625 4.4967.1274.5288-1.6941.7047-1.6941.7047z" fill="#565387"/><g opacity=".1" fill="#000"><path opacity=".1" d="M36.4482 36.1979a.5242.5242 0 0 0-.1873-.0667c-1.2691-.1725-4.7507 2.8047-4.7507 2.8047l.2487 6.2859c-.2266.2628-.5189.363-.8145.3745.4489.1045.9688.0958 1.3257-.3198l-.2506-6.2873s2.9771-2.5444 4.4287-2.7913zM43.877 46.4434c-.1275-.5274-2.1387-4.4252-2.4626-4.4966-.3238-.0715-.2587-5.8439-.2587-5.8439l.4705-4.4036-.5093-.0546-.4704 4.4036s-.0652 5.7724.2587 5.8438c.3238.0714 2.335 3.9678 2.4625 4.4966.0862.3582-.7187.5533-1.2509.642l.0666.1151s1.821-.1736 1.6936-.7024z"/></g><path d="M44.7019 24.2614s-5.0213-.1693-4.1034-.8438c.5663-.4167.8111-1.2312.9161-1.7946a4.8051 4.8051 0 0 0 .0757-.6026s2.6766-.2656 2.0184.7311c-.1725.2618-.1797.5586-.0959.8539.2362.8323 1.1891 1.656 1.1891 1.656z" fill="#FFBEC7"/><path d="M39.2399 23.0513s-1.215.6798-1.4546 2.237c-.2395 1.5572-.4364-.0479-.4364-.0479s-.6961.6616-.9103.6021c-.2141-.0594-.1763 2.3368.9683 2.6437 1.1445.3068 2.0485-4.7134 2.0485-4.7134l-.2155-.7215z" fill="#8066C9"/><path opacity=".05" d="M39.2399 23.0513s-1.215.6798-1.4546 2.237c-.2395 1.5572-.4364-.0479-.4364-.0479s-.6961.6616-.9103.6021c-.2141-.0594-.1763 2.3368.9683 2.6437 1.1445.3068 2.0485-4.7134 2.0485-4.7134l-.2155-.7215z" fill="#000"/><path d="M37.4979 25.257s-.9333-2.9725-2.3849-1.433 1.7511 1.5126 1.7511 1.5126l.6338-.0796z" fill="#FFBEC7"/><path opacity=".1" d="M43.6091 21.752c-.1724.2618-.1796.5585-.0958.8539a2.0117 2.0117 0 0 1-1.9988-.9829 4.7706 4.7706 0 0 0 .0757-.6026s2.6772-.2656 2.0189.7316z" fill="#000"/><path d="M45.2494 20.8229c.1589-1.1004-.6038-2.1213-1.7034-2.2803-1.0996-.1589-2.1198.6043-2.2786 1.7047-.1589 1.1004.6038 2.1213 1.7034 2.2803 1.0996.1589 2.1198-.6043 2.2786-1.7047z" fill="#FFBEC7"/><path opacity=".1" d="M41.5538 31.6916l-.069.6439c-.5859-.1568-4.6054-1.1986-5.4563-.5725a.9726.9726 0 0 1-.1274.081c.14-.2265.255-.4677.343-.7191l5.3097.5667z" fill="#000"/><path d="M45.7416 26.5814c-.2679 1.0437-1.237 1.9306-1.9576 2.4671a8.1197 8.1197 0 0 1-.8293.5475s-.7459.4349-1.1407 1.4067a3.299 3.299 0 0 0-.2395 1.1698s-4.6098-1.2662-5.5278-.5916c-.4824.3548-.4062-.1467-.2251-.7019a5.7429 5.7429 0 0 1 .7507-1.491c.2534-.3649.5715-.8995.6674-1.3976.1269-.6616.9888-3.1782 1.3893-4.3288a2.7398 2.7398 0 0 1 1.2274-1.4915c.3718-.2105 1.0674-.2455 1.5523-.1386 0 0-.1562.5202.5615.6132.0776.0101.1547.024.2309.0417.2874.0676.996.2023 1.3103-.0249l.652.4377s2.0194 1.7624 1.5782 3.4822z" fill="#8066C9"/><path opacity=".1" d="M43.6202 19.6333c.0455-.0854.0124-.1956-.0527-.2676a.7138.7138 0 0 0-.2439-.1538l-.4374-.1985a1.5235 1.5235 0 0 1-.4068-.2398c-.1169-.1064-.2012-.2603-.1854-.4171.0158-.1567.1227-.2828.2348-.3897a2.503 2.503 0 0 1 .2812-.2326.6117.6117 0 0 1 .2736-.1256c.2189-.0259.4058.1539.6204.2043.3234.0757.6343-.1482.9582-.2172.3871-.0825.8053.07 1.0813.3533.2759.2834.4158.6842.4216 1.0802.0033.2105-.0273.4315.0522.6233.0364.0896.0958.1692.127.2608a.9641.9641 0 0 1 .0297.3586 2.7452 2.7452 0 0 1-.0503.4986c-.116.5048-.5146.9071-.9707 1.1506-.2683.1439-.5615.2436-.8068.4234a1.2078 1.2078 0 0 1-.1916.1309.439.439 0 0 1-.4283-.0369.3127.3127 0 0 1-.1437-.2589c.0048-.1026.0737-.1894.1269-.2772.139-.2286.1715-.5527-.0134-.7469-.081-.0849-.1916-.1347-.2716-.2215-.1284-.1438-.1438-.351-.1481-.5427-.0124-.3582-.0215-.7312.1279-1.0548" fill="#000"/><path d="M43.6446 19.3371a.714.714 0 0 0-.2439-.1539l-.4374-.1985a1.5253 1.5253 0 0 1-.4067-.2397c-.1169-.1065-.2013-.2604-.1854-.4171.0158-.1568.1226-.2829.2347-.3898a2.512 2.512 0 0 1 .2812-.2326.6128.6128 0 0 1 .2736-.1256c.2189-.0259.4058.1539.6204.2043.3234.0757.6343-.1482.9582-.2172.3871-.0825.8053.07 1.0813.3533.2759.2834.4158.6842.4216 1.0802.0033.2105-.0273.4315.0522.6233.0364.0896.0958.1692.127.2608a.9643.9643 0 0 1 .0297.3586 2.7342 2.7342 0 0 1-.0518.4967c-.1159.5048-.5145.9071-.9706 1.1506-.2683.1439-.5615.2436-.8068.4234a1.2145 1.2145 0 0 1-.1916.1309.438.438 0 0 1-.4283-.037.3124.3124 0 0 1-.1438-.2588c.0048-.1026.0738-.1894.127-.2772.1389-.2287.1715-.5528-.0134-.7469-.081-.0849-.1916-.1347-.2717-.2215-.1283-.1439-.1437-.351-.148-.5427-.0124-.3582-.0733-.6957.0762-1.0212" fill="#88455E"/><path opacity=".1" d="M45.0196 27.5239c-.2947.3409-.7187.8491-1.2342 1.5246a8.1087 8.1087 0 0 1-.8293.5475s-.7459.4349-1.1407 1.4067c-1.5699.0825-3.4676-3.0406-3.4676-3.0406l1.2428-1.3026 2.1185 1.515.6899-1.479a2.4905 2.4905 0 0 1 2.0155-1.4278l.033-.0029c.4413-.0403.6962.2234.8428.5571a1.6185 1.6185 0 0 1-.2707 1.702z" fill="#000"/><g opacity=".05" fill="#000"><path opacity=".05" d="M41.0815 21.9965s-.1562.5202.5614.6132c.0777.01.1548.0239.231.0417a3.862 3.862 0 0 0 .6506.0983 4.3546 4.3546 0 0 1-.3234-.0633 2.1505 2.1505 0 0 0-.2309-.0417c-.7187-.093-.5615-.6132-.5615-.6132a2.6227 2.6227 0 0 0-.4288-.0547c.035.0062.069.0125.1016.0197zM44.1639 23.0996l-.652-.4377a.5654.5654 0 0 1-.1601.0772l.4849.3255s2.0189 1.7619 1.5776 3.4817c-.2678 1.0437-1.237 1.9306-1.9575 2.4671a8.1197 8.1197 0 0 1-.8293.5475s-.746.4349-1.1407 1.4067a3.29 3.29 0 0 0-.2357 1.1176c.2045.0522.3248.0853.3248.0853a3.299 3.299 0 0 1 .2395-1.1698c.3948-.9718 1.1407-1.4067 1.1407-1.4067a8.1087 8.1087 0 0 0 .8293-.5475c.7187-.536 1.6898-1.4234 1.9576-2.4672.4398-1.7178-1.5791-3.4797-1.5791-3.4797zM35.7209 31.5458l-.0345.024c.0182.1515.1198.1889.3618.011.2874-.21.9289-.232 1.6768-.1625-.8844-.1069-1.6778-.1122-2.0041.1275z"/></g><path opacity=".05" d="M37.0106 28.65s.3704.9589.8844 1.3065c.5141.3476 1.1872.9368 1.1872.9368" fill="#000"/><path d="M44.0135 45.926l-.7723-3.3378c-.3296-.548-.6683-.8424-.9524-.9992-.3661-.2253-.6573-.2238-.7493-.2157l-.1035-.1093c-.3938-.5566-.6027-2.0136-.6027-2.0136-.0206-.6832-.4532-1.1459-1.0099-1.4585-.9381-.5624-2.2834-.6712-2.5694-.688l-.228-.454-.0613-.0149-.0144-.0287a2.4667 2.4667 0 0 0-.1543-.0345l.4034-8.2842.0038-.0801 1.593.0777a.4822.4822 0 0 0 .4871-.4588.483.483 0 0 0-.4392-.5049l-1.8651-.0911v-.0402l.1744-3.5795v-.0403a.7308.7308 0 0 0 .2798-.5437.7007.7007 0 0 0-.9383-.7063.7.7 0 0 0-.3981.3686.6998.6998 0 0 0-.0625.2697.7325.7325 0 0 0 .2256.5681v.0403l-.1753 3.5799v.0403l-1.867-.0882a.4818.4818 0 0 0-.3359.1312.4828.4828 0 0 0 .288.8324l1.5153.0739-.0038.08-.4087 8.3902a11.0637 11.0637 0 0 0-1.7314.36l-.6592 2.3421-1.9255.349-1.0032 2.2054-.9352 1.6411a5.5125 5.5125 0 0 0-.2874.1151c-3.4854 1.4718-3.6267 5.127-3.6267 5.127.9711 1.657 5.875.9306 5.875.9306 2.7989 2.5108 8.362 1.0519 8.362 1.0519 1.3415.3308 2.4031.4742 3.2406.5063 2.3351.0892 2.9224-.689 2.9224-.689.8403-2.1325-1.4904-4.6203-1.4904-4.6203z" fill="url(#paint1_linear)"/><path d="M36.2872 23.5066l-.4479 4.1942.8927.0955.4479-4.1942-.8927-.0955z" fill="#F9A826"/><path d="M35.4648 27.8965l-1.0036 9.3981 1.5134.1618 1.0036-9.3981-1.5134-.1618z" fill="#F0F5FA"/><path opacity=".05" d="M36.9805 28.0582l-.7374-.0788-1.0036 9.398.7374.0789 1.0036-9.3981z" fill="#000"/><path opacity=".1" d="M35.4652 27.8969l-.0415.3885 1.5134.1619.0415-.3886-1.5134-.1618zM35.8849 27.2739l-.0456.4271.8927.0955.0456-.4271-.8927-.0955z" fill="#000"/><path d="M38.6375 27.6065l-4.6175-.4938a.4687.4687 0 0 0-.0995.932l4.6175.4938a.4686.4686 0 1 0 .0995-.932z" fill="#F9A826"/><path d="M25.3319 48.8904s-.0388-3.7492 3.6684-5.2738l.8585-1.6401.8978-2.1872 1.9126-.4315.5461-2.3042s2.108-.7422 3.4734-.4689l.2731.4689s3.5127-.0388 3.6684 1.8746c0 0 .3511 1.7576.8585 2.0702 0 0 .8585-.1951 1.717 1.0548l.9366 3.2026s2.4587 2.3042 1.7171 4.4132c0 0-1.0147 1.445-6.1663.4689 0 0-5.5028 1.678-8.432-.6233.0034.0005-4.8752.9378-5.9292-.6242z" fill="#A8A8A8"/><path opacity=".1" d="M27.7906 48.3045s.7804-1.0936.7416-1.8746c-.0388-.781.184-2.6872.184-2.6872M30.6397 45.3751s.7805-1.445.7024-2.226c0 0 .8197-1.4863 1.444-1.3669M34.9328 41.2745s2.1464-.781 2.2637-1.4062M35.7133 43.0711s2.2637-1.0136 2.2637-1.2888h1.1316s1.639 2.1479 1.444 3.0857M38.3674 44.6331s-2.1856-.1563-2.966.4689c-.7804.6252-2.1856.9373-2.1856.9373s-.8197 1.7576-1.1316 2.0702c-.3119.3126-.8197 1.4062-.8197 1.4062M38.3674 46.7032s.2324.8199.5462 1.2888.7804 2.1478.7804 2.1478M42.0358 49.0856s.4954 1.3793.9309 1.3903" stroke="#000" stroke-miterlimit="10"/><path opacity=".1" d="M38.7914 43.165s1.2868.3481 1.8249 1.1914c.538.8434 2.1832 1.6085 2.1832 1.6085M39.3429 39.0093s0 1.7964.5073 1.7964c.5074 0 1.6394.1971 1.6394.1971M36.8578 36.8772s-.1298 3.1034-.7929 3.9064" stroke="#000" stroke-miterlimit="10"/><g opacity=".05" fill="#000"><path opacity=".05" d="M44.0652 45.2189l-.9366-3.2026c-.8585-1.2499-1.7171-1.0548-1.7171-1.0548-.5073-.3121-.8585-2.0682-.8585-2.0682-.1562-1.9139-3.6684-1.8746-3.6684-1.8746l-.273-.4689c-.3459-.0691-.7393-.0734-1.1336-.0408.0959.0096.1864.023.275.0408l.2731.4689s3.5127-.0389 3.6684 1.8746c0 0 .3512 1.7576.8585 2.0702 0 0 .8585-.1952 1.7171 1.0547l.9366 3.2027s2.4586 2.3022 1.717 4.4117c0 0-.5006.7129-2.5837.7988 2.8079.103 3.4422-.7988 3.4422-.7988.7417-2.1095-1.717-4.4137-1.717-4.4137zM30.3274 49.4763a18.2192 18.2192 0 0 1-2.5004.2709c.9773.0374 1.9944-.0681 2.6498-.1587a5.9387 5.9387 0 0 1-.1494-.1122zM38.7574 50.1011a16.028 16.028 0 0 1-3.6856.583c1.799.0652 3.5031-.3097 4.2059-.49a23.2188 23.2188 0 0 1-.5203-.093z"/></g><path opacity=".05" d="M37.165 23.5806l-.4659-.0498-.4064 3.8056.4659.0499.4064-3.8057z" fill="#000"/><path opacity=".1" d="M37.1812 23.6036l-.0326.3049a.7023.7023 0 0 1-.8925-.0959l.0326-.3049.8925.0959z" fill="#000"/><path d="M37.4609 23.3576a.7027.7027 0 0 0-.6237-.7736.7026.7026 0 0 0-.773.6242.7028.7028 0 0 0 .6237.7736.7025.7025 0 0 0 .773-.6242z" fill="#F9A826"/><path opacity=".05" d="M37.4624 23.3595a.7022.7022 0 0 1-.7732.6233l.1494-1.3981a.7032.7032 0 0 1 .6238.7748z" fill="#000"/><path d="M39.8694 26.7994l-.4897.7944-.4685-.407-.642-.5581s-1.1872.0959-1.947-1.0547c-.3258-.4924-.0723-.7743.3229-.9349a1.6398 1.6398 0 0 1 1.8881.5034l1.3362 1.6569z" fill="#FFBEC7"/><path opacity=".1" d="M39.8694 26.7995l-.4892.7944-.4685-.4075.6884-.7211.2693.3342z" fill="#000"/><path d="M42.5599 26.5655l-.6899 1.4786-2.1204-1.515-1.2408 1.3026s2.8467 4.685 4.4507 2.4269c.973-1.3717 1.7568-2.3267 2.222-2.8651a1.6163 1.6163 0 0 0 .2716-1.702c-.1466-.3356-.4014-.5969-.8427-.5571l-.033.0033a2.4909 2.4909 0 0 0-2.0175 1.4278z" fill="#8066C9"/><path d="M52.4373 43.5605s-.6353-2.1574.1193-3.7463a3.4105 3.4105 0 0 0 .2755-2.1383 5.7461 5.7461 0 0 0-.3023-1.0034" stroke="#535461" stroke-width="2" stroke-miterlimit="10"/><path d="M52.9983 35.6685c0 .2647-.4791 1.0313-.4791 1.0313s-.4791-.7671-.4791-1.0313a.479.479 0 1 1 .9582 0zM53.7897 37.1332c-.1437.222-.962.6055-.962.6055s.0149-.9042.1586-1.1262a.4788.4788 0 0 1 .6503-.1237.4793.4793 0 0 1 .1531.6444zM53.7548 39.6368c-.2362.1189-1.1359.0369-1.1359.0369s.469-.7728.7047-.8917a.4785.4785 0 0 1 .5426.0517.4801.4801 0 0 1-.1114.8036v-.0005zM53.3025 41.5254c-.2127.1572-1.1134.2282-1.1134.2282s.3315-.841.5443-.9982a.4787.4787 0 0 1 .7695.2609.481.481 0 0 1-.2004.5091zM51.8226 37.7905c.1917.1841 1.0727.3754 1.0727.3754s-.2161-.8779-.4058-1.062a.4796.4796 0 0 0-.3458-.1542.4788.4788 0 0 0-.4538.3083.4802.4802 0 0 0 .1327.5325zM51.322 40.005c.2362.1189 1.1359.0369 1.1359.0369s-.469-.7729-.7048-.8918a.4773.4773 0 0 0-.374-.04.479.479 0 0 0-.3116.6182.4798.4798 0 0 0 .2545.2772v-.0005zM51.1299 42.2247c.2127.1573 1.1134.2282 1.1134.2282s-.3316-.8409-.5443-.9981a.479.479 0 0 0-.651.1137.4797.4797 0 0 0 .0819.6562zM11.975 36.1542s2.0045 2.0059.8729 4.9823c-1.1316 2.9763 1.9412 7.926 1.9412 7.926s-.033-.0048-.0958-.0153c-4.1168-.7274-6.162-5.4388-3.8729-8.9391.8513-1.3017 1.5498-2.8282 1.1546-3.9539z" fill="#F9A826"/><path opacity=".1" d="M11.9749 36.1873s2.0046 2.0059.8729 4.9823c-1.1316 2.9763 1.9413 7.926 1.9413 7.926s-.033-.0048-.0958-.0154c-4.1163-.7273-6.1616-5.4406-3.8725-8.9405.8509-1.2997 1.5494-2.8286 1.1541-3.9524z" fill="#000"/><path d="M11.975 36.1542s1.1316 2.4585 0 4.4645c-1.1317 2.0059-.1917 7.635 2.8127 8.4438" stroke="#535461" stroke-miterlimit="10"/><path d="M8.4053 44.2667s2.2872-.3643 2.4956 1.6867c.2084 2.051 4.398 2.3368 4.398 2.3368l-.0785.0513c-3.4591 2.2725-6.7662 1.4474-6.2675-1.5702.183-1.1214.1701-2.2481-.5476-2.5046z" fill="#F9A826"/><path d="M8.4053 44.2667s1.7755.3898 1.6289 2.0055c-.1466 1.6157 2.6369 3.5521 5.2647 2.018" stroke="#535461" stroke-miterlimit="10"/><path d="M50.4869 43.1027s1.0736-.0331 1.397-.2637c.3234-.2306 1.6514-.5058 1.7314-.1362.08.3697 1.6131 1.8387.4015 1.8487-1.2116.0101-2.8161-.1889-3.139-.3835-.3229-.1947-.3909-1.0653-.3909-1.0653z" fill="#A8A8A8"/><path opacity=".2" d="M54.0384 44.423c-1.2121.0096-2.8161-.1889-3.139-.3835-.2458-.1501-.344-.6875-.3766-.9359h-.0359s.068.8664.3909 1.0634c.3229.1971 1.9269.3956 3.139.3836.3497-.0029.4705-.1276.4642-.3117-.0488.1122-.1825.1817-.4426.1841z" fill="#000"/><path d="M17.0724 48.4598s-1.8018-.3615-2.2833-.8409c-.4815-.4794-2.6422-1.3218-2.8822-.7191-.24.6026-3.2415 2.6416-1.1996 3.0022 2.0419.3605 4.8038.4794 5.4041.2397.6003-.2397.961-1.6819.961-1.6819z" fill="#A8A8A8"/><path opacity=".2" d="M10.7073 49.6805c2.0419.3606 4.8038.4795 5.4041.2397.4575-.1831.7752-1.0624.9007-1.4718l.0599.0124s-.3603 1.4422-.9606 1.6824c-.6003.2402-3.3627.1203-5.4041-.2397-.5893-.1041-.758-.3486-.6942-.6578.0498.2004.2553.3557.6942.4348z" fill="#000"/></g><defs><filter id="filter0_i" x="0" y="0" width="70" height="74" filterUnits="userSpaceOnUse" color-interpolation-filters="sRGB"><feFlood flood-opacity="0" result="BackgroundImageFix"/><feBlend in="SourceGraphic" in2="BackgroundImageFix" result="shape"/><feColorMatrix in="SourceAlpha" values="0 0 0 0 0 0 0 0 0 0 0 0 0 0 0 0 0 0 127 0" result="hardAlpha"/><feOffset dy="7"/><feGaussianBlur stdDeviation="2"/><feComposite in2="hardAlpha" operator="arithmetic" k2="-1" k3="1"/><feColorMatrix values="0 0 0 0 0.1485 0 0 0 0 0 0 0 0 0 0.3375 0 0 0 0.25 0"/><feBlend in2="shape" result="effect1_innerShadow"/></filter><linearGradient id="paint0_linear" x1="35.1565" y1="48.9664" x2="38.608" y2="16.6929" gradientUnits="userSpaceOnUse"><stop stop-color="gray" stop-opacity=".25"/><stop offset=".54" stop-color="gray" stop-opacity=".12"/><stop offset="1" stop-color="gray" stop-opacity=".1"/></linearGradient><linearGradient id="paint1_linear" x1="11529.4" y1="24707.4" x2="12430.1" y2="7245.73" gradientUnits="userSpaceOnUse"><stop stop-color="gray" stop-opacity=".25"/><stop offset=".54" stop-color="gray" stop-opacity=".12"/><stop offset="1" stop-color="gray" stop-opacity=".1"/></linearGradient><clipPath id="clip0"><path fill="#fff" d="M8.4 11.9h51.1v42H8.4z"/></clipPath></defs></svg>