<svg width="33" height="32" fill="none" xmlns="http://www.w3.org/2000/svg"><mask id="a" fill="#fff"><path fill-rule="evenodd" clip-rule="evenodd" d="M15.9333 5.6333c-5.6885 0-10.3 4.6115-10.3 10.3s4.6115 10.3 10.3 10.3c5.6886 0 10.3-4.6115 10.3-10.3s-4.6114-10.3-10.3-10.3zm-15.3 10.3c0-8.45 6.85-15.3 15.3-15.3 8.45 0 15.3 6.85 15.3 15.3 0 3.8695-1.4364 7.4034-3.8051 10.0978 1.0319 1.1845 2.5412 2.395 4.684 3.0663 3.3878 1.0612-3.688.6032-8.3189-.0347-2.2972 1.3782-4.9861 2.1706-7.86 2.1706-8.45 0-15.3-6.85-15.3-15.3zm15.955-4.4255V9.6006h-2.1446v1.9072h2.1446zm.2461 7.6904v-6.1787h-3.252c-.4336 0-.7441.085-.9316.2549-.1817.1641-.2725.3779-.2725.6416 0 .2695.0938.4893.2813.6592.1875.1641.4951.2461.9228.2461h1.4502v4.3769h-2.1621c-.4336 0-.7441.085-.9316.2549-.1817.1641-.2725.378-.2725.6416 0 .2696.0908.4893.2725.6592.1875.1641.498.2461.9316.2461h6.126c.4336 0 .7412-.082.9228-.2461.1875-.1699.2813-.3867.2813-.6504 0-.2695-.0938-.4863-.2813-.6504-.1816-.1699-.4892-.2549-.9228-.2549h-2.1621z"/></mask><path d="M27.4282 26.0311L12.4076 12.8257.851 25.9708 12.348 39.1682l15.0803-13.1371zm4.684 3.0663l-5.9787 19.0854h.0001l5.9786-19.0854zm-8.3189-.0347l2.7288-19.813-6.9779-.961-6.0401 3.6237 10.2892 17.1503zm-7.205-19.4621h20v-20h-20v20zm0 1.9072v20h20v-20h-20zm-2.1446-1.9072v-20h-20v20h20zm0 1.9072h-20v20h20v-20zm2.3907 1.5117h20v-20h-20v20zm0 6.1787h-20v20h20v-20zm-4.1836-5.9238l13.4057 14.8421.0123-.0112.0124-.0111-13.4304-14.8198zm.0088 1.3008L-.7708 29.3949l.1291.1171.1312.1147 13.1701-15.0515zm2.373.2461h20v-20h-20v20zm0 4.3769v20h20v-20h-20zm-3.0937.2549l13.4057 14.8421.0123-.0112.0123-.0111-13.4303-14.8198zm0 1.3008L-1.7243 35.3593l.2428.2272.2503.2189 13.1701-15.0515zm7.9804 0L33.325 35.596l.0124-.0112.0123-.0112-13.4304-14.8197zm0-1.3008L6.2562 34.0586l.2428.2271.2502.219 13.1701-15.0516zm5.714-3.5198c0 5.3572-4.3428 9.7-9.7 9.7v-40c-16.7342 0-30.3 13.5658-30.3 30.3h40zm-9.7-9.7c5.3572 0 9.7 4.3428 9.7 9.7h-40c0 16.7342 13.5658 30.3 30.3 30.3v-40zm-9.7 9.7c0-5.3572 4.3429-9.7 9.7-9.7v40c16.7343 0 30.3-13.5658 30.3-30.3h-40zm9.7 9.7c-5.3571 0-9.7-4.3428-9.7-9.7h40c0-16.7342-13.5657-30.3-30.3-30.3v40zm0-45c-19.4956 0-35.3 15.8044-35.3 35.3h40c0 2.5957-2.1042 4.7-4.7 4.7v-40zm35.3 35.3c0-19.4956-15.8043-35.3-35.3-35.3v40c-2.5957 0-4.7-2.1043-4.7-4.7h40zm-8.7845 23.3031c5.4547-6.2045 8.7845-14.3894 8.7845-23.3031h-40c0-1.1747.457-2.2917 1.1743-3.1076l30.0412 26.4107zm-4.3579-29.2245c2.0257.6346 3.508 1.8379 4.4176 2.882L12.3479 39.1682c2.9733 3.4131 7.4742 7.0375 13.7856 9.0146l11.9574-38.1709zM21.0644 48.8757c2.8018.3859 6.4511.7415 9.2556.8313.7228.0231 1.6832.0391 2.7021-.0034.0786-.0032 3.3444-.0292 6.8354-1.3261 1.0764-.3998 3.3048-1.319 5.6509-3.2073 2.4144-1.9432 6.2567-6.027 7.2618-12.608 1.0192-6.6739-1.4983-11.8202-3.3979-14.5363-1.8033-2.5783-3.7918-4.125-4.7537-4.8189-3.1116-2.2448-6.3926-3.1528-6.5277-3.1951L26.1336 48.1828c-.1109-.0347-.5302-.1674-1.1162-.4085-.3346-.1377-1.952-.7937-3.8012-2.1278-.9011-.65-2.846-2.1555-4.6222-4.6951-1.8726-2.6773-4.3795-7.7876-3.3654-14.4278.9999-6.5473 4.8213-10.5999 7.2-12.5144 2.3104-1.8594 4.4881-2.7522 5.4996-3.128 2.0736-.7703 3.7585-.9812 4.1451-1.0307.6415-.0823 1.11-.105 1.2844-.1122.3577-.015.4812-.0032.2418-.0109-1.0441-.0334-3.2483-.2257-5.0774-.4776l-5.4577 39.6259zm-5.1311 2.3576c6.5984 0 12.8306-1.8295 18.1491-5.0202L13.5041 11.9124c.7241-.4344 1.5786-.6791 2.4292-.6791v40zm-35.3-35.3c0 19.4957 15.8044 35.3 35.3 35.3v-40c2.5958 0 4.7 2.1043 4.7 4.7h-40zm15.955-6.3327v1.9072h40V9.6006h-40zm17.8554 20h2.1446v-40h-2.1446v40zm20-18.0928V9.6006h-40v1.9072h40zm-17.8554-20h-2.1446v40h2.1446v-40zm-19.754 21.5117v6.1787h40.0001v-6.1787h-40zm16.7481 20h3.252v-40h-3.252v40zm12.4988-4.9253c-2.7817 2.5208-5.706 3.7129-7.7792 4.2801-2.0414.5585-3.7267.6452-4.7196.6452v-40c-2.1359 0-8.639.2487-14.362 5.4352l26.8608 29.6395zm6.2971-14.1782c0 2.1937-.386 4.782-1.523 7.4593a19.199 19.199 0 0 1-4.7988 6.7412L-.755-1.5676C-5.486 2.7056-7.6217 8.486-7.6217 13.916h40zM26.0899-.2445a19.1667 19.1667 0 0 1 4.7543 6.6787c1.1394 2.6705 1.5341 5.2643 1.5341 7.4818h-40c0 5.5009 2.1824 11.2481 6.8509 15.4789L26.0899-.2445zM13.5824-5.1787c.9716 0 2.612.0832 4.6017.6138 2.0127.5367 4.88 1.6687 7.6455 4.0886L-.5105 29.6267c5.67 4.9612 12.0008 5.1946 14.0929 5.1946v-40zm1.4502 0h-1.4502v40h1.4502v-40zm20 24.3769v-4.3769h-40v4.3769h40zm-22.1621 20h2.1621v-40h-2.1621v40zm12.4987-4.9253c-2.7816 2.5209-5.7059 3.7129-7.7791 4.2801-2.0414.5585-3.7267.6452-4.7196.6452v-40c-2.1359 0-8.639.2487-14.362 5.4352l26.8607 29.6395zm6.2972-14.1782c0 2.1937-.3861 4.782-1.523 7.4593a19.199 19.199 0 0 1-4.7988 6.7412L-1.4669 4.6111c-4.731 4.2732-6.8667 10.0536-6.8667 15.4836h40zM25.602 6.1485a19.1679 19.1679 0 0 1 4.6158 6.6734c1.0811 2.6153 1.4486 5.1348 1.4486 7.2728h-40c0 5.2889 2.023 10.9742 6.6093 15.2646L25.602 6.1485zM12.8705 1c.9487 0 2.5729.0795 4.5497.6017 1.9931.5265 4.8897 1.6515 7.6887 4.1007l-26.3401 30.103C4.4755 40.7988 10.857 41 12.8705 41V1zm6.126 0h-6.126v40h6.126V1zM6.5136 5.9119c2.8656-2.5884 5.8627-3.7587 7.8855-4.2981C16.4081 1.078 18.0548 1 18.9965 1v40c1.9216 0 8.5265-.1635 14.3285-5.404L6.5136 5.9119zM.2006 20.1034a19.104 19.104 0 0 1 1.5725-7.5779A19.1624 19.1624 0 0 1 6.489 5.9342l26.8608 29.6394c4.566-4.1379 6.8509-9.8294 6.8509-15.4701h-40zm6.5486 14.4012a19.2036 19.2036 0 0 1-4.976-6.8277C.5936 24.9495.2005 22.3156.2005 20.1035h40c0-5.5043-2.1981-11.403-7.1112-15.702L6.7492 34.5048zm12.2473 4.6935c-.9857 0-2.6942-.0851-4.7686-.658-2.1052-.5815-5.1278-1.8212-7.9717-4.4816L33.5825 4.8477c-5.813-5.438-12.54-5.6495-14.586-5.6495v40zm-2.1621 0h2.1621v-40h-2.1621v40z" fill="#3F2E83" mask="url(#a)"/></svg>