<svg width="38" height="36" fill="none" xmlns="http://www.w3.org/2000/svg"><mask id="a" fill="#fff"><path fill-rule="evenodd" clip-rule="evenodd" d="M18 5.5C11.0964 5.5 5.5 11.0964 5.5 18S11.0964 30.5 18 30.5 30.5 24.9036 30.5 18 24.9036 5.5 18 5.5zM.5 18C.5 8.335 8.335.5 18 .5S35.5 8.335 35.5 18c0 4.4024-1.6256 8.4251-4.3093 11.5007 1.2105 1.4894 3.0567 3.0762 5.7689 3.9258 4.1421 1.2976-5.0631.6571-10.4365-.1387C24.001 34.6969 21.0943 35.5 18 35.5 8.335 35.5.5 27.665.5 18zm18.3555-6.6562v-2.543h-2.8594v2.543h2.8594zm.3281 10.2539v-8.2383h-4.3359c-.5782 0-.9922.1133-1.2422.3398-.2422.2188-.3633.5039-.3633.8555 0 .3594.125.6523.375.8789.25.2187.6601.3281 1.2305.3281h1.9335v5.836h-2.8828c-.5781 0-.9922.1132-1.2422.3398-.2421.2187-.3632.5039-.3632.8555 0 .3593.1211.6523.3632.8789.25.2187.6641.3281 1.2422.3281h8.168c.5781 0 .9883-.1094 1.2305-.3281.25-.2266.375-.5157.375-.8672 0-.3594-.125-.6485-.375-.8672-.2422-.2266-.6524-.3398-1.2305-.3398h-2.8828z"/></mask><path d="M31.1907 29.5007L16.1213 16.351 5.0459 29.0433l10.6246 13.0719 15.5202-12.6145zm5.7689 3.9258L30.981 52.512l5.9786-19.0855zm-10.4365-.1387l2.93-19.7842-6.7383-.9979-5.9465 3.3224 9.7548 17.4597zm-7.6676-24.487h20v-20h-20v20zm0 2.543v20h20v-20h-20zm-2.8594-2.543v-20h-20v20h20zm0 2.543h-20v20h20v-20zm3.1875 2.0156h20v-20h-20v20zm0 8.2383h-20v20h20v-20zm-5.5781-7.8985l13.4057 14.8421.0123-.0112.0124-.0111-13.4304-14.8198zm.0117 1.7344L.1868 30.2533l.1291.1171.1312.1147 13.1701-15.0515zm3.164.3281h20v-20h-20v20zm0 5.836v20h20v-20h-20zm-4.125.3398L26.062 36.7796l.0123-.0112.0123-.0112-13.4304-14.8197zm0 1.7344l-13.663 14.6054.2427.2272.2503.2189 13.17-15.0515zm10.6407 0l13.4057 14.842.0123-.0111.0124-.0112-13.4304-14.8197zm0-1.7344L9.6337 36.5429l.2429.2272.2502.2189 13.1701-15.0515zM25.5 18c0 4.1421-3.3579 7.5-7.5 7.5v-40C.0507-14.5-14.5.0507-14.5 18h40zM18 10.5c4.1421 0 7.5 3.3579 7.5 7.5h-40C-14.5 35.9493.0507 50.5 18 50.5v-40zM10.5 18c0-4.1421 3.3579-7.5 7.5-7.5v40c17.9493 0 32.5-14.5507 32.5-32.5h-40zm7.5 7.5c-4.1421 0-7.5-3.3579-7.5-7.5h40C50.5.0507 35.9493-14.5 18-14.5v40zm0-45C-2.7107-19.5-19.5-2.7107-19.5 18h40c0 1.3807-1.1193 2.5-2.5 2.5v-40zM55.5 18c0-20.7107-16.7893-37.5-37.5-37.5v40c-1.3807 0-2.5-1.1193-2.5-2.5h40zm-9.2399 24.6503C52.0012 36.071 55.5 27.4193 55.5 18h-40c0-.6145.2476-1.2208.6213-1.649l30.1388 26.2993zm-3.3218-28.3092c1.8076.5662 3.0725 1.6839 3.7725 2.545L15.6705 42.1152c3.1211 3.84 8.0784 8.1313 15.3105 10.3968l11.9573-38.1709zM23.5932 53.072c3.2864.4867 7.6511.9246 10.9236 1.0544.8447.0336 1.8739.0576 2.9261.0287.3305-.009 3.1268-.0263 6.167-.9437a20.4686 20.4686 0 0 0 4.761-2.1274c1.8259-1.1159 5.8528-3.9708 8.1341-9.5451 2.6817-6.5527 1.3743-12.826-.8509-17.0174-1.8755-3.5328-4.3287-5.6012-5.4013-6.4413-2.2358-1.7511-4.3613-2.637-4.9542-2.8849-.9318-.3896-1.7717-.6699-2.3603-.8542L30.981 52.512c-.0708-.0222-.4972-.1554-1.1115-.4122-.2753-.1151-2.1791-.8825-4.2806-2.5285-1.0056-.7876-3.4135-2.8067-5.2647-6.2936-2.2008-4.1454-3.5045-10.376-.8391-16.8891 2.2651-5.5347 6.256-8.3531 8.0273-9.4356 1.9755-1.2073 3.7108-1.7853 4.5417-2.0361 1.701-.5133 3.034-.6491 3.3491-.6816.5045-.0521.8503-.0626.9429-.0651.1891-.0052.1393.0029-.2436-.0123-1.6379-.065-4.5624-.3452-6.6494-.6543L23.5932 53.072zM18 55.5c6.5966 0 12.8514-1.7206 18.278-4.7525L16.7683 15.8281c.3823-.2137.8237-.3281 1.2317-.3281v40zM-19.5 18c0 20.7107 16.7893 37.5 37.5 37.5v-40c1.3807 0 2.5 1.1193 2.5 2.5h-40zm18.3555-9.1992v2.543h40v-2.543h-40zm17.1406 20h2.8594v-40h-2.8594v40zm20-17.457v-2.543h-40v2.543h40zm-17.1406-20h-2.8594v40h2.8594v-40zM-.8165 13.3593v8.2383h40.0001v-8.2383h-40zm15.6642 20h4.3359v-40h-4.3359v40zm12.1882-4.8404c-2.7505 2.4925-5.6332 3.6634-7.6546 4.2164-1.9897.5444-3.6131.624-4.5336.624v-40c-2.2805 0-8.8871.277-14.6726 5.52L27.0359 28.519zm6.2063-13.9643c0 2.1497-.3785 4.6983-1.5003 7.3399a18.9328 18.9328 0 0 1-4.7307 6.6467L.1997-1.1428C-4.5918 3.185-6.7578 9.0368-6.7578 14.5547h40zM27.0476.6139a18.89 18.89 0 0 1 4.6839 6.5813c1.1238 2.6339 1.5107 5.1869 1.5107 7.3595h-40c0 5.5907 2.2136 11.4112 6.9446 15.6986L27.0476.6139zM14.8477-4.2383c.9002 0 2.4794.0764 4.4179.5933 1.9614.523 4.7873 1.6345 7.5217 4.027L.4471 30.4852c5.7325 5.0159 12.1659 5.2766 14.4006 5.2766v-40zm1.9335 0h-1.9335v40h1.9335v-40zm20 25.836v-5.836h-40v5.836h40zm-22.8828 20h2.8828v-40h-2.8828v40zm12.1882-4.8405c-2.7504 2.4926-5.6332 3.6635-7.6546 4.2165-1.9896.5443-3.613.624-4.5336.624v-40c-2.2804 0-8.887.277-14.6725 5.52l26.8607 29.6395zM32.293 22.793c0 2.1497-.3785 4.6982-1.5003 7.3399a18.9337 18.9337 0 0 1-4.7307 6.6467L-.7495 7.0954C-5.541 11.4233-7.707 17.2752-7.707 22.793h40zM26.3194 9.0665a18.8903 18.8903 0 0 1 4.5477 6.5759c1.0659 2.5788 1.4259 5.0575 1.4259 7.1506h-40c0 5.3787 2.0532 11.1372 6.7001 15.4843L26.3194 9.0665zM13.8984 4c.8765 0 2.4387.0727 4.3637.5812 1.9413.5128 4.7964 1.6173 7.5642 4.0391L-.5138 38.7234C5.2554 43.7715 11.7404 44 13.8984 44V4zm8.168 0h-8.168v40h8.168V4zM9.8911 8.8298c2.8354-2.561 5.7918-3.7108 7.7633-4.2365C19.6121 4.0713 21.197 4 22.0664 4v40c2.0662 0 8.7736-.1909 14.6362-5.4861L9.8912 8.8299zM3.672 22.8047c0-2.2365.4083-4.8196 1.549-7.4578a18.8829 18.8829 0 0 1 4.6456-6.4948l26.8608 29.6395c4.6285-4.1946 6.9446-9.9584 6.9446-15.6869h-40zm6.4549 14.1843a18.9367 18.9367 0 0 1-4.9058-6.7324c-1.1638-2.6913-1.5491-5.2848-1.5491-7.4519h40c0-5.5942-2.2293-11.5651-7.2049-15.9187L10.1268 36.989zm11.9396 4.6087c-.9134 0-2.5601-.0781-4.5832-.6369-2.054-.5672-5.0358-1.7858-7.8495-4.4179L36.96 7.3321c-5.8735-5.4946-12.7031-5.7344-14.8936-5.7344v40zm-2.8828 0h2.8828v-40h-2.8828v40z" fill="#fff" mask="url(#a)"/></svg>