<svg viewBox="0 0 538 341" width="538" height="341" fill="none" xmlns="http://www.w3.org/2000/svg"><g opacity=".2"><path opacity=".2" d="M453.682 294.837a290.7715 290.7715 0 0 1-11.316 6.476c-.597.323-1.194.646-1.791.979-2.89 1.55-5.826 3.058-8.807 4.523.023-.235.052-.47.088-.705a21.335 21.335 0 0 1 2.241-6.96 17.5731 17.5731 0 0 1 1.908-2.937c2.911-3.637 6.953-5.668 11.082-5.076 2.573.395 4.916 1.71 6.595 3.7z" fill="#3F3D56"/><path opacity=".2" d="M460.463 289.272c-.073.524-.166 1.038-.279 1.547a213.332 213.332 0 0 1-6.502 4.018 290.7715 290.7715 0 0 1-11.316 6.476c-.597.323-1.194.646-1.791.979a11.9248 11.9248 0 0 1-1.957-1.806 15.1656 15.1656 0 0 1-2.598-4.254 21.2077 21.2077 0 0 1 2.935-20.523c2.936-3.637 6.953-5.668 11.082-5.076 4.129.592 7.437 3.681 9.208 7.988a20.464 20.464 0 0 1 1.218 10.651z" fill="#3F3D56"/><path opacity=".2" d="M463.429 268.764c1.333-9.274-3.329-17.618-10.411-18.636-7.082-1.019-13.904 5.674-15.236 14.948-1.333 9.274 3.328 17.618 10.411 18.637 7.082 1.018 13.904-5.674 15.236-14.949z" fill="#3F3D56"/><path opacity=".2" d="M537.359 97.2553a61.839 61.839 0 0 1-9.296 24.8847l-36.4-5.511 32.897 10.382a63.07 63.07 0 0 1-5.788 6.363 62.1063 62.1063 0 0 1 7.687 39.877c-1.979 13.779-8.528 26.492-18.597 36.099a61.8062 61.8062 0 0 1 8.273 33.52c-15.475 18.017-34.355 34.18-55.936 47.968a260.1042 260.1042 0 0 1-6.517 3.999 290.7715 290.7715 0 0 1-11.316 6.476c-1.268-.245-2.515-.524-3.748-.847-1.532-.386-3.034-.837-4.506-1.336a62.0482 62.0482 0 0 1-26.228-17.386 62.0829 62.0829 0 0 1-14.333-28.021 62.1135 62.1135 0 0 1 1.246-31.452 62.0814 62.0814 0 0 1 16.506-26.797 60.7168 60.7168 0 0 1-1.776-3.295c-.167-.323-.323-.646-.489-.978a61.8018 61.8018 0 0 1-5.969-30.299l.073-1.082c.044-.582.098-1.17.157-1.752.088-.822.19-1.65.308-2.477v-.078a61.656 61.656 0 0 1 6.057-19.163l44.38 22.359-40.466-29.016c2.496-3.7 5.383-7.12 8.611-10.201a62.1014 62.1014 0 0 1-5.436-49.1181 62.086 62.086 0 0 1 12.176-22.1009 62.0687 62.0687 0 0 1 19.963-15.4262 62.0342 62.0342 0 0 1 24.451-6.2023 62.0317 62.0317 0 0 1 24.899 4.0466 62.0591 62.0591 0 0 1 21.231 13.6268 62.0957 62.0957 0 0 1 14.055 20.9551l-49.84 26.6715 52.526-18.3406a61.9389 61.9389 0 0 1 1.145 23.6514z" fill="#F9A826"/><path opacity=".1" d="M516.12 242.85c-15.475 18.018-34.355 34.18-55.936 47.969a213.332 213.332 0 0 1-6.502 4.018 290.7715 290.7715 0 0 1-11.316 6.476c-1.268-.245-2.515-.524-3.748-.847-1.532-.386-3.034-.837-4.506-1.336a62.0482 62.0482 0 0 1-26.228-17.386 62.0829 62.0829 0 0 1-14.333-28.021 62.1135 62.1135 0 0 1 1.246-31.452 62.0814 62.0814 0 0 1 16.506-26.797 60.7168 60.7168 0 0 1-1.776-3.295c-.167-.323-.323-.646-.489-.979a61.7957 61.7957 0 0 1-5.969-30.298l.073-1.082c.044-.582.098-1.17.157-1.752.088-.822.19-1.65.308-2.477v-.078c.381-1.322 5.431-.211 13.122 2.447l1.624.578c1.703.612 3.518 1.287 5.426 2.026 4.163 1.606 8.762 3.5 13.616 5.595l.318.137.675.294c32.633 14.155 75.56 36.867 69.405 42.731a61.797 61.797 0 0 1 8.327 33.529z" fill="#000"/></g><g opacity=".2"><path opacity=".2" d="M157.028 322.307c-2.055-.712-4.095-1.443-6.121-2.193a313.2737 313.2737 0 0 1-13.929-5.507c.927-.752 1.978-1.335 3.107-1.723 4.076-1.4 8.552-.063 12.197 3.157a20.726 20.726 0 0 1 4.746 6.266z" fill="#3F3D56"/><path opacity=".2" d="M152.282 316.042a16.3239 16.3239 0 0 1-1.375 4.072 313.2737 313.2737 0 0 1-13.929-5.507c-3.976-1.674-7.89-3.421-11.742-5.242a22.3979 22.3979 0 0 1-.225-3.529c.017-1.23.148-2.456.392-3.661.978-4.812 3.747-8.644 7.828-10.044 4.08-1.4 8.552-.064 12.197 3.162.882.782 1.691 1.644 2.417 2.574a22.83 22.83 0 0 1 3.659 6.892 22.059 22.059 0 0 1 .778 11.283z" fill="#3F3D56"/><path opacity=".2" d="M137.347 305.417c7.039-2.226 10.332-11.668 7.356-21.089-2.976-9.421-11.095-15.254-18.134-13.029-7.039 2.226-10.332 11.668-7.356 21.089 2.976 9.421 11.095 15.254 18.134 13.029z" fill="#3F3D56"/><path opacity=".2" d="M129.483 283.688c7.013-2.215 10.296-11.621 7.333-21.007-2.963-9.387-11.05-15.2-18.063-12.984-7.013 2.215-10.296 11.621-7.333 21.007 2.963 9.387 11.05 15.2 18.063 12.984z" fill="#3F3D56"/><path opacity=".2" d="M147.82 297.867c-1.36.797-2.756 1.542-4.188 2.237a63.3454 63.3454 0 0 1-7.109 2.937 62.078 62.078 0 0 1-6.756 1.914c-1.589.359-3.179.651-4.771.876-1.976.284-3.948.47-5.915.558-23.6404-11.747-44.8642-26.118-62.9764-42.53-.2593-.696-.4892-1.395-.7388-2.105a66.744 66.744 0 0 1 .2251-42.878c-12.1114-8.136-21.1561-20.09-25.6956-33.96a66.9778 66.9778 0 0 1-3.4248-21.048h51.2396l-50.7405-8.115a66.602 66.602 0 0 1 3.1508-13.706c-12.1122-8.133-21.1572-20.085-25.6957-33.955-11.38-34.3167 6.512-71.4631 39.9623-82.9853 22.3931-7.7044 46.0779-1.9579 62.708 12.9711L73.752 86.908l39.698-42.2516a66.0758 66.0758 0 0 1 12.094 21.7425 66.8808 66.8808 0 0 1 3.073 27.9001l-36.0238 12.09 35.0798-5.839a66.2285 66.2285 0 0 1-2.354 8.732c12.111 8.134 21.156 20.086 25.696 33.955a67.0115 67.0115 0 0 1 3.425 20.48v2.354a66.5782 66.5782 0 0 1-3.626 20.068c4.923 3.3 9.368 7.261 13.21 11.772.098.108.191.216.279.328a65.9984 65.9984 0 0 1 12.187 21.855c10.015 30.201-2.661 62.604-28.67 77.773z" fill="#F9A826"/><path opacity=".1" d="M147.82 297.867c-1.36.797-2.756 1.542-4.188 2.237a63.3454 63.3454 0 0 1-7.109 2.937 62.078 62.078 0 0 1-6.756 1.914c-1.589.359-3.179.651-4.771.876-1.976.284-3.948.47-5.915.558-23.6404-11.747-44.8642-26.118-62.9764-42.53-.2593-.696-.4892-1.396-.7388-2.105a66.744 66.744 0 0 1 .2251-42.878c-12.1114-8.136-21.1561-20.09-25.6956-33.96-1.7564-5.296 71.4897-9.57 104.8517-5.473l.778.098c10.128 1.307 16.346 3.427 15.265 6.564A64.5879 64.5879 0 0 1 164 197.877c.098.108.191.215.279.328a66.0162 66.0162 0 0 1 12.187 21.855c10.039 30.235-2.637 62.638-28.646 77.807z" fill="#000"/></g><path opacity=".1" d="M187.998 114.392c.266-.379.412-.829.42-1.292 0-2.815-5.729-5.091-12.794-5.091-7.064 0-12.784 2.296-12.784 5.091.01.533.194 1.049.524 1.468-7.863.876-13.161 2.526-13.161 4.406 0 2.809 11.742 5.085 26.199 5.085 14.458 0 26.2-2.276 26.2-5.085-.005-2.017-5.954-3.75-14.604-4.582zM390.999 11.1371a3.7281 3.7281 0 0 0 .67-2.0607c0-4.4592-9.09-8.0764-20.304-8.0764-11.214 0-20.304 3.6172-20.304 8.0764.02.8361.314 1.6426.837 2.2956-12.486 1.395-20.896 4.0088-20.896 7.0044 0 4.4591 18.591 8.0764 41.586 8.0764 22.995 0 41.587-3.6173 41.587-8.0764 0-3.1767-9.448-5.9227-23.176-7.2393zM228.077 11.1371a3.7291 3.7291 0 0 0 .671-2.0607C228.748 4.6172 219.657 1 208.444 1 197.23 1 188.14 4.6172 188.14 9.0764c.02.8361.314 1.6426.836 2.2956-12.486 1.395-20.896 4.0088-20.896 7.0044 0 4.4591 18.616 8.0764 41.587 8.0764 22.97 0 41.586-3.6173 41.586-8.0764 0-3.1767-9.447-5.9227-23.176-7.2393z" fill="#F9A826"/><path opacity=".1" d="M176.603 53.3006c1.145-.6608 2.681-.0294 3.464 1.0327.783 1.0622 1.008 2.4474 1.203 3.7348.436 2.8928.749 6.2163-1.198 8.3994 3.185-9.677 12.358-17.0925 22.505-18.1743M304.528 5.3221c.734-.4258 1.727 0 2.231.6608.448.7265.712 1.5516.768 2.4033.279 1.86.489 3.9942-.768 5.3843a17.5557 17.5557 0 0 1 5.555-7.9144 17.542 17.542 0 0 1 8.903-3.7694M388.68 95.8751c.734-.4259 1.727 0 2.231.6608a5.245 5.245 0 0 1 .768 2.4033c.279 1.8598.489 3.9938-.768 5.3838a17.5503 17.5503 0 0 1 5.555-7.914 17.5437 17.5437 0 0 1 8.902-3.7694" stroke="#F9A826" stroke-width="3" stroke-miterlimit="10"/><path d="M268.71 32.8109c-2.094 1.7524-3.572 3.9991-5.871 5.5801-2.769 1.9089-6.405 2.6334-9.785 3.6564-3.381 1.023-6.85 2.6285-8.21 5.4136-1.155 2.3837-.489 5.1493-1.468 7.5869-1.052 2.5893-3.782 4.4052-5.871 6.4953-4.129 4.1214-5.964 9.7895-4.892 15.0759.738 3.6564 2.759 7.0337 3.958 10.602 1.468 4.3661 1.673 8.9427 1.878 13.4709.382 8.502.759 17.087-1.154 25.452-.489 2.1-1.81 34.029-4.369 33.965 6.791-.582 13.621-.646 20.446-.715l102.254-.979c-4.712-6.167-7.721-42.613-8.719-49.882-1.722-12.5307 2.446-25.0759 2.936-37.6897.068-1.6251.068-3.2942-.602-4.8214-.705-1.6006-2.114-2.9662-2.583-4.6255-.675-2.374.68-4.8067.724-7.2443.088-4.8947-4.893-8.649-8.841-12.2761-3.806-3.4899-6.972-7.4547-10.901-10.8565-3.928-3.4019-8.865-6.2849-14.481-6.8086-4.614-.4259-9.198.7733-13.616 1.9579-5.27 1.4096-10.275 3.1913-15.867 3.1032-6.169-.1076-9.971.4063-14.966 3.5389z" fill="#2F2E41"/><g opacity=".1" fill="#000"><path opacity=".1" d="M339.143 52.0914a6.812 6.812 0 0 0 .616 1.537 9.0577 9.0577 0 0 0-.787-3.1865 5.8372 5.8372 0 0 0 .171 1.6495zM239.976 130.687l-.568.049c.191.004.381-.013.568-.049z"/></g><path d="M346.159 307.074c-.624.484-1.369.787-2.153.877-12.51 2.569-25.133 4.762-37.888 5.457-11.253.617-22.54.064-33.797-.489-11.258-.553-22.506-1.111-33.495-3.387a85.4337 85.4337 0 0 0 8.464-29.276c.463-4.471.575-8.972.338-13.461a15.02 15.02 0 0 0-.196-1.61c-.523-3.221-1.815-7.885-.641-10.215 1.507-2.996 7.295-3.094 10.123-3.652 4.804-.945 9.633-1.733 14.482-2.393 19.242-2.619 38.68-3.216 58.069-3.799 2.603-.078 5.705.098 7.06 2.325.759 1.248.72 2.805.68 4.269-.088 3.168-.057 6.337.093 9.505.68 14.05 3.686 27.889 8.895 40.955.646 1.6 1.238 3.695-.034 4.894zM270.031 132.767c-2.045 2.521-4.927 4.214-7.828 5.702a97.7786 97.7786 0 0 1-10.69 4.739c-.739 1.12-.152 2.608.489 3.803 5.739 11.15 13.42 22.232 25.006 27.024 5.944 2.447 12.466 3.059 18.875 3.632 1.996.176 4.031.352 5.979-.128 1.947-.479 3.757-1.639 5.381-2.868 10.615-8.036 17.605-19.961 19.434-33.152.156-1.17.156-2.604-.847-3.231-.611-.377-1.389-.303-2.108-.298-4.692.049-8.851-3.427-11.018-7.582-2.168-4.156-2.745-8.948-3.278-13.613 0-.102-27.585-.685-30.075-.704-3.885-.035-5.166.421-5.543 4.405-.396 4.395-.886 8.688-3.777 12.271z" fill="#FFCFCF"/><path opacity=".1" d="M270.031 132.767c-2.045 2.521-4.927 4.214-7.828 5.702a97.7786 97.7786 0 0 1-10.69 4.739c-.739 1.12-.152 2.608.489 3.803 5.739 11.15 13.42 22.232 25.006 27.024 5.944 2.447 12.466 3.059 18.875 3.632 1.996.176 4.031.352 5.979-.128 1.947-.479 3.757-1.639 5.381-2.868 10.615-8.036 17.605-19.961 19.434-33.152.156-1.17.156-2.604-.847-3.231-.611-.377-1.389-.303-2.108-.298-4.692.049-8.851-3.427-11.018-7.582-2.168-4.156-2.745-8.948-3.278-13.613 0-.102-27.585-.685-30.075-.704-3.885-.035-5.166.421-5.543 4.405-.396 4.395-.886 8.688-3.777 12.271z" fill="#000"/><path d="M291.954 127.554c20.806 0 37.673-16.874 37.673-37.6895 0-20.8154-16.867-37.6897-37.673-37.6897s-37.672 16.8743-37.672 37.6897c0 20.8155 16.866 37.6895 37.672 37.6895z" fill="#FFCFCF"/><path d="M319.582 134.549c.416 5.286-56.371 10.235-58.514 3.715-1.272 1.503-3.606 1.625-5.465.979s-3.425-1.89-5.186-2.805c-2.936-1.532-6.243-2.1-9.497-2.653-5.298-.896-11.453-1.552-15.377 2.124-1.355 1.268-2.28 2.937-3.64 4.21-2.378 2.212-5.739 2.903-8.807 3.916-4.427 1.468-8.508 3.818-12.691 5.873a112.3936 112.3936 0 0 1-30.916 9.996c-2.285.386-4.584.7-6.849 1.243-3.18.763-6.361 2.07-8.528 4.523 2.534 3.24 6.174 5.007 10.083 6.285l37.722 12.334c5.675 1.855 11.439 3.75 16.405 7.073 8.273 5.522 13.655 14.596 16.6 24.097 2.945 9.501 3.704 19.525 4.438 29.447.318 4.312.606 8.811-1.087 12.805a99.0036 99.0036 0 0 0 26.42-.436c8.42-1.282 16.747-3.661 25.265-3.583 9.296.093 18.303 3.108 27.467 4.738 9.164 1.63 19.276 1.679 26.997-3.524-1.644-2.217-1.894-5.384-1.957-8.135l-.196-13.035c-.087-1.573.018-3.151.313-4.699.656-2.79 2.5-5.129 3.68-7.738 2.275-5.037 1.956-10.793 2.084-16.32.127-5.526.9-11.463 4.633-15.506 2.446-2.638 5.871-4.136 9.345-5.061 5.939-1.586 12.153-1.689 18.288-2.125a163.6776 163.6776 0 0 0 57.732-15.041c-1.086-2.296-3.611-3.598-5.915-4.665-5.45-2.521-11.224-5.105-17.202-4.542-2.892.274-5.754 1.282-8.636.915-2.73-.352-5.147-1.899-7.798-2.638-2.011-.558-4.115-.641-6.18-.955-4.765-.729-9.237-2.692-13.645-4.635l-11.135-4.895c-2.936-1.297-5.994-2.682-8.009-5.188-.656-.818-1.184-1.738-1.899-2.506-1.228-1.317-2.935-2.095-4.643-2.639a15.0267 15.0267 0 0 0-6.688-.734c-1.547.308-3.075.708-4.574 1.199-7.359 1.988-14.952-.078-22.438-1.414z" fill="#F9A826"/><path d="M362.671 331.685a364.1907 364.1907 0 0 1-61.059 9.3h-51.734c-9.246-.629-18.36-1.592-27.339-2.888a97.2539 97.2539 0 0 1 10.866-22.369c.731-.984 1.302-2.078 1.693-3.24.215-1.082.325-2.181.328-3.284a15.9004 15.9004 0 0 1 3.738-9.173c1.017.555 2.045 1.088 3.082 1.601a98.654 98.654 0 0 0 37.643 10.107c6.888.353 13.793.214 20.661-.416 15.49-1.248 31.596-4.126 44.072-13.265.524-.381 1.043-.778 1.556-1.184 6.062 5.384 9.57 13.637 12.08 21.351 1.492 4.513 2.872 9.016 4.413 13.46z" fill="#2F2E41"/><path opacity=".1" d="M291.749 300.545a5.4191 5.4191 0 0 0 .743 4.713 3.815 3.815 0 0 0 .271-2.258 3.8233 3.8233 0 0 0-1.063-2.01l.049-.445z" fill="#000"/><path d="M270.344 142.317c1.898-1.038 3.948-1.958 6.111-1.988 3.248-.029 6.155 1.958 8.562 4.151a43.903 43.903 0 0 1 6.008 6.667c.88 1.199 1.722 2.516 1.854 3.999.132 1.483-.68 3.152-2.128 3.505a3.752 3.752 0 0 1-2.637-.534c-3.347-1.84-5.827-6.055-9.624-5.644-2.603.279-4.364 2.702-5.788 4.895-1.267 1.958-2.549 3.97-3.116 6.231-.568 2.262-.294 4.895 1.281 6.598 1.224 1.337 3.009 1.958 4.678 2.653a32.6117 32.6117 0 0 1 9.966 6.471c1.404 1.341 2.74 2.937 2.935 4.895.196 1.958-1.286 4.111-3.224 3.974a5.1503 5.1503 0 0 1-2.392-1.042c-3.503-2.315-7.08-4.743-11.19-5.595-4.183-.866-8.503 0-12.72.646-4.625.692-9.273 1.185-13.944 1.478-1.386.16-2.79.068-4.144-.269-4.618-1.429-5.964-7.308-5.426-11.556.573-4.543 3.914-5.575 7.408-7.832 9.824-6.432 17.114-16.025 27.53-21.703z" fill="#FFCFCF"/><path d="M306.534 142.317c-1.903-1.038-3.948-1.958-6.116-1.988-3.248-.029-6.155 1.958-8.562 4.151a43.8703 43.8703 0 0 0-6.003 6.667c-.876 1.199-1.717 2.516-1.849 3.999-.132 1.483.675 3.152 2.123 3.505.916.154 1.857-.036 2.642-.534 3.347-1.84 5.827-6.055 9.619-5.644 2.608.279 4.369 2.702 5.788 4.895 1.267 1.958 2.554 3.97 3.116 6.231.563 2.262.294 4.895-1.282 6.598-1.218 1.337-3.008 1.958-4.677 2.653a32.665 32.665 0 0 0-9.971 6.471c-1.404 1.341-2.735 2.937-2.935 4.895-.201 1.958 1.286 4.111 3.224 3.974a5.1414 5.1414 0 0 0 2.392-1.042c3.503-2.315 7.08-4.743 11.19-5.595 4.183-.866 8.503 0 12.72.646 4.614.725 9.267 1.229 13.929 1.508 1.388.159 2.793.068 4.149-.269 4.614-1.43 5.959-7.308 5.426-11.557-.577-4.542-3.914-5.575-7.412-7.832-9.805-6.461-17.09-16.054-27.511-21.732z" fill="#FFCFCF"/><path d="M265.906 76.2471c2.192-3.4655 4.795-7.2247 8.352-7.6261 4.966-.5629 8.846 5.6486 13.787 6.4513 6.36 1.0377 12.613-7.1072 18.592-4.1312 2.935 1.4685 5.127 5.5409 8.317 5.4626 2.207-.0489 4.002-2.1194 5.465-4.1508a77.4529 77.4529 0 0 0 6.532-10.8272c-6.072-6.9652-14.903-8.556-23.147-9.8238l-13.861-2.1292c-3.336-.5139-6.732-1.023-10.049-.3132-2.999.6412-5.798 2.2564-8.513 3.9549-3.239 2.0362-10.856 5.3059-12.843 9.0945-1.384 2.6285.519 3.8522 2.305 6.5002 1.679 2.5127 3.367 5.0253 5.063 7.538z" fill="#2F2E41"/><path opacity=".1" d="M244.913 161.318a72.8497 72.8497 0 0 1-18.274 1.302c-2.402-.127-4.814-.377-7.207-.152-2.886.274-5.66 1.229-8.474 1.924-14.575 3.588-29.805.083-44.683-1.884-2.628-.348-5.314-.647-7.916-.138-2.383.465-4.585 1.581-6.693 2.781a80.7936 80.7936 0 0 0-9.785 6.554c-3.244 2.535-6.517 5.766-6.742 9.873-.196 3.534 1.957 6.789 4.564 9.192 7.046 6.525 17.506 8.487 26.939 6.72 3.586-.67 7.084-1.825 10.709-2.227 3.714-.411 7.466 0 11.199-.176 7.584-.338 14.844-2.976 22.208-4.811a106.8856 106.8856 0 0 1 35.197-2.761.7608.7608 0 0 1-.326.062.7607.7607 0 0 1-.321-.083.7472.7472 0 0 1-.255-.212.749.749 0 0 1-.14-.301c-.866-2.388-.911-4.987-.896-7.528.039-6.162.328-11.997.896-18.135z" fill="#000"/><path d="M243.934 161.808a72.8931 72.8931 0 0 1-18.274 1.302c-2.402-.128-4.814-.377-7.206-.152-2.887.274-5.661 1.228-8.474 1.924-14.575 3.587-29.806.083-44.684-1.885-2.627-.347-5.313-.646-7.916-.137-2.383.465-4.584 1.581-6.693 2.78a80.9891 80.9891 0 0 0-9.785 6.554c-3.244 2.536-6.517 5.766-6.742 9.873-.196 3.534 1.957 6.789 4.565 9.192 7.045 6.525 17.505 8.488 26.938 6.721 3.586-.671 7.085-1.826 10.71-2.227 3.713-.411 7.466 0 11.199-.176 7.583-.338 14.844-2.976 22.207-4.812a106.9435 106.9435 0 0 1 35.197-2.761.7616.7616 0 0 1-.326.063.7684.7684 0 0 1-.321-.083.7785.7785 0 0 1-.255-.212.7691.7691 0 0 1-.14-.301c-.866-2.389-.91-4.988-.895-7.528.039-6.163.327-11.997.895-18.135z" fill="#F9A826"/><path opacity=".1" d="M333.1 158.699c7.457 1.699 25.403 2.448 33.045 2.193 3.488-.107 6.967-.421 10.455-.411 5.979 0 11.948.979 17.912.583 7.705-.529 15.274-3.363 22.96-2.634 3.777.362 7.412 1.567 11.013 2.771s7.525 2.565 10.059 5.492c2.349 2.711 3.205 6.363 3.983 9.867.435 1.958.871 3.98.489 5.943-.729 3.725-4.158 6.245-7.451 8.125-3.914 2.232-8.21 4.151-12.721 4.048-2.676-.059-5.279-.832-7.828-1.635-7.304-2.296-14.77-4.895-22.403-4.322-5.337.411-10.67 2.379-15.92 1.317-3.087-.627-5.871-2.262-8.807-3.348-7.152-2.619-25.309-1.924-32.892-1.2.44-4.263.386-8.56.827-12.829.342-3.264.67-6.647-.377-9.76-.656-1.865-.876-2.878-2.344-4.2z" fill="#000"/><path d="M333.59 159.678c7.456 1.699 25.402 2.448 33.044 2.193 3.488-.107 6.967-.421 10.455-.411 5.979 0 11.948.979 17.912.583 7.706-.529 15.274-3.363 22.961-2.634 3.777.362 7.412 1.567 11.013 2.771s7.524 2.565 10.059 5.492c2.348 2.711 3.204 6.363 3.982 9.867.436 1.958.871 3.98.489 5.943-.729 3.725-4.158 6.245-7.451 8.125-3.914 2.232-8.21 4.151-12.72 4.048-2.677-.059-5.28-.832-7.829-1.635-7.304-2.296-14.77-4.895-22.402-4.322-5.338.411-10.671 2.379-15.921 1.317-3.087-.627-5.871-2.262-8.806-3.348-7.153-2.619-25.309-1.924-32.893-1.2.441-4.263.387-8.56.827-12.829.343-3.264.67-6.647-.377-9.76-.655-1.865-.875-2.878-2.343-4.2z" fill="#F9A826"/><path d="M255.852 85.141c-1.145-.2986-1.585-1.7474-2.617-2.3299-1.033-.5825-2.324-.1223-3.068.744a5.2937 5.2937 0 0 0-1.066 3.1816 12.0312 12.0312 0 0 0 1.931 6.9979 12.0233 12.0233 0 0 0 5.603 4.6125 49.0631 49.0631 0 0 1-1.174-13.5977l.391.3916zM328.051 85.141c1.145-.2986 1.581-1.7474 2.613-2.3299 1.032-.5825 2.324-.1223 3.068.744a5.2642 5.2642 0 0 1 1.066 3.1816 12.0312 12.0312 0 0 1-1.931 6.9979 12.0233 12.0233 0 0 1-5.603 4.6125 49.0631 49.0631 0 0 0 1.174-13.5977l-.387.3916z" fill="#FFCFCF"/><path opacity=".1" d="M281.156 193.682a38.0833 38.0833 0 0 1 1.346 10.475c0 6.153-1.209 11.522-3.009 14.405-.152 1.371-.323 2.732-.489 4.068 2.539-1.958 4.403-8.39 4.403-16.025-.02-5.218-.89-9.873-2.251-12.923zM294.939 193.682a38.0879 38.0879 0 0 0-1.351 10.475c0 6.153 1.214 11.522 3.014 14.405.152 1.371.318 2.732.489 4.068-2.539-1.958-4.403-8.39-4.403-16.025-.005-5.218.866-9.873 2.251-12.923zM320.38 69.8058c-1.468 2.0313-3.259 4.1018-5.465 4.1508-3.195.0783-5.382-3.9844-8.317-5.4626-5.955-2.976-12.193 5.1689-18.592 4.1312-4.941-.8027-8.807-7.0142-13.787-6.4513-3.557.4014-6.16 4.1606-8.352 7.626-1.696-2.5093-3.39-5.022-5.083-7.5379-.979-1.4684-2.04-2.5208-2.515-3.6074-.949 2.3299.832 3.5634 2.515 6.0548 1.683 2.4914 3.386 5.0269 5.083 7.5379 2.192-3.4655 4.795-7.2246 8.352-7.626 4.966-.5629 8.846 5.6485 13.787 6.4513 6.36 1.0377 12.613-7.1072 18.592-4.1312 2.935 1.4684 5.127 5.5409 8.317 5.4626 2.206-.049 4.002-2.1195 5.465-4.1508a77.3566 77.3566 0 0 0 6.531-10.8272 19.789 19.789 0 0 0-.817-.8811 78.0446 78.0446 0 0 1-5.714 9.2609z" fill="#000"/></svg>