<svg viewBox="0 0 38 38" width="38" height="38" fill="none" xmlns="http://www.w3.org/2000/svg"><g filter="url(#filter0_d)"><circle cx="19" cy="15" r="14" fill="#A1A0E0" stroke="#fff" stroke-width="2"/><path d="M19.8555 7.8008v2.543h-2.8594v-2.543h2.8594zm.3281 4.5586v8.2383h2.8828c.5781 0 .9883.1132 1.2305.3398.25.2187.375.5078.375.8672 0 .3515-.125.6406-.375.8672-.2422.2187-.6524.3281-1.2305.3281h-8.168c-.5781 0-.9922-.1094-1.2422-.3281-.2421-.2266-.3632-.5196-.3632-.8789 0-.3516.1211-.6368.3632-.8555.25-.2266.6641-.3398 1.2422-.3398h2.8828v-5.836h-1.9335c-.5704 0-.9805-.1094-1.2305-.3281-.25-.2266-.375-.5195-.375-.8789 0-.3516.1211-.6367.3633-.8555.25-.2265.664-.3398 1.2422-.3398h4.3359z" fill="#fff"/></g><defs><filter id="filter0_d" x="0" y="0" width="38" height="38" filterUnits="userSpaceOnUse" color-interpolation-filters="sRGB"><feFlood flood-opacity="0" result="BackgroundImageFix"/><feColorMatrix in="SourceAlpha" values="0 0 0 0 0 0 0 0 0 0 0 0 0 0 0 0 0 0 127 0"/><feOffset dy="4"/><feGaussianBlur stdDeviation="2"/><feColorMatrix values="0 0 0 0 0 0 0 0 0 0 0 0 0 0 0 0 0 0 0.25 0"/><feBlend in2="BackgroundImageFix" result="effect1_dropShadow"/><feBlend in="SourceGraphic" in2="effect1_dropShadow" result="shape"/></filter></defs></svg>