<svg viewBox="0 0 275 274" width="275" height="274" fill="none" xmlns="http://www.w3.org/2000/svg"><path d="M157.717 150.695h-27.901V274h27.901V150.695z" fill="url(#paint0_linear)"/><path d="M155.88 150.695h-23.496v121.099h23.496V150.695z" fill="#ECEFF1"/><path d="M222.625 54.6256H96.9704a33.2722 33.2722 0 0 0-12.5332 2.8003C71.664 63.1015 64.2295 72.0097 62.1301 91.7656v45.6424l-33.2958-.353c-6.6959 0-9.144 10.554-9.144 17.688H244.602V78.0387c0-12.93-9.826-23.4131-21.977-23.4131z" fill="url(#paint1_linear)"/><path d="M101.544 59.4105h124.5c4.045 0 7.924 1.6109 10.785 4.4784 2.86 2.8676 4.467 6.7568 4.467 10.8121v75.994H101.544V59.4105z" fill="#FF9F46"/><path d="M98.6012 59.4105c8.9578 0 17.5488 3.5676 23.8828 9.918 6.334 6.3505 9.893 14.9635 9.893 23.9443v40.8502c0 4.395-1.742 8.61-4.842 11.718-3.1 3.108-7.304 4.854-11.688 4.854H81.3554c-4.384 0-8.5884-1.746-11.6883-4.854-3.1-3.108-4.8415-7.323-4.8415-11.718V93.2728c0-8.9808 3.5585-17.5938 9.8927-23.9443 6.3341-6.3504 14.9251-9.918 23.8829-9.918z" fill="#FF9F46"/><path opacity=".2" d="M98.6012 59.4105c8.9578 0 17.5488 3.5676 23.8828 9.918 6.334 6.3505 9.893 14.9635 9.893 23.9443v40.8502c0 4.395-1.742 8.61-4.842 11.718-3.1 3.108-7.304 4.854-11.688 4.854H81.3554c-4.384 0-8.5884-1.746-11.6883-4.854-3.1-3.108-4.8415-7.323-4.8415-11.718V93.2728c0-8.9808 3.5585-17.5938 9.8927-23.9443 6.3341-6.3504 14.9251-9.918 23.8829-9.918z" fill="#000"/><path d="M188.557 47.2661H160.656v46.3751h12.665V68.0556h15.236V47.2661z" fill="url(#paint2_linear)"/><path d="M186.353 47.2661H162.857v42.6953h8.81V66.4055h14.686V47.2661z" fill="#FFCC80"/><path d="M65.0992 76.837l-3.4736 28.611 46.4344 5.666 3.474-28.6104-46.4348-5.6666z" fill="url(#paint3_linear)"/><path d="M65.5828 77.6176l-3.2416 26.7004 44.8608 5.475 3.241-26.7009-44.8602-5.4745z" fill="#FAF8E4"/><g opacity=".6" fill="#FF9F46"><path opacity=".6" d="M66.7594 84.1309l5.709.6967.5141-4.2349-5.7089-.6967-.5142 4.2349zM70.4413 92.9392l21.9167 2.6746.1667-1.3731-21.9167-2.6745-.1667 1.373zM76.0171 96.6405l15.9807 1.9502.111-.9142-15.9807-1.9502-.111.9142z"/></g><path d="M84.0192 83.1305l-3.4736 28.6105 46.4344 5.667 3.474-28.6109-46.4348-5.6666z" fill="url(#paint4_linear)"/><path d="M84.5029 83.9149l-3.2417 26.7001 44.8608 5.475 3.241-26.7006-44.8601-5.4745z" fill="#FAF8E4"/><g opacity=".6" fill="#FF9F46"><path opacity=".6" d="M85.6824 90.4289l5.709.6967.5142-4.2349-5.709-.6967-.5142 4.2349zM89.3644 99.2374l21.9166 2.6746.167-1.373-21.9169-2.6747-.1667 1.3731zM94.9327 102.938l15.9803 1.95.111-.914-15.9803-1.95-.111.914z"/></g><path d="M43.8188 85.8203l-4.7085 38.7817 62.9397 7.681 4.709-38.7818-62.9402-7.6809z" fill="url(#paint5_linear)"/><path d="M44.4775 86.8724l-4.3946 36.1966 60.8081 7.42 4.394-36.1959-60.8075-7.4207z" fill="#fff"/><g opacity=".6" fill="#FF9F46"><path opacity=".6" d="M46.0725 95.7045l7.7373.9442.6967-5.7386-7.7372-.9442-.6968 5.7386zM51.0573 107.648l29.7098 3.626.226-1.862-29.7097-3.626-.2261 1.862zM58.6171 112.662l21.6636 2.644.1509-1.243-21.6636-2.643-.1509 1.242z"/></g><path d="M69.4661 94.3508l-4.7085 38.7822 62.9404 7.681 4.708-38.782-62.9399-7.6812z" fill="url(#paint6_linear)"/><path d="M70.1207 95.4101l-4.3945 36.1959 60.8078 7.421 4.394-36.196-60.8073-7.4209z" fill="#fff"/><g opacity=".6" fill="#FF9F46"><path opacity=".6" d="M71.7184 104.241l7.7372.944.6967-5.7387-7.7372-.9442-.6967 5.7389zM76.7031 116.184l29.7099 3.626.226-1.862-29.7098-3.626-.2261 1.862zM84.2625 121.198l21.6635 2.644.151-1.242-21.6636-2.644-.1509 1.242z"/></g><path opacity=".2" d="M98.2413 59.7788a33.5927 33.5927 0 0 0-12.8781 2.5559 33.9556 33.9556 0 0 1 4.8026-.3458 33.698 33.698 0 0 1 12.9252 2.5777 33.7763 33.7763 0 0 1 10.958 7.3404 33.8659 33.8659 0 0 1 7.321 10.9858 33.9259 33.9259 0 0 1 2.571 12.9585v53.7497h8.076V93.6412c0-8.9809-3.559-17.5939-9.893-23.9443-6.334-6.3504-14.925-9.9181-23.8827-9.9181z" fill="#000"/><path d="M35.4627 138.915h96.9213v11.78H23.713c0-3.124 1.238-6.121 3.4414-8.33 2.2035-2.209 5.1921-3.45 8.3083-3.45z" fill="#FF9F46"/><path opacity=".2" d="M35.4627 138.915h96.9213v11.78H23.713c0-3.124 1.238-6.121 3.4414-8.33 2.2035-2.209 5.1921-3.45 8.3083-3.45z" fill="#fff"/><path d="M246.454 26.5291l-1.113.545.127-.2293-.097.0301.139-.1015L260.514 0l7.67 6.559 6.584 6.1079-1.89.9247L275 17.3465l-28.546 9.1826z" fill="url(#paint7_linear)"/><path d="M267.427 7.258l6.013 5.593-27.263 13.5878 14.509-18.6433 6.741-.5374z" fill="#FF9F46"/><path opacity=".2" d="M267.427 7.258l6.013 5.593-27.263 13.5878 14.509-18.6433 6.741-.5374z" fill="#000"/><path d="M260.409 1.2592l-14.232 25.1797 21.25-19.1808-7.018-5.999z" fill="#FF9F46"/><path d="M273.617 17.1774l-27.41 9.0773 22.911-17.1473 4.499 8.07z" fill="#FF9F46"/><path d="M45.6153 32.6897l1.792.2781-.2774-.2631h.1537l-.2399-.0827L14.479 1.6614 6.576 14.1667 0 25.5744l3.0443.4736-1.3497 6.1794 43.9207.4623z" fill="url(#paint8_linear)"/><path d="M7.9406 14.817l-6.006 10.4379 44.0293 7.1867-28.3582-19.7972-9.6651 2.1726z" fill="#FF9F46"/><path opacity=".2" d="M7.9406 14.817l-6.006 10.4379 44.0293 7.1867-28.3582-19.7972-9.6651 2.1726z" fill="#000"/><path d="M15.1726 3.3792l30.7913 29.0624L7.9406 14.817l7.232-11.4379z" fill="#FF9F46"/><path d="M3.5579 31.3892l42.286.8119L6.3697 18.1434 3.5579 31.3892z" fill="#FF9F46"/><defs><linearGradient id="paint0_linear" x1="143.767" y1="274" x2="143.767" y2="150.695" gradientUnits="userSpaceOnUse"><stop stop-color="gray" stop-opacity=".25"/><stop offset=".54" stop-color="gray" stop-opacity=".12"/><stop offset="1" stop-color="gray" stop-opacity=".1"/></linearGradient><linearGradient id="paint1_linear" x1="53607.2" y1="36279.1" x2="188543" y2="36279.1" gradientUnits="userSpaceOnUse"><stop stop-color="gray" stop-opacity=".25"/><stop offset=".54" stop-color="gray" stop-opacity=".12"/><stop offset="1" stop-color="gray" stop-opacity=".1"/></linearGradient><linearGradient id="paint2_linear" x1="13154.9" y1="11600.7" x2="13154.9" y2="5878.95" gradientUnits="userSpaceOnUse"><stop stop-color="gray" stop-opacity=".25"/><stop offset=".54" stop-color="gray" stop-opacity=".12"/><stop offset="1" stop-color="gray" stop-opacity=".1"/></linearGradient><linearGradient id="paint3_linear" x1="-9657.39" y1="16944.6" x2="-9221.79" y2="13375.1" gradientUnits="userSpaceOnUse"><stop stop-color="gray" stop-opacity=".25"/><stop offset=".54" stop-color="gray" stop-opacity=".12"/><stop offset="1" stop-color="gray" stop-opacity=".1"/></linearGradient><linearGradient id="paint4_linear" x1="-8249.08" y1="17620.3" x2="-7813.48" y2="14050.8" gradientUnits="userSpaceOnUse"><stop stop-color="gray" stop-opacity=".25"/><stop offset=".54" stop-color="gray" stop-opacity=".12"/><stop offset="1" stop-color="gray" stop-opacity=".1"/></linearGradient><linearGradient id="paint5_linear" x1="-14742.3" y1="26456.9" x2="-13942" y2="19898.6" gradientUnits="userSpaceOnUse"><stop stop-color="gray" stop-opacity=".25"/><stop offset=".54" stop-color="gray" stop-opacity=".12"/><stop offset="1" stop-color="gray" stop-opacity=".1"/></linearGradient><linearGradient id="paint6_linear" x1="-12145.2" y1="27696.3" x2="-11344.9" y2="21137.9" gradientUnits="userSpaceOnUse"><stop stop-color="gray" stop-opacity=".25"/><stop offset=".54" stop-color="gray" stop-opacity=".12"/><stop offset="1" stop-color="gray" stop-opacity=".1"/></linearGradient><linearGradient id="paint7_linear" x1="-4298.02" y1="20674.2" x2="-5518.73" y2="19632.9" gradientUnits="userSpaceOnUse"><stop stop-color="gray" stop-opacity=".25"/><stop offset=".54" stop-color="gray" stop-opacity=".12"/><stop offset="1" stop-color="gray" stop-opacity=".1"/></linearGradient><linearGradient id="paint8_linear" x1="1842.94" y1="23845.7" x2="3301.67" y2="21549.5" gradientUnits="userSpaceOnUse"><stop stop-color="gray" stop-opacity=".25"/><stop offset=".54" stop-color="gray" stop-opacity=".12"/><stop offset="1" stop-color="gray" stop-opacity=".1"/></linearGradient></defs></svg>