<svg width="313" height="216" fill="none" xmlns="http://www.w3.org/2000/svg"><path d="M244.486 87.5542s41.156-18.2207 45.377-5.2814c4.221 12.9394-27.173 34.5932-27.173 34.5932l-13.191-3.697 17.94-13.2035s-24.536 17.4285-36.935 13.4675c-12.4-3.961-18.204-15.0519-18.204-15.0519l32.186-10.8269z" fill="#5D59FF"/><path d="M262.954 115.017l-5.541 9.771s1.847 11.619 7.387 12.939c5.541 1.321 9.234 5.018 4.749 5.81-4.485.792-15.829 1.584-17.676-2.377-1.847-3.961-6.331-11.091-6.331-11.091l1.055 9.507-5.277.264-.791-10.827a7.4472 7.4472 0 0 1-.196-3.598 7.445 7.445 0 0 1 1.515-3.268c2.638-3.433 10.3-10.146 10.3-10.146l10.806 3.016zM255.435 33.816l-26.129 2.3377-7.947-21.6736 22.822-5.5027 11.254 24.8386z" fill="#2F2E41"/><path d="M224.7 95.2122s41.419-1.3203 34.824 14.5238c-6.596 15.844-29.548 16.108-29.548 16.108l-5.276 3.697s-7.123-4.225-6.86-11.091l8.706-3.697s-19.786 10.827-22.16-4.225C202.011 95.4763 224.7 95.2122 224.7 95.2122z" fill="#5D59FF"/><path d="M220.215 118.714s-19.127.661-17.808 6.734c1.319 6.074-1.187 16.768-1.187 16.768l4.485 1.585 1.319-9.243s1.055 13.996 6.859 14.26c5.804.264 17.94 2.641 17.676 0-.264-2.64-9.497-7.922-9.497-7.922l-.528-9.242 3.166-3.961-4.485-8.979z" fill="#2F2E41"/><path d="M234.725 33.156c6.702 0 12.136-5.4384 12.136-12.1471s-5.434-12.1472-12.136-12.1472c-6.702 0-12.136 5.4385-12.136 12.1472 0 6.7087 5.434 12.1471 12.136 12.1471z" fill="#C28E82"/><path d="M224.7 23.1214s-.264 10.8268-6.86 12.1472c-6.595 1.3203-5.144 7.5259-5.144 7.5259l11.212 14.3918 13.983-15.316 1.319-5.5455s-5.804 2.3767-4.485-1.0562a41.5147 41.5147 0 0 0 1.847-6.0736L224.7 23.1214z" fill="#C28E82"/><path d="M224.06 41.2441c-.637-1.4704-1.829-3.5895-3.977-6.6357 0 0-21.238 3.5649-18.599 22.0498 2.638 18.4848 3.429 31.6882 3.429 31.6882s-.01.0285-.029.0848c-2.045 5.8675-3.114 13.0128-1.686 19.0598.831 3.518 1.451 4.886 1.451 4.886s-.527-14.26 22.161-16.3726c22.689-2.1125 20.974-11.487 20.974-11.487l-3.694-45.6839c-.071-1.6386.584-3.9326-1.055-3.961-3.475-.0602-6.542-.4888-8.31.3961-1.98.9908.052 6.294-3.939 8.4331a4.8785 4.8785 0 0 1-1.925.5297 4.8683 4.8683 0 0 1-1.975-.2864 4.8683 4.8683 0 0 1-1.695-1.0547 4.864 4.864 0 0 1-1.131-1.6462z" fill="#FF9F46"/><path d="M243.678 5.7343s5.469 1.8245 5.81 9.0088a12.9775 12.9775 0 0 1-.379 3.5927c-.313 1.331-.514 4.2054 1.953 7.9599a74.2127 74.2127 0 0 1 4.393 7.5767l-6.079.7605-1.292-10.0845a50.2662 50.2662 0 0 0-3.984-14.1573l-.042-.0939s-2.659 4.9432-7.978 4.9432l1.9-1.9012s-6.586 2.6966-10.191 3.3024a2.2954 2.2954 0 0 0-1.113.5213 2.3007 2.3007 0 0 0-.684 1.0216 2.3004 2.3004 0 0 0-.059 1.2285c.093.4073.294.7816.583 1.0826.022.0227.045.0454.067.0682 2.28 2.2815 6.838 7.6049 4.179 11.7876s-.38 5.3234-.38 5.3234l-4.179-2.2814-1.899-1.1408v1.521l-9.877-1.1407s-2.659-.3803 3.039-6.8444c0 0 1.505-2.5103.846-4.6753a10.9347 10.9347 0 0 1-.414-5.1073c1.276-7.1283 6.285-21.3003 25.78-12.2716z" fill="#2F2E41"/><path opacity=".2" d="M209.541 77.2227l-3.177 8.0871 3.957-6.4955-.78-1.5916z" fill="#000"/><path d="M204.122 66.1646l13.718 27.9913 32.45 4.4892s11.608 19.2769 14.247 15.3159c2.638-3.961-10.026-20.5973-10.026-20.5973l-31.13-9.2424-9.762-20.3333-9.497 2.3766zM243.636 52.8576l13.719 27.9913 32.449 4.4892s19.733 6.4584 22.372 2.4974c2.638-3.9611-18.15-7.7788-18.15-7.7788l-31.131-9.2424-9.762-20.3333-9.497 2.3766z" fill="#C28E82"/><path d="M210.058 38.8335s-6.596 1.8485-8.179 7.9221c-1.583 6.0735 4.485 38.554 4.485 38.554s6.728-19.409 10.421-18.0887c0 0 .396-25.4827-6.727-28.3874zM238.418 35.7967s3.694-2.9047 6.86 1.0563c3.166 3.961 17.28 27.3311 17.28 27.3311s-20.71-1.9805-20.71-.6601l-3.43-27.7273z" fill="#FF9F46"/><g filter="url(#filter0_d)"><path d="M174.072 165.299c11.796-3.919 28.446-29.802 28.446-29.802s8.307 26.314 36.978 35.296c28.671 8.981-77.22-1.576-65.424-5.494z" fill="#fff"/><circle cx="143" cy="89" r="74" stroke="#fff" stroke-width="30"/><circle cx="259" cy="173" r="5" fill="#fff"/><path d="M146.564 51.6699v10.5957H134.65V51.6699h11.914zm1.368 18.9942V104.99h12.011c2.409 0 4.118.472 5.127 1.416 1.042.912 1.563 2.116 1.563 3.614 0 1.464-.521 2.669-1.563 3.613-1.009.911-2.718 1.367-5.127 1.367H125.91c-2.409 0-4.134-.456-5.176-1.367-1.009-.944-1.513-2.165-1.513-3.662 0-1.465.504-2.653 1.513-3.565 1.042-.944 2.767-1.416 5.176-1.416h12.012V80.6738h-8.057c-2.376 0-4.085-.4557-5.127-1.3672-1.041-.944-1.562-2.1647-1.562-3.6621 0-1.4648.504-2.653 1.513-3.5644 1.042-.944 2.767-1.416 5.176-1.416h18.067z" fill="#fff"/><path d="M146.564 51.6699h1v-1h-1v1zm0 10.5957v1h1v-1h-1zm-11.914 0h-1v1h1v-1zm0-10.5957v-1h-1v1h1zm13.282 18.9942h1v-1h-1v1zm0 34.3259h-1v1h1v-1zm17.138 1.416l-.683.731.012.011.013.011.658-.753zm0 7.227l.671.742.001-.001-.672-.741zm-44.336 0l-.683.73.012.011.013.011.658-.752zm0-7.227l.671.742.001-.001-.672-.741zm17.188-1.416v1h1v-1h-1zm0-24.3162h1v-1h-1v1zm-13.184-1.3672l-.671.741.006.0059.007.0057.658-.7526zm-.049-7.2265l.671.7421.001-.0011-.672-.741zm20.875-20.4102v10.5957h2V51.6699h-2zm1 9.5957H134.65v2h11.914v-2zm-10.914 1V51.6699h-2v10.5957h2zm-1-9.5957h11.914v-2H134.65v2zm12.282 17.9942V104.99h2V70.6641h-2zm1 35.3259h12.011v-2h-12.011v2zm12.011 0c2.329 0 3.717.466 4.444 1.147l1.366-1.461c-1.29-1.207-3.32-1.686-5.81-1.686v2zm4.469 1.169c.805.705 1.221 1.625 1.221 2.861h2c0-1.76-.626-3.248-1.904-4.366l-1.317 1.505zm1.221 2.861c0 1.196-.411 2.126-1.234 2.872l1.343 1.482c1.26-1.143 1.891-2.621 1.891-4.354h-2zm-1.233 2.871c-.728.657-2.122 1.109-4.457 1.109v2c2.484 0 4.507-.46 5.798-1.625l-1.341-1.484zM159.943 114H125.91v2h34.033v-2zm-34.033 0c-2.33 0-3.751-.45-4.517-1.12l-1.317 1.505c1.317 1.153 3.346 1.615 5.834 1.615v-2zm-4.492-1.097c-.789-.738-1.197-1.686-1.197-2.932h-2c0 1.748.601 3.242 1.83 4.392l1.367-1.46zm-1.197-2.932c0-1.207.402-2.117 1.184-2.823l-1.341-1.484c-1.236 1.117-1.843 2.584-1.843 4.307h2zm1.185-2.824c.765-.693 2.18-1.157 4.504-1.157v-2c-2.494 0-4.529.48-5.847 1.675l1.343 1.482zm4.504-1.157h12.012v-2H125.91v2zm13.012-1V80.6738h-2V104.99h2zm-1-25.3162h-8.057v2h8.057v-2zm-8.057 0c-2.293 0-3.701-.4481-4.468-1.1197l-1.317 1.5051c1.316 1.1513 3.326 1.6146 5.785 1.6146v-2zm-4.455-1.1081c-.818-.741-1.234-1.6853-1.234-2.9212h-2c0 1.759.625 3.2561 1.891 4.4031l1.343-1.4819zm-1.234-2.9212c0-1.2065.402-2.1163 1.184-2.8223l-1.341-1.4842c-1.236 1.1169-1.843 2.5834-1.843 4.3065h2zm1.185-2.8234c.765-.6932 2.18-1.157 4.504-1.157v-2c-2.494 0-4.529.4802-5.847 1.675l1.343 1.482zm4.504-1.157h18.067v-2h-18.067v2z" fill="#fff"/></g><path d="M85.2174 165.462c0 6.088-.3393 10.112-.3393 10.112s-8.6927.486-8.4495 8.55c.2432 8.063-33.7865 9.772-33.7865 9.772v-.243-1.828c-3.235.481-6.6963.872-8.6362.685.1301.628.2828 1.29.4299 1.878.1583.159 3.2915 3.328 3.1897 6.7.0566 1.698-.7126 3.441-3.2011 4.889-7.1826 4.199-29.5505 1.862-29.5505 1.862-3.3933-2.229-4.5245-4.125-4.4623-5.698-.1074-2.32 2.2057-3.961 4.3266-5.019a7.6309 7.6309 0 0 1 5.2936-.566c2.3951.531 4.8545.712 7.3014.537a11.311 11.311 0 0 0-.3789-1.437c-2.2962.651-3.8798 1.132-3.8798 1.132s-11.922-6.349-6.9564-16.608a8.3983 8.3983 0 0 1 3.3934-3.356c-3.8288-6.603-7.4654-14.378-7.1034-19.607.6051-8.726 17.9226-6.824 24.4096-5.8l12.5045-12.274c0-9.053-.2771-19.448.5655-21.7 1.4931-3.91.9954-3.396 1.9852-5.127l.0396-.062c.5655-.917 2.1039-2.371 2.4997-2.173a25.2537 25.2537 0 0 0-.0735-5.404 15.4108 15.4108 0 0 1-7.6666-5.5769 15.4257 15.4257 0 0 1-2.9546-9.0112 15.1037 15.1037 0 0 1 1.6967-6.9658l-.1697-.0735 1.6401-8.0692a1.3428 1.3428 0 0 0-.0735-1.0469c-.1697-.2263-.4581-.2942-.6786-.4526a1.562 1.562 0 0 1-.2659-1.9013 2.5927 2.5927 0 0 1 .6165-.7866c1.38-1.5674 4.3152-1.0072 6.1194-1.2392 2.4432-.3112 5.0052-.7639 7.3183.447a12.076 12.076 0 0 0 1.5553.8148 6.6903 6.6903 0 0 0 2.2622.2151 22.8342 22.8342 0 0 1 4.106.3678c1.7646-.6394 3.8402-.0736 5.4746.9054a12.0775 12.0775 0 0 1 4.405 4.725 12.0869 12.0869 0 0 1 1.3411 6.3206 23.42 23.42 0 0 1-.7861 4.0459l-3.0257 11.7982a7.6944 7.6944 0 0 1-1.1312 2.7614c-.1338.177-.2854.34-.4524.487a2.6189 2.6189 0 0 1-2.4093.916 1.6428 1.6428 0 0 1-.3337-.118c.1027 1.241.3436 2.467.7183 3.655 3.4612 1.007 8.4834 4.527 14.5123 14.712 7.7368 13.049 9.0263 32.288 9.0602 43.855z" fill="url(#paint0_linear)"/><path d="M55.1353 182.432H21.2922v-24.253h33.8431v24.253z" fill="#5F5D7E"/><path d="M29.6907 152.894s-25.2014-5.285-25.9196 5.285c-.7183 10.57 14.8799 31.688 14.8799 31.688l14.139-2.88-4.0777-16.331s16.0789-3.604 17.0404-3.842c.9614-.238-16.062-13.92-16.062-13.92z" fill="#5F5D7E"/><path opacity=".1" d="M29.6907 152.894s-25.2014-5.285-25.9196 5.285c-.7183 10.57 14.8799 31.688 14.8799 31.688l14.139-2.88-4.0777-16.331s16.0789-3.604 17.0404-3.842c.9614-.238-16.062-13.92-16.062-13.92z" fill="#E0DEFF"/><path d="M16.4849 192.759s2.398 4.561 1.6967 6.485c-.7013 1.923 17.0403-2.643 17.0403-2.643s-1.4422-5.523-1.199-6.224c.2432-.702-17.538 2.382-17.538 2.382z" fill="#5F5D7E"/><path d="M32.0887 161.54l-1.7646 1.596-1.1311 1.03s-5.763 9.365-13.2001 3.604c-7.4371-5.76 5.7743-10.072 8.4155-10.293a3.3117 3.3117 0 0 0 2.4885-1.805 7.9167 7.9167 0 0 0 .8709-2.263l4.3209 8.131z" fill="#FDC2CC"/><path opacity=".05" d="M32.0887 161.54l-1.7646 1.596-1.1311 1.03s-5.763 9.365-13.2001 3.604c-7.4371-5.76 5.7743-10.072 8.4155-10.293a3.3117 3.3117 0 0 0 2.4885-1.805 7.9167 7.9167 0 0 0 .8709-2.263l4.3209 8.131z" fill="#000"/><path opacity=".1" d="M16.4849 192.759s2.398 4.561 1.6967 6.485c-.7013 1.923 17.0403-2.643 17.0403-2.643s-1.4422-5.523-1.199-6.224c.2432-.702-17.538 2.382-17.538 2.382zM32.0887 161.54l-1.7646 1.596c0-3.078-2.0416-5.908-3.4386-7.498a7.917 7.917 0 0 0 .871-2.263l4.3322 8.165z" fill="#000"/><path d="M42.6477 137.287l-16.5596 16.569s5.7631 5.042 4.5584 10.327l12.0012-13.451v-13.445z" fill="#8066C9"/><path opacity=".1" d="M42.529 137.287v13.451l-1.923 2.156-5.7064 6.394-4.3719 4.9c1.199-5.285-4.5584-10.327-4.5584-10.327l16.5597-16.574z" fill="#8066C9"/><path d="M42.6477 113.51s0 5.042 4.3209 3.604c4.3209-1.437.9614 56.915.9614 56.915s-12.4819-9.365-10.0782-16.088c2.4036-6.722 2.8787-11.781 2.6524-18.492-.2262-6.711 2.1435-25.939 2.1435-25.939z" fill="#FF7474"/><path d="M42.8909 100.065s3.6026 9.846 0 17.293c-3.6026 7.446 21.3669-4.086 21.3669-4.086s-5.5199-2.642-3.6027-15.3686l-17.7642 2.1616z" fill="#FDC2CC"/><path opacity=".1" d="M40.7305 144.972a70.8725 70.8725 0 0 1 0 7.922l-5.7065 6.394a48.1104 48.1104 0 0 1 2.8278-5.189c.8879-1.375 1.0858-6.858 1.1311-13.117l2.0926-2.093c-.2206 3.378-.345 6.083-.345 6.083z" fill="#8066C9"/><path d="M44.4632 112.208c.2658-1.261-1.8155.64-2.4829 1.743l-.0339.063c-.9614 1.697-.4807 1.199-1.9229 5.041-1.4422 3.843.4808 31.689-1.6967 35.084a54.09 54.09 0 0 0-3.8401 7.446l3.8401-1.442s1.4422-4.324 2.398-5.286c.9558-.962.4807-9.846.4807-9.846s.7183-15.368 1.4422-18.73c.5712-2.704 1.2499-11.419 1.8155-14.073z" fill="#8066C9"/><path opacity=".1" d="M44.4632 112.208c.2658-1.261-1.8155.64-2.4829 1.743l-.0339.063c-.9614 1.697-.4807 1.199-1.9229 5.041-1.4422 3.843.4808 31.689-1.6967 35.084a54.09 54.09 0 0 0-3.8401 7.446l3.8401-1.442s1.4422-4.324 2.398-5.286c.9558-.962.4807-9.846.4807-9.846s.7183-15.368 1.4422-18.73c.5712-2.704 1.2499-11.419 1.8155-14.073z" fill="#8066C9"/><path d="M50.0905 172.105s-37.9209-1.443-42.7225 8.646c-4.8016 10.09 6.7189 16.337 6.7189 16.337s16.0789-5.042 19.6815-4.324c3.6027.719 16.3221-1.923 16.3221-1.923v-18.736z" fill="#E0DEFF"/><path d="M28.9668 165.863s-8.6417-4.804-13.4433-1.697c-4.8016 3.106-4.3209 11.526 2.3979 11.764 6.7189.238 10.3215-3.842 10.3215-3.842l.7239-6.225z" fill="#FDC2CC"/><path d="M56.0911 108.949s7.6803-5.285 18.9632 14.147c11.283 19.431 8.3986 52.828 8.3986 52.828s-8.3986.481-8.161 8.403c.2375 7.923-32.6442 9.62-32.6442 9.62s.4807-78.768 3.8402-80.918c3.3594-2.15 9.6032-4.08 9.6032-4.08z" fill="#8066C9"/><path opacity=".1" d="M56.125 123.277a10.5103 10.5103 0 0 0-3.2162 3.75 10.524 10.524 0 0 0-1.1499 4.805c-.0396 7.193-.2149 22.692-.9445 25.623-.9614 3.842-15.3606 8.884-22.8034 8.646 0 0-3.6026 6.722.7183 8.165 4.3209 1.443 30.7212 0 30.7212 0s10.3215-11.764 10.559-22.068c.2376-10.305 1.6967-21.854 0-24.015-1.3856-1.828-7.1826-9.637-13.8845-4.906z" fill="#000"/><path d="M55.6443 122.315a10.5129 10.5129 0 0 0-3.2345 3.751 10.5228 10.5228 0 0 0-1.1599 4.816c-.0396 7.192-.2149 22.691-.9445 25.622-.9614 3.842-15.3606 8.884-22.8033 8.646 0 0-3.6027 6.723.7182 8.166 4.3209 1.443 30.7212 0 30.7212 0s10.3215-11.764 10.559-22.069c.2376-10.304 1.6967-21.853 0-24.015-1.3573-1.816-7.1543-9.648-13.8562-4.917z" fill="#8066C9"/><path d="M6.0333 197.376c-3.4442 1.698-7.437 5.195.1301 10.508 0 0 21.5988 2.4 28.5608-1.924 6.9621-4.323 0-11.289 0-11.289s-15.9318 4.239-23.5782 2.168a7.2554 7.2554 0 0 0-5.1127.537z" fill="#4C4C56"/><path opacity=".1" d="M6.0333 197.863c-3.4442 1.641-7.437 4.968.1301 10.055 0 0 21.5988 2.298 28.5608-1.839 6.9621-4.136 0-10.796 0-10.796s-15.9318 4.051-23.5782 2.076a7.552 7.552 0 0 0-5.1127.504zM55.0109 140.286s-1.199 15.132-9.1225 18.493zM43.1284 101.746a30.822 30.822 0 0 1 1.4196 6.416c1.5157.51 3.7327-.769 5.4237-.769 4.4001 0 5.6556-4.923 8.3986-7.9221 0-1.3355 2.2622 1.7821 2.5224.1188l-17.7643 2.1563z" fill="#000"/><path d="M64.2578 92.1374a15.2089 15.2089 0 0 1-.4581 3.7233l-.0509.1924a15.2013 15.2013 0 0 1-6.6366 8.9929 15.1915 15.1915 0 0 1-10.9887 2.023 15.1994 15.1994 0 0 1-9.4007-6.042 15.211 15.211 0 0 1-2.731-10.8399 15.2072 15.2072 0 0 1 5.415-9.7784 15.1915 15.1915 0 0 1 10.6339-3.431 15.1933 15.1933 0 0 1 10.1043 4.7712 15.2092 15.2092 0 0 1 4.1128 10.3941v-.0056z" fill="#FDC2CC"/><path opacity=".1" d="M75.0486 123.356a57.119 57.119 0 0 0-5.3671-7.854 61.0349 61.0349 0 0 1 4.4057 6.654c11.2829 19.455 8.3986 52.829 8.3986 52.829s-8.3986.481-8.1611 8.403c.2149 7.113-26.2476 9.195-31.6714 9.546v1.256s32.8817-1.697 32.6442-9.619c-.2375-7.922 8.161-8.403 8.161-8.403s2.8561-33.358-8.4099-52.812z" fill="#000"/><path d="M62.3405 74.8616c-1.5835-.9563-3.5856-1.5165-5.2936-.8884a21.6975 21.6975 0 0 0-3.9589-.3622 6.36 6.36 0 0 1-2.1605-.2093 11.6082 11.6082 0 0 1-1.5044-.7979c-2.2339-1.1883-4.7111-.7413-7.0695-.4357-1.9172.249-5.1579-.447-6.2664 1.7485a1.557 1.557 0 0 0 .2545 1.8674c.2149.1584.4921.2206.6561.447a1.3424 1.3424 0 0 1 .0735 1.0298l-1.5836 7.9221a5.9478 5.9478 0 0 0 4.7112.215 13.2606 13.2606 0 0 0 1.2442-.5658c1.182.7695 2.4036.1867 3.8345.4923a4.371 4.371 0 0 1 2.1604 1.4146 12.5872 12.5872 0 0 1 3.2067 6.3886c.1584.8997.3677 2.0088 1.2386 2.2634.33.0635.665.0976 1.0011.1019 1.5722.2037 2.217 2.0654 3.2293 3.2933 1.2329 1.4938 3.4443 2.4668 3.58 4.4028.0339.498-.0735 1.046.2036 1.465.187.25.4619.42.7692.475.4843.069.978-.001 1.4243-.201a2.6043 2.6043 0 0 0 1.0981-.93 7.6426 7.6426 0 0 0 1.0689-2.711l2.9239-11.5998a23.3841 23.3841 0 0 0 .7635-3.9611 11.9452 11.9452 0 0 0-1.3069-6.2045 11.9372 11.9372 0 0 0-4.2978-4.66z" fill="#000" opacity=".1" filter="url(#filter1_d)"/><path d="M62.5611 74.6465c-1.5836-.9563-3.5856-1.5165-5.2936-.8884a21.6977 21.6977 0 0 0-3.959-.3621 6.3595 6.3595 0 0 1-2.1604-.2094 11.6076 11.6076 0 0 1-1.5044-.7978c-2.234-1.1883-4.7111-.7413-7.0695-.4358-1.9173.249-5.1579-.447-6.2664 1.7486a1.5567 1.5567 0 0 0 .2545 1.8673c.2149.1584.492.2207.656.447a1.3425 1.3425 0 0 1 .0736 1.0299l-1.5836 7.922a5.946 5.946 0 0 0 4.7111.2151c.4242-.1671.8395-.356 1.2442-.5659 1.1821.7696 2.4037.1867 3.8345.4923a4.3715 4.3715 0 0 1 2.1605 1.4147 12.5872 12.5872 0 0 1 3.2067 6.3886c.1584.8997.3676 2.0088 1.2386 2.2634.33.0635.665.0976 1.001.1019 1.5723.2037 2.217 2.0654 3.2294 3.2933 1.2329 1.4938 3.4443 2.4668 3.58 4.4028.0339.498-.0735 1.046.2036 1.465.187.25.4619.42.7692.475.4842.069.978-.001 1.4242-.202.4463-.2.827-.522 1.0981-.929a7.641 7.641 0 0 0 1.069-2.711l2.9239-11.5999a23.381 23.381 0 0 0 .7635-3.961 11.9453 11.9453 0 0 0-1.307-6.2045 11.9373 11.9373 0 0 0-4.2977-4.6601z" fill="#865A61"/><defs><filter id="filter0_d" x="51" y="0" width="220" height="215.19" filterUnits="userSpaceOnUse" color-interpolation-filters="sRGB"><feFlood flood-opacity="0" result="BackgroundImageFix"/><feColorMatrix in="SourceAlpha" values="0 0 0 0 0 0 0 0 0 0 0 0 0 0 0 0 0 0 127 0"/><feOffset dx="2" dy="5"/><feGaussianBlur stdDeviation="2.5"/><feColorMatrix values="0 0 0 0 0.223529 0 0 0 0 0.109804 0 0 0 0 0.372549 0 0 0 0.5 0"/><feBlend in2="BackgroundImageFix" result="effect1_dropShadow"/><feBlend in="SourceGraphic" in2="effect1_dropShadow" result="shape"/></filter><filter id="filter1_d" x="31.4877" y="71.8257" width="40.4797" height="41.3291" filterUnits="userSpaceOnUse" color-interpolation-filters="sRGB"><feFlood flood-opacity="0" result="BackgroundImageFix"/><feColorMatrix in="SourceAlpha" values="0 0 0 0 0 0 0 0 0 0 0 0 0 0 0 0 0 0 127 0"/><feOffset dy="4"/><feGaussianBlur stdDeviation="2"/><feColorMatrix values="0 0 0 0 0 0 0 0 0 0 0 0 0 0 0 0 0 0 0.25 0"/><feBlend in2="BackgroundImageFix" result="effect1_dropShadow"/><feBlend in="SourceGraphic" in2="effect1_dropShadow" result="shape"/></filter><linearGradient id="paint0_linear" x1=".4173" y1="138.849" x2="85.2174" y2="138.849" gradientUnits="userSpaceOnUse"><stop stop-color="gray" stop-opacity=".25"/><stop offset=".54" stop-color="gray" stop-opacity=".12"/><stop offset="1" stop-color="gray" stop-opacity=".1"/></linearGradient></defs></svg>