<svg viewBox="0 0 86 140" width="86" height="140" fill="none" xmlns="http://www.w3.org/2000/svg"><path d="M85.2174 96.4616c0 6.0884-.3393 10.1124-.3393 10.1124s-8.6927.486-8.4495 8.55c.2432 8.063-33.7865 9.772-33.7865 9.772v-.243-1.828c-3.235.481-6.6963.872-8.6362.685.1301.628.2828 1.29.4299 1.878.1583.159 3.2915 3.328 3.1897 6.7.0566 1.698-.7126 3.441-3.2011 4.889-7.1826 4.199-29.5505 1.862-29.5505 1.862-3.3933-2.229-4.5245-4.125-4.4623-5.698-.1074-2.32 2.2057-3.961 4.3266-5.019a7.6309 7.6309 0 0 1 5.2936-.566c2.3951.531 4.8545.712 7.3014.537a11.311 11.311 0 0 0-.3789-1.437c-2.2962.651-3.8798 1.132-3.8798 1.132s-11.922-6.349-6.9564-16.608a8.3983 8.3983 0 0 1 3.3934-3.356c-3.8288-6.603-7.4654-14.3784-7.1034-19.607.6051-8.7255 17.9226-6.8243 24.4096-5.8l12.5045-12.2736c0-9.0538-.2771-19.4486.5655-21.7008 1.4931-3.9101.9954-3.3951 1.9852-5.1267l.0396-.0622c.5655-.9167 2.1039-2.371 2.4998-2.1729a25.2608 25.2608 0 0 0-.0736-5.404 15.4123 15.4123 0 0 1-7.6666-5.5767 15.4257 15.4257 0 0 1-2.9546-9.0112 15.1037 15.1037 0 0 1 1.6967-6.9658l-.1697-.0735 1.6401-8.0692a1.3422 1.3422 0 0 0-.0735-1.0469c-.1697-.2263-.4581-.2942-.6786-.4526a1.562 1.562 0 0 1-.2659-1.9013 2.5903 2.5903 0 0 1 .6165-.7866C37.8631.2256 40.7983.7858 42.6025.5538c2.4432-.3112 5.0052-.764 7.3183.447.498.309 1.0178.5813 1.5553.8149a6.6926 6.6926 0 0 0 2.2622.215 22.836 22.836 0 0 1 4.106.3678c1.7646-.6394 3.8402-.0736 5.4746.9054a12.0783 12.0783 0 0 1 4.405 4.725 12.0868 12.0868 0 0 1 1.3411 6.3206 23.42 23.42 0 0 1-.7861 4.0459l-3.0257 11.7982a7.6908 7.6908 0 0 1-1.1312 2.7614 3.2536 3.2536 0 0 1-.4524.4867 2.6173 2.6173 0 0 1-2.4093.9166 1.6333 1.6333 0 0 1-.3337-.1188 16.7404 16.7404 0 0 0 .7183 3.6555c3.4612 1.0072 8.4834 4.5269 14.5123 14.7124 7.7368 13.0487 9.0263 32.288 9.0602 43.8542z" fill="url(#paint0_linear)"/><path d="M55.1353 113.432H21.2922V89.179h33.8431v24.253z" fill="#5F5D7E"/><path d="M29.6907 83.8939S4.4893 78.6087 3.7711 89.179c-.7183 10.5703 14.8799 31.688 14.8799 31.688l14.139-2.88-4.0777-16.331s16.0789-3.6043 17.0404-3.842c.9614-.2376-16.062-13.9201-16.062-13.9201z" fill="#5F5D7E"/><path opacity=".1" d="M29.6907 83.8939S4.4893 78.6087 3.7711 89.179c-.7183 10.5703 14.8799 31.688 14.8799 31.688l14.139-2.88-4.0777-16.331s16.0789-3.6043 17.0404-3.842c.9614-.2376-16.062-13.9201-16.062-13.9201z" fill="#E0DEFF"/><path d="M16.4849 123.759s2.398 4.561 1.6967 6.485c-.7013 1.924 17.0403-2.643 17.0403-2.643s-1.4422-5.523-1.199-6.224c.2432-.702-17.538 2.382-17.538 2.382z" fill="#5F5D7E"/><path d="M32.0887 92.5402l-1.7646 1.5958-1.1311 1.0298s-5.763 9.3652-13.2001 3.6046c-7.4371-5.7605 5.7743-10.0724 8.4155-10.293a3.3136 3.3136 0 0 0 1.466-.5965 3.3166 3.3166 0 0 0 1.0225-1.2086 7.9254 7.9254 0 0 0 .8709-2.2635l4.3209 8.1314z" fill="#FDC2CC"/><path opacity=".05" d="M32.0887 92.5402l-1.7646 1.5958-1.1311 1.0298s-5.763 9.3652-13.2001 3.6046c-7.4371-5.7605 5.7743-10.0724 8.4155-10.293a3.3136 3.3136 0 0 0 1.466-.5965 3.3166 3.3166 0 0 0 1.0225-1.2086 7.9254 7.9254 0 0 0 .8709-2.2635l4.3209 8.1314z" fill="#000"/><path opacity=".1" d="M16.4849 123.759s2.398 4.561 1.6967 6.485c-.7013 1.924 17.0403-2.643 17.0403-2.643s-1.4422-5.523-1.199-6.224c.2432-.702-17.538 2.382-17.538 2.382z" fill="#000"/><path opacity=".1" d="M32.0887 92.5402l-1.7646 1.5958c0-3.0783-2.0416-5.9077-3.4386-7.4977a7.9256 7.9256 0 0 0 .871-2.2635l4.3322 8.1654z" fill="#FF9F46"/><path d="M42.6477 68.2874L26.0881 84.8558s5.7631 5.0418 4.5584 10.327l12.0012-13.4506V68.2874z" fill="#FF9F46"/><path opacity=".1" d="M42.529 68.2874v13.4505l-1.923 2.1559-5.7064 6.3943-4.3719 4.9003c1.199-5.2851-4.5584-10.327-4.5584-10.327l16.5597-16.574z" fill="#FF9F46"/><path d="M42.6477 44.5099s0 5.0418 4.3209 3.6045c4.3209-1.4373.9614 56.9146.9614 56.9146s-12.4819-9.3653-10.0782-16.0877c2.4036-6.7224 2.8787-11.7812 2.6524-18.4923-.2262-6.7111 2.1435-25.9391 2.1435-25.9391z" fill="#FF7474"/><path d="M42.8909 31.065s3.6026 9.846 0 17.2928c-3.6026 7.4467 21.3669-4.0855 21.3669-4.0855s-5.5199-2.6426-3.6027-15.3689L42.8909 31.065z" fill="#FDC2CC"/><path opacity=".1" d="M40.7305 75.9718a70.8742 70.8742 0 0 1 0 7.9221l-5.7065 6.3942a48.109 48.109 0 0 1 2.8278-5.1889c.8879-1.3751 1.0858-6.8583 1.1311-13.1167l2.0926-2.0937c-.2206 3.3782-.345 6.083-.345 6.083z" fill="#FF9F46"/><path d="M44.4632 43.2084c.2658-1.2618-1.8155.6395-2.4829 1.7429l-.0339.0622c-.9614 1.6976-.4807 1.1996-1.9229 5.0418-1.4422 3.8422.4808 31.6882-1.6967 35.0834a54.0478 54.0478 0 0 0-3.8401 7.4468l3.8401-1.443s1.4422-4.3232 2.398-5.2851c.9558-.962.4807-9.846.4807-9.846s.7183-15.3688 1.4422-18.73c.5712-2.7048 1.2499-11.4191 1.8155-14.073z" fill="#FF9F46"/><path opacity=".1" d="M44.4632 43.2084c.2658-1.2618-1.8155.6395-2.4829 1.7429l-.0339.0622c-.9614 1.6976-.4807 1.1996-1.9229 5.0418-1.4422 3.8422.4808 31.6882-1.6967 35.0834a54.0478 54.0478 0 0 0-3.8401 7.4468l3.8401-1.443s1.4422-4.3232 2.398-5.2851c.9558-.962.4807-9.846.4807-9.846s.7183-15.3688 1.4422-18.73c.5712-2.7048 1.2499-11.4191 1.8155-14.073z" fill="#FF9F46"/><path d="M50.0905 103.105s-37.9209-1.443-42.7225 8.646c-4.8016 10.09 6.7189 16.337 6.7189 16.337s16.0789-5.042 19.6815-4.324c3.6027.719 16.3221-1.923 16.3221-1.923v-18.736z" fill="#E0DEFF"/><path d="M28.9668 96.8634s-8.6417-4.8042-13.4433-1.6976c-4.8016 3.1066-4.3209 11.5262 2.3979 11.7642 6.7189.238 10.3215-3.842 10.3215-3.842l.7239-6.2246z" fill="#FDC2CC"/><path d="M56.0911 39.9491s7.6803-5.2852 18.9632 14.1465c11.283 19.4317 8.3986 52.8284 8.3986 52.8284s-8.3986.481-8.161 8.403c.2375 7.923-32.6442 9.62-32.6442 9.62s.4807-78.7678 3.8402-80.9181c3.3594-2.1502 9.6032-4.0798 9.6032-4.0798z" fill="#FF9F46"/><path opacity=".1" d="M56.125 54.2767a10.5183 10.5183 0 0 0-3.2162 3.7501 10.5245 10.5245 0 0 0-1.1499 4.8057c-.0396 7.1921-.2149 22.691-.9445 25.6222-.9614 3.8422-15.3606 8.884-22.8034 8.6463 0 0-3.6026 6.722.7183 8.165 4.3209 1.443 30.7212 0 30.7212 0s10.3215-11.7638 10.559-22.0682c.2376-10.3043 1.6967-21.8535 0-24.0151-1.3856-1.8278-7.1826-9.6366-13.8845-4.906z" fill="#000"/><path d="M55.6443 53.3147a10.5185 10.5185 0 0 0-3.2345 3.7509 10.5242 10.5242 0 0 0-1.1599 4.8162c-.0396 7.1921-.2149 22.6911-.9445 25.6223-.9614 3.8422-15.3606 8.884-22.8033 8.6463 0 0-3.6027 6.7226.7182 8.1656 4.3209 1.443 30.7212 0 30.7212 0s10.3215-11.7645 10.559-22.0688c.2376-10.3044 1.6967-21.8536 0-24.0152-1.3573-1.8164-7.1543-9.6479-13.8562-4.9173z" fill="#FF9F46"/><path d="M6.0333 128.376c-3.4442 1.698-7.437 5.195.1301 10.508 0 0 21.5988 2.4 28.5608-1.924 6.9621-4.323 0-11.289 0-11.289s-15.9318 4.239-23.5782 2.168a7.2554 7.2554 0 0 0-5.1127.537z" fill="#4C4C56"/><path opacity=".1" d="M6.0333 128.863c-3.4442 1.641-7.437 4.968.1301 10.055 0 0 21.5988 2.298 28.5608-1.839 6.9621-4.136 0-10.796 0-10.796s-15.9318 4.051-23.5782 2.076a7.552 7.552 0 0 0-5.1127.504zM55.0109 71.2865s-1.199 15.1311-9.1225 18.4923l9.1225-18.4923zM43.1284 32.7456a30.8274 30.8274 0 0 1 1.4196 6.4169c1.5157.5093 3.7327-.7696 5.4237-.7696 4.4001 0 5.6556-4.923 8.3986-7.922 0-1.3355 2.2622 1.7824 2.5224.1188l-17.7643 2.1559z" fill="#000"/><path d="M64.2578 23.1374a15.2089 15.2089 0 0 1-.4581 3.7233l-.0509.1924a15.2045 15.2045 0 0 1-6.6366 8.9933 15.1902 15.1902 0 0 1-10.9887 2.0224 15.1958 15.1958 0 0 1-9.4007-6.0418 15.211 15.211 0 0 1-2.731-10.8399 15.2072 15.2072 0 0 1 5.415-9.7784 15.1914 15.1914 0 0 1 10.6339-3.431A15.1933 15.1933 0 0 1 60.145 12.749a15.2092 15.2092 0 0 1 4.1128 10.3941v-.0056z" fill="#FDC2CC"/><path opacity=".1" d="M75.0486 54.3559a57.1513 57.1513 0 0 0-5.3671-7.8542 61.138 61.138 0 0 1 4.4057 6.6545c11.2829 19.4544 8.3986 52.8288 8.3986 52.8288s-8.3986.481-8.1611 8.403c.2149 7.113-26.2476 9.195-31.6713 9.546v1.256s32.8816-1.697 32.6441-9.619c-.2375-7.922 8.161-8.403 8.161-8.403s2.8561-33.3578-8.4099-52.8121z" fill="#000"/><path d="M62.3405 5.8616c-1.5835-.9563-3.5856-1.5165-5.2936-.8884a21.6948 21.6948 0 0 0-3.9589-.3622 6.3596 6.3596 0 0 1-2.1605-.2093 11.6116 11.6116 0 0 1-1.5044-.7979c-2.2339-1.1883-4.7111-.7413-7.0695-.4357-1.9172.249-5.1579-.447-6.2664 1.7485a1.5567 1.5567 0 0 0 .2545 1.8673c.2149.1585.4921.2207.6561.447a1.3425 1.3425 0 0 1 .0735 1.03l-1.5836 7.922a5.9478 5.9478 0 0 0 4.7112.215 13.2606 13.2606 0 0 0 1.2442-.5658c1.182.7695 2.4036.1867 3.8345.4923a4.371 4.371 0 0 1 2.1604 1.4146 12.5872 12.5872 0 0 1 3.2067 6.3886c.1584.8997.3677 2.0088 1.2386 2.2634.33.0635.665.0976 1.0011.1019 1.5722.2037 2.217 2.0654 3.2293 3.2933 1.2329 1.4939 3.4443 2.4671 3.58 4.4024.0339.4979-.0735 1.0468.2036 1.4656.187.2501.4619.42.7692.4753a2.5955 2.5955 0 0 0 2.5224-1.1317 7.638 7.638 0 0 0 1.0689-2.7105l2.9239-11.6001a23.3841 23.3841 0 0 0 .7635-3.9611 11.9452 11.9452 0 0 0-1.3069-6.2045 11.9373 11.9373 0 0 0-4.2978-4.66z" fill="#000" opacity=".1" filter="url(#filter0_d)"/><path d="M62.5611 5.6466c-1.5836-.9563-3.5856-1.5165-5.2936-.8884a21.695 21.695 0 0 0-3.959-.3622 6.3592 6.3592 0 0 1-2.1604-.2094 11.6116 11.6116 0 0 1-1.5044-.7978c-2.234-1.1883-4.7111-.7413-7.0695-.4357-1.9173.249-5.1579-.447-6.2664 1.7485a1.5569 1.5569 0 0 0 .2545 1.8673c.2149.1585.492.2207.656.447.0797.1583.1272.3309.1399.5076.0126.1768-.01.3543-.0663.5223l-1.5836 7.9221a5.9478 5.9478 0 0 0 4.7111.215c.4242-.1671.8395-.356 1.2442-.5659 1.1821.7696 2.4037.1868 3.8345.4923a4.3722 4.3722 0 0 1 2.1605 1.4147 12.5872 12.5872 0 0 1 3.2067 6.3886c.1584.8997.3676 2.0088 1.2386 2.2634.33.0635.665.0976 1.001.1019 1.5723.2037 2.217 2.0654 3.2294 3.2933 1.2329 1.4939 3.4443 2.4671 3.58 4.4024.0339.4979-.0735 1.0468.2036 1.4656.187.2502.4619.42.7692.4753a2.5952 2.5952 0 0 0 2.5223-1.1317 7.6363 7.6363 0 0 0 1.069-2.7105l2.9239-11.6002a23.381 23.381 0 0 0 .7635-3.961 11.9453 11.9453 0 0 0-1.307-6.2045 11.937 11.937 0 0 0-4.2977-4.66z" fill="#56383D"/><defs><filter id="filter0_d" x="31.4877" y="2.8257" width="40.4797" height="41.3291" filterUnits="userSpaceOnUse" color-interpolation-filters="sRGB"><feFlood flood-opacity="0" result="BackgroundImageFix"/><feColorMatrix in="SourceAlpha" values="0 0 0 0 0 0 0 0 0 0 0 0 0 0 0 0 0 0 127 0"/><feOffset dy="4"/><feGaussianBlur stdDeviation="2"/><feColorMatrix values="0 0 0 0 0 0 0 0 0 0 0 0 0 0 0 0 0 0 0.25 0"/><feBlend in2="BackgroundImageFix" result="effect1_dropShadow"/><feBlend in="SourceGraphic" in2="effect1_dropShadow" result="shape"/></filter><linearGradient id="paint0_linear" x1=".4173" y1="69.8492" x2="85.2174" y2="69.8492" gradientUnits="userSpaceOnUse"><stop stop-color="gray" stop-opacity=".25"/><stop offset=".54" stop-color="gray" stop-opacity=".12"/><stop offset="1" stop-color="gray" stop-opacity=".1"/></linearGradient></defs></svg>