<svg viewBox="0 0 19 28" width="19" height="28" fill="none" xmlns="http://www.w3.org/2000/svg"><path fill-rule="evenodd" clip-rule="evenodd" d="M7.7188 19.421c0 1.263 1.3217 2.0536 2.2582 1.206 1.9811-1.7932 3.2265-4.3909 3.2265-7.2809 0-2.89-1.2454-5.4877-3.2265-7.281-.9365-.8475-2.2583-.057-2.2583 1.2062 0 .511.2382.9864.592 1.3551 1.1707 1.2205 1.8928 2.8824 1.8928 4.7197 0 1.8373-.722 3.4992-1.8929 4.7197-.3537.3688-.5919.8442-.5919 1.3552z" fill="#A1A0E0"/><path fill-rule="evenodd" clip-rule="evenodd" d="M10.0938 25.6786c0 1.1969 1.2563 1.9554 2.2223 1.2488C16.3606 23.9692 19 19.1024 19 13.5998S16.3606 3.2303 12.3161.2722c-.966-.7066-2.2223.0519-2.2223 1.2487 0 .5377.2731 1.0343.6997 1.3617C13.9377 5.2958 16 9.1704 16 13.5998s-2.0623 8.304-5.2065 10.7172c-.4266.3274-.6997.8239-.6997 1.3616z" fill="#A1A0E0"/><circle cx="2.9688" cy="13.6431" r="2.9688" fill="#fff"/></svg>