<svg viewBox="0 0 100 100" width="100" height="100" fill="none" xmlns="http://www.w3.org/2000/svg"><circle cx="50" cy="50" r="50" fill="#3F2E83" filter="url(#filter0_i)"/><path fill-rule="evenodd" clip-rule="evenodd" d="M60.379 48.6127c-1.6292-.6854-2.1791-3.3022-1.281-4.8245.9193-1.558 1.4466-3.3747 1.4466-5.3145C60.5446 32.6892 55.8554 28 50.071 28s-10.4737 4.6892-10.4737 10.4737c0 2.0263.5755 3.9182 1.5719 5.5213.9329 1.5009.4434 4.1289-1.1693 4.8516-8.1055 3.6322-13.9779 11.3564-14.9887 20.5442-.1233 1.1211.7893 2.0554 1.9172 2.0554H73.989c1.1279 0 2.0405-.9344 1.9171-2.0555-1.033-9.39-7.144-17.2513-15.5271-20.778z" fill="#fff"/><defs><filter id="filter0_i" x="0" y="0" width="100" height="104" filterUnits="userSpaceOnUse" color-interpolation-filters="sRGB"><feFlood flood-opacity="0" result="BackgroundImageFix"/><feBlend in="SourceGraphic" in2="BackgroundImageFix" result="shape"/><feColorMatrix in="SourceAlpha" values="0 0 0 0 0 0 0 0 0 0 0 0 0 0 0 0 0 0 127 0" result="hardAlpha"/><feOffset dy="7"/><feGaussianBlur stdDeviation="2"/><feComposite in2="hardAlpha" operator="arithmetic" k2="-1" k3="1"/><feColorMatrix values="0 0 0 0 0.1485 0 0 0 0 0 0 0 0 0 0.3375 0 0 0 0.25 0"/><feBlend in2="shape" result="effect1_innerShadow"/></filter></defs></svg>