<svg viewBox="0 0 50 50" width="" height="44" fill="none" xmlns="http://www.w3.org/2000/svg"><path fill-rule="evenodd" clip-rule="evenodd" d="M35.379 20.6127c-1.6292-.6854-2.1791-3.3022-1.281-4.8245.9193-1.558 1.4466-3.3747 1.4466-5.3145C35.5446 4.6892 30.8554 0 25.071 0S14.5973 4.6892 14.5973 10.4737c0 2.0263.5755 3.9182 1.5719 5.5213.9329 1.5009.4434 4.1289-1.1693 4.8516C6.8943 24.4788 1.0219 32.203.0112 41.3908c-.1233 1.1211.7893 2.0554 1.9172 2.0554H48.989c1.1279 0 2.0405-.9344 1.9171-2.0555-1.033-9.39-7.144-17.2513-15.5271-20.778z" fill="#fff"/></svg>