<svg viewBox="0 0 70 70" width="70" height="70" fill="none" xmlns="http://www.w3.org/2000/svg"><circle cx="35" cy="35" r="35" fill="#3F2E83" filter="url(#filter0_i)"/><g clip-path="url(#clip0)"><path opacity=".1" d="M33.1262 60.2c8.4255 0 15.2558-1.1335 15.2558-2.5316 0-1.3982-6.8303-2.5317-15.2558-2.5317s-15.2557 1.1335-15.2557 2.5317c0 1.3981 6.8302 2.5316 15.2557 2.5316z" fill="#F9A826"/><path d="M23.5594 56.3929s-.8996-3.0476.1686-5.2907a4.8042 4.8042 0 0 0 .3903-3.0198 8.0803 8.0803 0 0 0-.4284-1.4174" stroke="#535461" stroke-width="2" stroke-miterlimit="10"/><path d="M24.3544 45.2484c0 .3735-.6779 1.4564-.6779 1.4564s-.678-1.0829-.678-1.4564a.6762.6762 0 0 1 .414-.6419.6782.6782 0 0 1 .5275 0 .6786.6786 0 0 1 .3678.3773.6761.6761 0 0 1 .0461.2646h.0005zM25.4747 47.3175c-.2037.3133-1.3636.8551-1.3636.8551s.0211-1.2769.2242-1.5902a.6784.6784 0 0 1 .9285-.1866.6752.6752 0 0 1 .2093.9217h.0016zM25.4257 50.8527c-.3341.1683-1.6085.0515-1.6085.0515s.664-1.0917.9981-1.2599a.678.678 0 0 1 .5221-.0454.6777.6777 0 0 1 .4695.5968.6753.6753 0 0 1-.1682.4954.6782.6782 0 0 1-.213.1611v.0005zM24.7849 53.5199c-.3011.2222-1.5765.3225-1.5765.3225s.4696-1.1879.7707-1.4101a.6788.6788 0 0 1 .9626.1308.675.675 0 0 1 .0287.7624.6778.6778 0 0 1-.1855.1944zM22.6892 48.245c.2686.2603 1.5193.5299 1.5193.5299s-.3062-1.2398-.5748-1.5001a.6796.6796 0 0 0-.4855-.2023.677.677 0 0 0-.6757.6941.6767.6767 0 0 0 .2167.4784zM21.9798 51.373c.3341.1682 1.6085.0514 1.6085.0514s-.663-1.0906-.9981-1.2589a.6798.6798 0 0 0-.5221-.0454.6787.6787 0 0 0-.3985.3397.6757.6757 0 0 0-.0368.5217.6773.6773 0 0 0 .347.392v-.0005zM21.7082 54.5081c.301.2223 1.5765.3226 1.5765.3226s-.4697-1.1879-.7708-1.4101a.6775.6775 0 0 0-.5089-.1373.6783.6783 0 0 0-.5674.5113.6753.6753 0 0 0 .2706.7135z" fill="#F9A826"/><path opacity=".1" d="M24.3544 45.2484c0 .3735-.6779 1.4564-.6779 1.4564s-.678-1.0829-.678-1.4564a.6762.6762 0 0 1 .414-.6419.6782.6782 0 0 1 .5275 0 .6786.6786 0 0 1 .3678.3773.6761.6761 0 0 1 .0461.2646h.0005zM25.4747 47.3175c-.2037.3133-1.3636.8551-1.3636.8551s.0211-1.2769.2242-1.5902a.6784.6784 0 0 1 .9285-.1866.6752.6752 0 0 1 .2093.9217h.0016zM25.4257 50.8527c-.3341.1683-1.6085.0515-1.6085.0515s.664-1.0917.9981-1.2599a.678.678 0 0 1 .5221-.0454.6777.6777 0 0 1 .4695.5968.6753.6753 0 0 1-.1682.4954.6782.6782 0 0 1-.213.1611v.0005zM24.7849 53.5199c-.3011.2222-1.5765.3225-1.5765.3225s.4696-1.1879.7707-1.4101a.6788.6788 0 0 1 .9626.1308.675.675 0 0 1 .0287.7624.6778.6778 0 0 1-.1855.1944zM22.6892 48.245c.2686.2603 1.5193.5299 1.5193.5299s-.3062-1.2398-.5748-1.5001a.6796.6796 0 0 0-.4855-.2023.677.677 0 0 0-.6757.6941.6767.6767 0 0 0 .2167.4784zM21.9798 51.373c.3341.1682 1.6085.0514 1.6085.0514s-.663-1.0906-.9981-1.2589a.6798.6798 0 0 0-.5221-.0454.6787.6787 0 0 0-.3985.3397.6757.6757 0 0 0-.0368.5217.6773.6773 0 0 0 .347.392v-.0005zM21.7082 54.5081c.301.2223 1.5765.3226 1.5765.3226s-.4697-1.1879-.7708-1.4101a.6775.6775 0 0 0-.5089-.1373.6783.6783 0 0 0-.5674.5113.6753.6753 0 0 0 .2706.7135z" fill="#F9A826"/><path d="M41.3872 56.191s-.8996-3.0477.1686-5.2907c.454-.938.591-1.9976.3902-3.0199a8.0884 8.0884 0 0 0-.4284-1.4163" stroke="#535461" stroke-width="2" stroke-miterlimit="10"/><path d="M42.1821 45.0451c0 .3735-.6779 1.4564-.6779 1.4564s-.6779-1.0829-.6779-1.4564a.6758.6758 0 0 1 .2049-.4663.6787.6787 0 0 1 .9455 0 .6758.6758 0 0 1 .2049.4663h.0005zM43.3024 47.1137c-.2036.3133-1.3621.855-1.3621.855s.0212-1.2769.2243-1.5902a.6778.6778 0 0 1 .6964-.3122.678.678 0 0 1 .546.5325.6773.6773 0 0 1-.1046.5149zM43.2534 50.6497c-.334.1682-1.6084.0514-1.6084.0514s.664-1.0917.998-1.2599a.6793.6793 0 0 1 .5127-.0316.6772.6772 0 0 1 .3877.3361.675.675 0 0 1 .0403.511.677.677 0 0 1-.3303.3925v.0005zM42.6126 53.316c-.3011.2222-1.5765.3226-1.5765.3226s.4696-1.1879.7707-1.4102a.6785.6785 0 0 1 .9335.1524.6757.6757 0 0 1-.1277.9352zM40.5169 48.0414c.2686.2603 1.5193.5299 1.5193.5299s-.3062-1.2399-.5748-1.5002a.6789.6789 0 0 0-.9473.0247.6757.6757 0 0 0 .0028.9456zM39.8076 51.1697c.334.1682 1.6085.0514 1.6085.0514s-.6641-1.0912-.9981-1.2589a.6793.6793 0 0 0-.5127-.0316.6772.6772 0 0 0-.3877.3361.6749.6749 0 0 0-.0403.511.677.677 0 0 0 .3303.3925v-.0005zM39.5359 54.3043c.3011.2222 1.5765.3225 1.5765.3225s-.4697-1.1878-.7707-1.4101a.6788.6788 0 0 0-.9335.1523.676.676 0 0 0 .1277.9353z" fill="#F9A826"/><path opacity=".1" d="M42.1821 45.0451c0 .3735-.6779 1.4564-.6779 1.4564s-.6779-1.0829-.6779-1.4564a.6758.6758 0 0 1 .2049-.4663.6787.6787 0 0 1 .9455 0 .6758.6758 0 0 1 .2049.4663h.0005zM43.3024 47.1137c-.2036.3133-1.3621.855-1.3621.855s.0212-1.2769.2243-1.5902a.6778.6778 0 0 1 .6964-.3122.678.678 0 0 1 .546.5325.6773.6773 0 0 1-.1046.5149zM43.2534 50.6497c-.334.1682-1.6084.0514-1.6084.0514s.664-1.0917.998-1.2599a.6793.6793 0 0 1 .5127-.0316.6772.6772 0 0 1 .3877.3361.675.675 0 0 1 .0403.511.677.677 0 0 1-.3303.3925v.0005zM42.6126 53.316c-.3011.2222-1.5765.3226-1.5765.3226s.4696-1.1879.7707-1.4102a.6785.6785 0 0 1 .9335.1524.6757.6757 0 0 1-.1277.9352zM40.5169 48.0414c.2686.2603 1.5193.5299 1.5193.5299s-.3062-1.2399-.5748-1.5002a.6789.6789 0 0 0-.9473.0247.6757.6757 0 0 0 .0028.9456zM39.8076 51.1697c.334.1682 1.6085.0514 1.6085.0514s-.6641-1.0912-.9981-1.2589a.6793.6793 0 0 0-.5127-.0316.6772.6772 0 0 0-.3877.3361.6749.6749 0 0 0-.0403.511.677.677 0 0 0 .3303.3925v-.0005zM39.5359 54.3043c.3011.2222 1.5765.3225 1.5765.3225s-.4697-1.1878-.7707-1.4101a.6788.6788 0 0 0-.9335.1523.676.676 0 0 0 .1277.9353z" fill="#F9A826"/><path d="M17.0539 50.1655s1.0826 2.117.2 3.2756c-.8826 1.1585.0799 4.3142.0799 4.3142" stroke="#F9A826" stroke-miterlimit="10"/><path d="M17.374 49.5066c0 .4079-.3.7387-.3.7387s-.3-.3308-.3-.7387c0-.408.3-.7388.3-.7388s.3.3303.3.7388z" fill="#F9A826"/><path d="M17.6153 50.1655s-1.0826 2.117-.2 3.2756c.8826 1.1585-.0799 4.3142-.0799 4.3142" stroke="#F9A826" stroke-miterlimit="10"/><path d="M17.2941 49.5066c0 .4079.3001.7387.3001.7387s.3-.3308.3-.7387c0-.408-.3-.7388-.3-.7388s-.3001.3303-.3001.7388z" fill="#F9A826"/><path opacity=".1" d="M17.2941 49.5066c0 .4079.3001.7387.3001.7387s.3-.3308.3-.7387c0-.408-.3-.7388-.3-.7388s-.3001.3303-.3001.7388z" fill="#000"/><path d="M18.0546 50.1655s1.0826 2.117.2 3.2756c-.8826 1.1585.0825 4.3142.0825 4.3142" stroke="#F9A826" stroke-miterlimit="10"/><path d="M18.3747 49.5066c0 .4079-.3.7387-.3.7387s-.3001-.3308-.3001-.7387c0-.408.3001-.7388.3001-.7388s.3.3303.3.7388zM18.2066 51.2027c-.2835.2943-.73.3246-.73.3246s.0134-.446.297-.7403c.2835-.2942.73-.3246.73-.3246s-.0119.446-.297.7403zM18.234 52.6632c-.2836.2942-.73.3246-.73.3246s.0134-.4461.2969-.7403c.2836-.2943.73-.3246.73-.3246s-.0129.446-.2969.7403zM16.6971 53.4668c.2681.3087.2578.7542.2578.7542s-.4439-.0514-.7119-.3601c-.2681-.3087-.2578-.7542-.2578-.7542s.4444.0519.7119.3601zM16.9451 50.3518c.3408.2253.4516.658.4516.658s-.4423.0669-.7831-.1585c-.3407-.2253-.4516-.6579-.4516-.6579s.4429-.0669.7831.1584z" fill="#F9A826"/><path opacity=".1" d="M16.9451 50.3518c.3408.2253.4516.658.4516.658s-.4423.0669-.7831-.1585c-.3407-.2253-.4516-.6579-.4516-.6579s.4429-.0669.7831.1584z" fill="#000"/><path d="M18.6149 50.1655s-1.0826 2.117-.2 3.2756c.8826 1.1585-.0778 4.3142-.0778 4.3142" stroke="#F9A826" stroke-miterlimit="10"/><path d="M18.2948 49.5066c0 .408.3.7388.3.7388s.3001-.3308.3001-.7388c0-.408-.3001-.7393-.3001-.7393s-.3.3308-.3.7393z" fill="#F9A826"/><path opacity=".1" d="M18.2948 49.5066c0 .408.3.7388.3.7388s.3001-.3308.3001-.7388c0-.408-.3001-.7393-.3001-.7393s-.3.3308-.3.7393z" fill="#000"/><path d="M18.3809 51.2341c-.2872.2907-.3057.7367-.3057.7367s.4464-.0252.7336-.3159c.2871-.2907.3057-.7367.3057-.7367s-.4465.0252-.7336.3159z" fill="#F9A826"/><path opacity=".1" d="M18.3809 51.2341c-.2872.2907-.3057.7367-.3057.7367s.4464-.0252.7336-.3159c.2871-.2907.3057-.7367.3057-.7367s-.4465.0252-.7336.3159z" fill="#000"/><path d="M18.9438 53.2548c-.2871.2907-.3057.7367-.3057.7367s.4465-.0252.7336-.3159c.2872-.2907.3058-.7357.3058-.7357s-.4465.0258-.7337.3149z" fill="#F9A826"/><path d="M18.1159 52.8117s.6506-1.0232 1.5616-1.0453M17.6091 52.194s-.6506-1.0232-1.5636-1.0453M17.5246 53.6545s.6506-1.0232 1.5636-1.0454" stroke="#F9A826" stroke-miterlimit="10"/><path d="M19.6501 51.9276a.169.169 0 0 0 .1691-.1688.1689.1689 0 0 0-.1691-.1687.169.169 0 0 0-.1691.1687.169.169 0 0 0 .1691.1688zM16.0615 51.3236a.169.169 0 0 0 .1691-.1688.1689.1689 0 0 0-.1691-.1687.1689.1689 0 0 0-.1691.1687.169.169 0 0 0 .1691.1688z" fill="#F9A826"/><path d="M18.003 53.9914s-.6506-1.0232-1.5636-1.0454" stroke="#F9A826" stroke-miterlimit="10"/><path d="M16.4554 53.1212a.169.169 0 0 0 .1691-.1688.1689.1689 0 0 0-.1691-.1687.1689.1689 0 0 0-.1691.1687.169.169 0 0 0 .1691.1688zM19.1011 52.784a.1689.1689 0 0 0 .1691-.1687.169.169 0 0 0-.1691-.1688.169.169 0 0 0-.1691.1688c0 .0932.0757.1687.1691.1687z" fill="#F9A826"/><path d="M21.5994 56.5257s-1.5678-.3128-1.9859-.7301c-.4181-.4172-2.2993-1.1472-2.5086-.6255-.2093.5216-2.822 2.2944-1.0449 2.6077 1.777.3133 4.1809.4173 4.7032.2084.5222-.2089.8362-1.4605.8362-1.4605z" fill="#A8A8A8"/><path opacity=".2" d="M16.0599 57.5835c1.7771.3127 4.181.4172 4.7033.2083.398-.159.6743-.9219.7841-1.2774l.0516.0108s-.313 1.2522-.8357 1.4626c-.5228.2104-2.9267.1029-4.7033-.2083-.5129-.0906-.6593-.3025-.6042-.5711.0459.1734.2222.3082.6042.3751z" fill="#000"/><path d="M47.7602 52.7429s.5156.6755-.2387 1.6977c-.7542 1.0223-1.3801 1.8809-1.128 2.5163 0 0 1.1414-1.8938 2.0704-1.9205.929-.0268.3181-1.1545-.7037-2.2935z" fill="#F9A826"/><path opacity=".1" d="M47.7602 52.7429a.8374.8374 0 0 1 .1057.212c.9063 1.0628 1.3894 2.0547.5156 2.0794-.8115.0232-1.7853 1.4714-2.0184 1.8371a.7697.7697 0 0 0 .0279.0834s1.1414-1.8937 2.0704-1.9205c.929-.0267.3206-1.1524-.7012-2.2914z" fill="#000"/><path d="M48.7222 53.6041c0 .2377-.0268.4306-.0598.4306s-.0598-.1929-.0598-.4306c0-.2376.0335-.126.0665-.126s.0531-.1116.0531.126z" fill="#FFD037"/><path d="M49.0527 53.8881c-.2093.1137-.3913.1826-.4073.1543-.016-.0283.1407-.1445.35-.2572.2093-.1127.1269-.0309.1423 0 .0155.0309.1238-.0113-.085.1029z" fill="#FFD037"/><path d="M45.0263 52.7429s-.5155.6755.2387 1.6977c.7543 1.0223 1.3801 1.8809 1.128 2.5163 0 0-1.1414-1.8938-2.0704-1.9205-.929-.0268-.3186-1.1545.7037-2.2935z" fill="#F9A826"/><path opacity=".1" d="M45.0263 52.7429a.8338.8338 0 0 0-.1056.212c-.9064 1.0628-1.3894 2.0547-.5156 2.0794.8115.0232 1.7853 1.4714 2.0183 1.8371a.7915.7915 0 0 1-.0278.0834s-1.1414-1.8937-2.0704-1.9205c-.929-.0267-.3212-1.1524.7011-2.2914z" fill="#000"/><path d="M44.0623 53.6041c0 .2377.0268.4306.0598.4306s.0598-.1929.0598-.4306c0-.2376-.0335-.126-.0665-.126s-.0531-.1116-.0531.126z" fill="#FFD037"/><path d="M43.7339 53.8881c.2093.1137.3913.1826.4072.1543.016-.0283-.1407-.1445-.35-.2572-.2093-.1127-.1268-.0309-.1423 0-.0155.0309-.1242-.0113.0851.1029z" fill="#FFD037"/><path d="M44.2288 56.8663s1.4471-.0443 1.8833-.3545c.4361-.3102 2.226-.6801 2.3343-.1831.1083.4969 2.175 2.4719.5408 2.4853-1.6343.0134-3.7964-.2541-4.2315-.5185-.4351-.2645-.5269-1.4292-.5269-1.4292z" fill="#A8A8A8"/><path opacity=".2" d="M49.0166 58.6412c-1.6337.0134-3.7964-.2541-4.2315-.5186-.3315-.2016-.464-.926-.5078-1.2583h-.0485s.0913 1.1667.5269 1.4322c.4356.2655 2.5978.532 4.2315.5186.4717-.0036.6346-.1713.6254-.4193-.065.1492-.2449.2428-.596.2454z" fill="#000"/><path d="M36.2246 30.0897l-1.5847 4.4708 7.2899 2.5733 1.5847-4.4708-7.2899-2.5733z" fill="url(#paint0_linear)"/><path d="M36.2748 30.2325l-1.479 4.1725 7.043 2.4861 1.479-4.1725-7.043-2.4861z" fill="#F4F6F7"/><g opacity=".6" fill="#F9A826"><path opacity=".6" d="M36.2324 31.3235l.8963.3164.2345-.6616-.8963-.3163-.2345.6615zM36.5107 32.8705l3.4406 1.2145.076-.2144-3.4406-1.2145-.076.2144zM37.3119 33.8382l2.5015.8764.0502-.1427-2.5015-.8763-.0502.1426z"/></g><path d="M47.0689 28.3126l-7.2126 2.7816 1.7131 4.4235 7.2126-2.7817-1.7131-4.4234z" fill="url(#paint1_linear)"/><path d="M46.9561 28.4827l-6.9684 2.6875 1.5988 4.1283 6.9684-2.6874-1.5988-4.1284z" fill="#fff"/><g opacity=".6" fill="#F9A826"><path opacity=".6" d="M40.6644 32.0182l.8867-.3419-.2535-.6546-.8867.342.2535.6545zM41.8854 33.0118l3.4041-1.3128-.0821-.2121-3.4041 1.3128.0821.2121zM42.9854 33.116l2.4822-.9573-.0548-.1416-2.4823.9574.0549.1415z"/></g><path d="M36.0903 25.4537l-.6416 4.6989 7.6617 1.0419.6416-4.6989-7.6617-1.0419z" fill="url(#paint2_linear)"/><path d="M36.3472 25.6584l-.6209 4.3816 7.3959 1.0437.6209-4.3816-7.3959-1.0437z" fill="#fff"/><g opacity=".6" fill="#F9A826"><path opacity=".6" d="M36.349 26.6595l.9419.1281.095-.6953-.942-.1281-.0949.6953zM36.9367 28.1176l3.616.4918.0308-.2253-3.616-.4918-.0308.2253zM37.8493 28.7398l2.6368.3586.0205-.1504-2.6368-.3586-.0205.1504z"/></g><path d="M23.9474 33.2335l-.6417 4.6989 7.6617 1.0419.6417-4.6989-7.6617-1.0419z" fill="url(#paint3_linear)"/><path d="M24.0263 33.3632l-.5989 4.3853 7.4023 1.0066.5988-4.3853-7.4022-1.0066z" fill="#fff"/><g opacity=".6" fill="#F9A826"><path opacity=".6" d="M24.2052 34.4386l.942.1281.0949-.6953-.9419-.1281-.095.6953zM24.914 35.7951l3.613.5098.0319-.2251-3.613-.5098-.0319.2251zM25.705 36.5189l2.6369.3585.0205-.1503-2.6368-.3586-.0206.1504z"/></g><path d="M22.361 28.2074l-.6416 4.6988 7.6617 1.0419.6416-4.6988-7.6617-1.0419z" fill="url(#paint4_linear)"/><path d="M22.4394 28.3368l-.5988 4.3854 7.4022 1.0066.5988-4.3854-7.4022-1.0066z" fill="#fff"/><g opacity=".6" fill="#F9A826"><path opacity=".6" d="M22.6193 29.4124l.9419.1281.095-.6953-.942-.1281-.0949.6953zM23.2064 30.8711l3.616.4917.0308-.2253-3.616-.4918-.0308.2254zM24.119 31.4927l2.6369.3586.0205-.1504-2.6368-.3585-.0206.1503z"/></g><path d="M35.9605 29.6066l-7.4103 2.2044 1.3577 4.5447 7.4102-2.2045-1.3576-4.5446z" fill="url(#paint5_linear)"/><path d="M35.8345 29.7674l-7.1593 2.1298 1.2671 4.2414 7.1592-2.1298-1.267-4.2414z" fill="#F4F6F7"/><g opacity=".6" fill="#F9A826"><path opacity=".6" d="M29.2833 32.7959l.911-.271-.2009-.6725-.911.2711.2009.6724zM30.422 33.8825l3.4973-1.0405-.0651-.2179-3.4973 1.0405.0651.2179zM31.5104 34.0734l2.5503-.7587-.0435-.1454-2.5503.7586.0435.1455z"/></g><path d="M24.8518 31.0521l-7.4103 2.2045 1.3577 4.5446 7.4102-2.2045-1.3576-4.5446z" fill="url(#paint6_linear)"/><path d="M24.7251 31.2125l-7.1592 2.1298 1.267 4.2414 7.1593-2.1298-1.2671-4.2414z" fill="#F4F6F7"/><g opacity=".6" fill="#F9A826"><path opacity=".6" d="M18.1751 34.2429l.9111-.271-.2009-.6725-.9111.2711.2009.6724zM19.3137 35.3285l3.4973-1.0404-.0651-.2179-3.4973 1.0404.0651.2179zM20.2876 35.5668l2.5547-.7702-.0441-.1457-2.5548.7702.0442.1457z"/></g><path d="M55.0044 17.503l-7.2126 2.7817 1.7131 4.4234 7.2126-2.7816-1.7131-4.4235z" fill="url(#paint7_linear)"/><path d="M54.8915 17.6732l-6.9683 2.6874 1.5988 4.1283 6.9683-2.6874-1.5988-4.1283z" fill="#fff"/><g opacity=".6" fill="#F9A826"><path opacity=".6" d="M48.5981 21.2082l.8867-.342-.2534-.6545-.8868.3419.2535.6546zM49.8192 22.2013l3.404-1.3129-.0821-.2121-3.4041 1.3129.0822.2121zM50.9191 22.3057l2.4823-.9573-.0549-.1416-2.4822.9573.0548.1416z"/></g><path d="M38.2988 22.3159l-5.0194 1.9358 1.1922 3.0784 5.0194-1.9358-1.1922-3.0784z" fill="url(#paint8_linear)"/><path d="M38.22 22.4338l-4.8492 1.8702 1.1127 2.8729 4.8491-1.8701-1.1126-2.873z" fill="#fff"/><g opacity=".6" fill="#F9A826"><path opacity=".6" d="M33.8413 24.8939l.617-.2379-.1764-.4554-.6169.2379.1763.4554zM34.6909 25.5852l2.3688-.9136-.0572-.1478-2.3688.9136.0572.1478zM35.456 25.6576l1.7273-.6661-.0381-.0984-1.7273.6661.0381.0984z"/></g><path d="M16.2188 27.4785l-5.0194 1.9358 1.1922 3.0784 5.0193-1.9358-1.1921-3.0784z" fill="url(#paint9_linear)"/><path d="M16.1396 27.5969l-4.8491 1.8701 1.1127 2.873 4.8491-1.8701-1.1127-2.873z" fill="#fff"/><g opacity=".6" fill="#F9A826"><path opacity=".6" d="M11.7631 30.0595l.617-.238-.1764-.4554-.6169.238.1763.4554zM12.6123 30.7502l2.3688-.9135-.0573-.1478-2.3688.9135.0573.1478zM13.3778 30.8231l1.7273-.6661-.0381-.0984-1.7273.6662.0381.0983z"/></g><path d="M49.9594 26.0347L44.94 27.9705l1.1922 3.0783 5.0194-1.9358-1.1922-3.0783z" fill="url(#paint10_linear)"/><path d="M49.8808 26.1531l-4.8491 1.8701 1.1126 2.873 4.8491-1.8702-1.1126-2.8729z" fill="#F4F6F7"/><g opacity=".6" fill="#F9A826"><path opacity=".6" d="M45.502 28.611l.6169-.238-.1763-.4553-.617.2379.1764.4554zM46.3511 29.3022l2.3688-.9135-.0572-.1478-2.3688.9135.0572.1478zM47.1167 29.3751l1.7273-.6661-.0381-.0984-1.7273.6662.0381.0983z"/></g><path d="M40.9897 18.5293l-5.0194 1.9358 1.1922 3.0783 5.0193-1.9357-1.1921-3.0784z" fill="url(#paint11_linear)"/><path d="M40.9108 18.6472l-4.8491 1.8701 1.1126 2.873 4.8492-1.8701-1.1127-2.873z" fill="#F4F6F7"/><g opacity=".6" fill="#F9A826"><path opacity=".6" d="M36.5316 21.1068l.617-.2379-.1764-.4554-.6169.2379.1763.4554zM37.3813 21.7981l2.3687-.9136-.0572-.1478-2.3688.9136.0573.1478zM38.1468 21.8707l1.7273-.6661-.0381-.0984-1.7273.6662.0381.0983z"/></g><path d="M58.3083 19.4251l-5.0193 1.9357 1.1922 3.0784 5.0193-1.9358-1.1922-3.0783z" fill="url(#paint12_linear)"/><path d="M58.2296 19.5435l-4.8492 1.8701 1.1127 2.8729 4.8491-1.8701-1.1126-2.8729z" fill="#F4F6F7"/><g opacity=".6" fill="#F9A826"><path opacity=".6" d="M53.8502 22.0006l.6169-.2379-.1763-.4554-.617.2379.1764.4554zM54.6993 22.6921l2.3688-.9135-.0572-.1478-2.3688.9135.0572.1478zM55.4651 22.7653l1.7273-.6662-.0381-.0984-1.7273.6662.0381.0984z"/></g><path d="M16.7711 20.8687l-5.0193 1.9357 1.1922 3.0784 5.0193-1.9358-1.1922-3.0783z" fill="url(#paint13_linear)"/><path d="M16.6925 20.9871l-4.8491 1.8701 1.1126 2.8729 4.8492-1.8701-1.1127-2.8729z" fill="#F4F6F7"/><g opacity=".6" fill="#F9A826"><path opacity=".6" d="M12.3145 23.4494l.617-.238-.1764-.4554-.617.238.1764.4554zM13.1641 24.1406l2.3688-.9135-.0572-.1478-2.3688.9135.0572.1478zM13.9292 24.2135l1.7273-.6661-.0381-.0984-1.7273.6661.0381.0984z"/></g><path d="M25.8104 25.3844l-.6417 4.6989 7.6617 1.0418.6417-4.6988-7.6617-1.0419z" fill="url(#paint14_linear)"/><path d="M25.8887 25.5146l-.5988 4.3853 7.4022 1.0066.5988-4.3853-7.4022-1.0066z" fill="#fff"/><g opacity=".6" fill="#F9A826"><path opacity=".6" d="M26.0688 26.5897l.942.1281.0949-.6953-.9419-.1281-.095.6953zM26.6565 28.0483l3.6161.4917.0308-.2253-3.6161-.4917-.0308.2253zM27.5691 28.6705l2.6369.3586.0205-.1504-2.6368-.3586-.0206.1504z"/></g><path d="M32.8298 38.8262a3.3075 3.3075 0 0 0-.9955-2.0516c-.6774-.6559-1.875-1.5259-3.8665-2.1705-3.6371-1.1786-5.0069-2.2153-6.6128-5.0417l-1.4172-3.488v1.6025l-.8975-3.3954s-.4016 3.6058.8248 6.4822c0 0-.614.5185 0 1.4142 0 0-1.4641-.2356-.2361 2.1684l1.0393 1.5084s-1.0393.4713.4253 2.1211l.8522.8s-2.0312.6601.6615 3.0168c0 0 3.4479 2.7812 6.2348 1.9796 2.4411-.7037 4.229-2.4529 3.9877-4.946z" fill="url(#paint15_linear)"/><path d="M32.6617 38.7116a3.2278 3.2278 0 0 0-.9723-2.0018c-.6609-.6399-1.8296-1.4888-3.7701-2.118-3.5489-1.1498-4.8852-2.1607-6.4524-4.9213l-1.3827-3.4031v1.5639l-.8764-3.3115s-.3918 3.5184.8063 6.3237c0 0-.599.5057 0 1.3798 0 0-1.4285-.23-.2304 2.1154l1.014 1.4719s-1.014.4599.4124 2.0696l.8295.782s-1.9817.6441.6455 2.9432c0 0 3.3644 2.7133 6.0833 1.9318 2.3844-.6842 4.1289-2.3907 3.8933-4.8256z" fill="#DFE5EE"/><path d="M22.2283 33.373l-2.673-6.5769s.2763 3.1274.9676 4.4614c0 0-.8764-.5978.3686 1.9318 0 0-2.673-2.0234 0 2.0697l1.06 1.0119s-1.8833-.8051-.9099.8231a4.6052 4.6052 0 0 0 1.4899 1.5192l.8026.5099s-2.673-.8278-.9217 1.6097c0 0 1.8894 1.7939 3.088 1.9318 0 0-3.088-1.9776-2.3503-2.7133.7377-.7356 2.7653.5505 2.7653.5505s-3.5948-2.4833-3.4102-3.1274c.1845-.6441 1.9358.8278 1.9358.8278s-3.6871-3.5415-3.5026-4.093c.1846-.5515.2764-.5978 1.475.5978 0 0-1.5672-2.2076-1.3368-2.5296.2305-.3221 1.1517 1.1956 1.1517 1.1956z" fill="#EBF1F6"/><path d="M31.3538 41.3756s2.5777-3.0353-2.4426-4.7845a25.4435 25.4435 0 0 1-3.7-1.6061 9.0875 9.0875 0 0 1-2.7793-2.3 9.0675 9.0675 0 0 1-1.6631-3.198c-.1242-.4368-.1814-.766-.1077-.8525 0 0 1.5208 4.0473 4.7012 5.4728l4.1938 1.564s4.7935 1.7954 1.7977 5.7043z" fill="#EBF1F6"/><path d="M34.164 38.8263a3.3075 3.3075 0 0 1 .9955-2.0516c.6774-.6559 1.875-1.5259 3.8665-2.1705 3.6371-1.1786 5.0069-2.2153 6.6128-5.0417l1.4136-3.4901v1.6026l.8975-3.3955s.4016 3.6059-.8248 6.4822c0 0 .614.5186 0 1.4143 0 0 1.4641-.2357.2361 2.1684l-1.0393 1.5084s1.0398.4717-.4259 2.1226l-.8501.8016s2.0312.66-.6614 3.0167c0 0-3.4479 2.7812-6.2349 1.9797-2.439-.7048-4.2274-2.454-3.9856-4.9471z" fill="url(#paint16_linear)"/><path d="M34.3316 38.7116a3.2277 3.2277 0 0 1 .9712-2.0018c.6609-.6399 1.8297-1.4888 3.7701-2.118 3.549-1.1498 4.8852-2.1607 6.4525-4.9213l1.3826-3.4031v1.5639l.8764-3.3115s.3919 3.5184-.8063 6.3237c0 0 .5991.5057 0 1.3798 0 0 1.4286-.23.2305 2.1154l-1.0141 1.4719s1.0141.4599-.4124 2.0696l-.8295.782s1.9817.6441-.6454 2.9432c0 0-3.3644 2.7133-6.0833 1.9318-2.3834-.6842-4.1279-2.3907-3.8923-4.8256z" fill="#DFE5EE"/><path d="M44.7655 33.373l2.673-6.5769s-.2763 3.1274-.9676 4.4614c0 0 .8764-.5978-.3686 1.9318 0 0 2.673-2.0234 0 2.0697l-1.0605 1.0114s1.8833-.8051.9099.8231a4.6052 4.6052 0 0 1-1.4899 1.5192l-.8027.5098s2.6715-.8282.9218 1.6093c0 0-1.8894 1.7939-3.088 1.9318 0 0 3.088-1.9776 2.3503-2.7133-.7377-.7357-2.7653.552-2.7653.552s3.5948-2.4833 3.4102-3.1274c-.1845-.6441-1.9358.8278-1.9358.8278s3.6871-3.5415 3.5025-4.093c-.1845-.5515-.2763-.5978-1.4749.5978 0 0 1.5672-2.2076 1.3368-2.5296-.2305-.3221-1.1512 1.1951-1.1512 1.1951z" fill="#EBF1F6"/><path d="M35.64 41.3756s-2.5777-3.0353 2.4426-4.7845a25.4435 25.4435 0 0 0 3.7-1.6061 9.0892 9.0892 0 0 0 2.779-2.3 9.0679 9.0679 0 0 0 1.6629-3.198c.1242-.4368.1814-.766.1077-.8525 0 0-1.5208 4.0473-4.7012 5.4728l-4.1938 1.564s-4.793 1.7954-1.7972 5.7043z" fill="#EBF1F6"/><path d="M32.2452 44.0593a.0477.0477 0 0 0 .057.0073.1923.1923 0 0 1-.057-.0073z" fill="url(#paint17_linear)"/><path d="M38.5399 33.8501c-.1109-.0324-.2696-.0849-.4604-.1508a2.4088 2.4088 0 0 0 .4269-.8581l-.0165.0062c.0056-.019.0113-.0381.0165-.0571-.3661.1482-.7733-.1029-1.0311-.426-.2578-.3231-.4331-.7233-.7156-1.0207a3.2694 3.2694 0 0 0-.3794-.3256c-.0835-.0643-.1732-.1312-.2748-.1343-.1649-.0046-.2938.1544-.4531.2058a.6207.6207 0 0 1-.3161-.0118c-.4093-.0937-.8047-.267-1.2207-.3123a1.4323 1.4323 0 0 0-.6625.0746c-.2098.0797-.3057.2377-.4758.3647-.1831.1364-.5475.1333-.763.1575a5.492 5.492 0 0 1-.7883.0324 1.8529 1.8529 0 0 0-.4537.0169c-.3129.0685-.5671.317-.7996.5557a.4112.4112 0 0 0-.1319.2057.2618.2618 0 0 0 0 .0685.4427.4427 0 0 0 .0314.1816c.0723.214.1745.4168.3037.6024.0959.1368.2062.266.2619.428a.8324.8324 0 0 1 .0402.2465 1.7856 1.7856 0 0 1-.0279.2649 3.3222 3.3222 0 0 1-.2031.7053c-.0515.1204-.1072.2408-.1186.3725a.6079.6079 0 0 0 0 .0787c-.0154.4069.396.6997.4754 1.104a.672.672 0 0 1 .0113.1029c-.0088.2521-.1547.499-.365.5963.0186.0072.0376.0134.0567.02a.5097.5097 0 0 1-.0567.0309c.0387.0149.0784.0273.1186.0386a2.7474 2.7474 0 0 0-.6011.7352c-.7105 1.3252-5.5472 3.9253-5.5472 3.9253s.0273.0149.0717.0406l-.0583.0376c-.4186.2778-1.4017 1.0886-.5155 2.1134 0 0 .6939-1.0922 1.1795-1.5578a1.6399 1.6399 0 0 1 .0639-.0582.1417.1417 0 0 1 .0186.1122l3.1819-1.7841s1.1305-.7903 1.4461-.9688c.1087-.0612.3856-.2315.7171-.3086l-.0372.0154a1.4576 1.4576 0 0 1 .365-.0515c.5635.0088 1.1734.4204 1.3745 2.0507.2696 2.1833.1443 2.5769.0582 2.6309a.1537.1537 0 0 1-.0294-.0031.056.056 0 0 0 .0083.0062.1632.1632 0 0 1-.0346-.0062.0516.0516 0 0 0 .047.0113.0431.0431 0 0 0 .0355-.0041.373.373 0 0 0 .0423 0 .4778.4778 0 0 1-.0041.0612c-.0041 0-.0253.0114-.0026.0129a4.075 4.075 0 0 0 0 .3972c-.2799.0154-.5594.0319-.8042.0468l.0216-.1153.0098-.0514c.215-.017.4186-.0803.4429-.2541.0515-.3823-.4733-.586-.9203-.6117-.4469-.0258-3.1293.1543-3.1293.1543s-.4021.5196.8733.6806c.0378.0196.0772.041.1181.0643.4996.2845 1.1775.8072 1.5023 1.0655l.0453.036-.1459.1157c.7888.1786 1.5513 3.1861 1.9725 4.5623.4212 1.3761 1.3404 1.3252 2.1039 1.1215.7145-.1914.8058-2.2636.8145-2.5209v-.0267l1.2708 1.5634.0964.1189c.0371.0192.0738.0373.1098.0545.9625.4568 2.0256-.4193 1.723-1.4158-.3058-1.0068-.78-2.4946-1.0966-3.1243-.265-.5268-.6073-1.4019-.815-1.9503a.6543.6543 0 0 0 .0783-.0376l-.0129-.0694.0129-.0072s-.3057-1.5856-.3227-2.7117v-.0592-.0365c.2299-.0515.3753-.0726.3753-.0726l.0041-.0514-.0268.0057.1279-1.4606s.4691-.9965.1098-1.4117a.8705.8705 0 0 1-.2109-.4311c-.0598-.3817 0-1.0181.8372-1.5469 1.2889-.8155 1.7884-1.4781 1.7884-1.4781s.0269-.4872-.7619-.7166zm-2.5586 1.0129v-.6749c.2392-.0119.483.0159.7217 0a1.8317 1.8317 0 0 0 .349-.0582l.0578.0402a6.3652 6.3652 0 0 1-1.1285.6929zm-3.6536 10.5788c.0948.0654.1897.1333.283.2012.0577.3328.1093.5659.1129.5844a4.6141 4.6141 0 0 0-.3959-.7856z" fill="url(#paint18_linear)"/><path d="M34.3702 44.8872l-.0557.3015-.0422.2305-.0779.4218-.7547.5273s-.0681-.0576-.1805-.1497c-.3093-.2541-.9594-.7717-1.4368-1.0495a1.6106 1.6106 0 0 0-.3949-.1816l2.9427-.1003z" fill="#FFBDC6"/><path opacity=".1" d="M34.3702 44.8872l-.0556.3015a2.3524 2.3524 0 0 1-.4981-.0252l-1.761.0252a5.2947 5.2947 0 0 1-.2341-.0191 1.616 1.616 0 0 0-.3949-.1816l2.9437-.1008z" fill="#000"/><path d="M33.816 45.113s.8806.1507.9306-.2259c.05-.3766-.4527-.5772-.8806-.6024-.4279-.0252-2.9937.1507-2.9937.1507s-.4526.6025 1.1821.7028l1.7616-.0252z" fill="#7679B4"/><path opacity=".1" d="M34.3702 44.8872l-.0557.3015-.0422.2305-.0779.4218-.7547.5273s-.0681-.0576-.1805-.1497c-.3093-.2541-.9594-.7717-1.4368-1.0495a1.6106 1.6106 0 0 0-.3949-.1816l2.9427-.1003z" fill="#000"/><path opacity=".1" d="M34.3702 44.8872l-.0556.3015a2.3524 2.3524 0 0 1-.4981-.0252l-1.761.0252a5.2947 5.2947 0 0 1-.2341-.0191 1.616 1.616 0 0 0-.3949-.1816l2.9437-.1008z" fill="#000"/><path opacity=".1" d="M33.816 45.113s.8806.1507.9306-.2259c.05-.3766-.4527-.5772-.8806-.6024-.4279-.0252-2.9937.1507-2.9937.1507s-.4526.6025 1.1821.7028l1.7616-.0252z" fill="#000"/><path d="M35.741 32.7373h-4.6037v5.4476h4.6037v-5.4476z" fill="#A66477"/><path opacity=".1" d="M35.741 32.7373h-4.6037v5.4476h4.6037v-5.4476z" fill="#000"/><path d="M25.7412 42.0633c-.0758.0191-.1727.0921-.2805.1981-.4639.4584-1.1285 1.5341-1.1285 1.5341-.8496-1.0099.0882-1.8073.4913-2.082.0975-.0664.1629-.1029.1629-.1029l.7548.4527zM34.3187 34.457s.2263 1.5815 1.0063 1.9581c.78.3765-1.0063 1.0803-1.0063 1.0803l-2.4401-.9039s1.3837-.4517 1.1069-1.7826l1.3332-.3519zM31.7028 43.9709l-.0556.3015-.0423.2305-.0779.4219-.7547.5273s-.0681-.0576-.1804-.1497c-.3094-.2542-.9595-.7717-1.4368-1.0495a1.6103 1.6103 0 0 0-.3949-.1816l2.9426-.1004z" fill="#FFBDC6"/><path opacity=".1" d="M31.7028 43.9709l-.0556.3015a2.3445 2.3445 0 0 1-.498-.0252l-1.7611.0252a5.3012 5.3012 0 0 1-.2341-.019 1.6086 1.6086 0 0 0-.3949-.1816l2.9437-.1009z" fill="#000"/><path d="M31.1497 44.1967s.8805.1507.9305-.2258c.05-.3766-.4526-.5773-.8805-.6025-.4279-.0252-2.9937.1508-2.9937.1508s-.4527.6024 1.1821.7027l1.7616-.0252z" fill="#7679B4"/><path opacity=".1" d="M31.6049 44.5033l-.0779.4219-.7547.5273s-.0681-.0576-.1804-.1497l.998-.817.015.0175z" fill="#000"/><path d="M36.587 50.2503a8.2387 8.2387 0 0 1-.1031-.0514l-.0923-.1168-1.2172-1.5424v.0263c-.0082.2572-.0953 2.2955-.7789 2.4838-.7295.2006-1.61.251-2.0106-1.1046-.4006-1.3556-1.1342-4.3178-1.8869-4.4932l1.1193-.9163s.7413.8653 1.0439 1.6936c-.0113-.0514-.5233-2.439-.1005-2.8609h3.6706s.5671 1.6113.9558 2.4097c.3026.6199.7568 2.0856 1.0491 3.0775.2892.9816-.7274 1.8449-1.6492 1.3947z" fill="#7679B4"/><path opacity=".1" d="M36.4839 43.8202c-.5671.3349-3.0566.1986-3.8665.1441l-.2201-.016c-.0237 0 .0036-.0134.0036-.0134l.0227-.2279.6037-1.5315 3.2324-1.8701c-.0655.1971-.0877.4985-.0825.8437.0129 1.1097.3067 2.6711.3067 2.6711z" fill="#000"/><path d="M36.4839 43.7452c-.5671.3349-3.0566.1986-3.8665.144l-.2201-.0159-.0366-.0026.0402-.0103.1985-.0514.4279-1.707 3.2324-1.8701c-.0655.1971-.0877.4985-.0825.8437.0129 1.1082.3067 2.6696.3067 2.6696z" fill="#F2F1F2"/><path opacity=".1" d="M36.1746 41.0746c-.6573.1513-2.1039.5952-2.6597 1.6669-.3706.714-.6825 1.0201-.9001 1.1482l-.2201-.0159.0036-.0134.1985-.0514.4279-1.707 3.2324-1.8701c-.0665.1955-.0882.497-.0825.8427zM24.9875 41.6111l.7547.4517c-.0758.019-.1727.0921-.2804.198-.0629-.1831-.4583-.4388-.6372-.5473.0964-.0664.1629-.1024.1629-.1024zM32.2598 43.9031a.0452.0452 0 0 1-.0522-.0073.1875.1875 0 0 0 .0522.0073z" fill="#000"/><path d="M33.9671 36.3148s-.679.0751-1.1574-.427c0 0-2.0106.5772-2.6916 1.8829-.681 1.3057-5.31 3.8661-5.31 3.8661s.8047.4517.7295.6776l3.0416-1.7574s1.0826-.7784 1.3837-.9538c.3011-.1754 1.9621-1.2553 2.3143 1.6817.3521 2.9371 0 2.5857 0 2.5857s.5031.176 1.2326-1.2301c.7295-1.406 2.9978-1.7327 2.9978-1.7327l.1258-1.4811s.4491-.9816.1031-1.389a.8677.8677 0 0 1-.2015-.425c-.0573-.376 0-1.0026.8006-1.5233 1.2326-.803 1.7105-1.4559 1.7105-1.4559s.0253-.4769-.7295-.7027c-.7547-.2259-3.8237-1.4559-3.8237-1.4559l-.1031.427 2.4148 1.7069s-1.2074.9775-2.1653.9538c.0072-.001.183.727-.6722.7522z" fill="#565388"/><path opacity=".1" d="M34.4331 35.1459a4.9264 4.9264 0 0 1-.1392-.6132l-1.3331.3514c.0583.254.0478.5189-.0305.7676.2726.0726.5606.0633.8279-.0267a1.4329 1.4329 0 0 0 .6749-.4791z" fill="#000"/><path d="M33.3257 35.6239c.7919 0 1.4338-.6406 1.4338-1.4307 0-.7902-.6419-1.4307-1.4338-1.4307-.7918 0-1.4337.6405-1.4337 1.4307 0 .7901.6419 1.4307 1.4337 1.4307z" fill="#FFBDC6"/><path opacity=".1" d="M34.0882 30.9396c.398.0448.7764.2156 1.1677.3087a.578.578 0 0 0 .3021.0113c.1547-.0468.2758-.2058.4336-.2011.0974.003.183.0689.2629.1322a3.15 3.15 0 0 1 .3609.321c.2701.2927.4377.6868.6846 1.0052.2469.3185.6351.5659.9852.4198-.2382.9261-1.0182 1.6314-1.8621 1.689-.3367.0232-.6816-.0473-1.0074.0514a.884.884 0 0 1-.2541.0618c-.1877 0-.3388-.1718-.4558-.339-.2742-.3931-.4913-.8391-.8001-1.1977-.1031-.1183-.2222-.231-.3665-.2526-.1444-.0216-.2769.0468-.4052.1132-.2119.1096-.429.2227-.5929.4115-.164.1889-.2676.4682-.2.7203.0366.1368.1201.2603.1216.4033.0026.2279-.199.3951-.2392.6174a2.3722 2.3722 0 0 0-.0098.2809c-.0175.3045-.217.554-.4253.7454-.0809.0746-.1706.1544-.1943.2691-.016.0787 0 .1615-.0104.2413-.0304.1975-.2278.2978-.4026.3236a1.1695 1.1695 0 0 1-.6042-.0716c.2444-.1157.3944-.4434.3382-.7377-.0779-.4074-.4882-.6997-.4537-1.1148a1.289 1.289 0 0 1 .1134-.3668 3.3497 3.3497 0 0 0 .1944-.6951c.0304-.1836.0454-.3786-.0119-.554-.0515-.1595-.1593-.2866-.2505-.4214a2.3894 2.3894 0 0 1-.2887-.5921.4148.4148 0 0 1-.0279-.1965.4062.4062 0 0 1 .1264-.2032c.2247-.2352.4639-.48.7645-.5469a1.7197 1.7197 0 0 1 .4341-.0165 5.0817 5.0817 0 0 0 .7542-.0319c.2062-.0242.5547-.0206.73-.1543.1629-.125.2542-.2809.4552-.3601a1.3348 1.3348 0 0 1 .6336-.0731zM34.8858 45.7161s.83 1.6318.5784 2.1339l-.5784-2.1339zM36.3906 50.0796l-1.2161-1.5398v.0262s-.0702-.4979.1613-.3307c.5073.3662 1.3188.9666 1.3363 1.07.0175.1034-.1645.5186-.2815.7743z" fill="#000"/><g opacity=".1" fill="#000"><path opacity=".1" d="M34.6713 35.5616s.1031.4239-.2294.6358c.5104-.0874.533-.4836.5155-.6559a1.612 1.612 0 0 1-.2861.0201zM25.1122 41.536s4.6285-2.5604 5.31-3.8661c.4872-.9368 1.6616-1.4986 2.2859-1.7414-.4552.1543-1.9868.7356-2.5622 1.8417-.6789 1.3052-5.31 3.8662-5.31 3.8662l.2763-.1004zM35.5709 35.362c.7877-.2443 1.5404-.855 1.5404-.855L34.6966 32.8l.0551-.234-.2315-.0921-.1031.427 2.4148 1.7069a5.8216 5.8216 0 0 1-1.261.7542zM35.5864 41.1472a5.9866 5.9866 0 0 1 .9491-.2392l.0041-.0484a6.422 6.422 0 0 0-.9532.2876zM32.6592 43.777h-.0222a.0455.0455 0 0 1-.0516-.0072.188.188 0 0 0 .0516.0072c.0825-.0478.2062-.4229-.0516-2.5929-.2778-2.315-1.3687-2.1345-1.9657-1.868.6104-.1677 1.4502-.0226 1.6889 1.9684.2578 2.1699.1361 2.5445.0516 2.5928a.5583.5583 0 0 0 .299-.1003zM32.3604 43.8779a.1887.1887 0 0 1-.0523-.0073.046.046 0 0 0 .0523.0073z"/></g><path d="M34.0882 30.8893c.398.0448.7764.2156 1.1677.3087a.578.578 0 0 0 .3021.0113c.1547-.0468.2758-.2058.4336-.2011.0974.0031.183.0689.2629.1322.1283.0976.249.205.3609.321.2701.2927.4377.6868.6846 1.0053.2469.3184.6351.5659.9852.4198-.2382.926-1.0182 1.6313-1.8621 1.6889-.3367.0232-.6816-.0473-1.0074.0515a.8872.8872 0 0 1-.2541.0617c-.1877 0-.3388-.1718-.4558-.339-.2742-.3931-.4913-.8391-.8001-1.1977-.1031-.1183-.2222-.231-.3665-.2526-.1444-.0216-.2769.0468-.4052.1132-.2119.1096-.429.2228-.5929.4116-.164.1888-.2676.4681-.2.7202.0366.1369.1201.2603.1216.4033.0026.228-.199.3952-.2392.6174a2.373 2.373 0 0 0-.0098.2809c-.0175.3045-.217.5541-.4253.7454-.0809.0746-.1706.1544-.1943.2691-.016.0787 0 .1615-.0104.2413-.0304.1975-.2278.2979-.4026.3236a1.1695 1.1695 0 0 1-.6042-.0715c.2444-.1158.3944-.4435.3382-.7378-.0779-.4074-.4882-.6996-.4537-1.1148a1.2899 1.2899 0 0 1 .1134-.3668 3.3488 3.3488 0 0 0 .1944-.695c.0304-.1837.0454-.3787-.0119-.5541-.0515-.1595-.1593-.2866-.2505-.4213a2.3896 2.3896 0 0 1-.2887-.5932.415.415 0 0 1-.0279-.1965.407.407 0 0 1 .1264-.2033c.2247-.2351.4639-.4799.7645-.5468a1.7197 1.7197 0 0 1 .4341-.0165 5.0817 5.0817 0 0 0 .7542-.0319c.2062-.0242.5547-.0206.73-.1543.1629-.125.2542-.2809.4552-.3601a1.3346 1.3346 0 0 1 .6336-.0721z" fill="#A66477"/></g><circle cx="35" cy="35" r="35" fill="#fff" fill-opacity=".6"/><defs><filter id="filter0_i" x="0" y="0" width="70" height="74" filterUnits="userSpaceOnUse" color-interpolation-filters="sRGB"><feFlood flood-opacity="0" result="BackgroundImageFix"/><feBlend in="SourceGraphic" in2="BackgroundImageFix" result="shape"/><feColorMatrix in="SourceAlpha" values="0 0 0 0 0 0 0 0 0 0 0 0 0 0 0 0 0 0 127 0" result="hardAlpha"/><feOffset dy="7"/><feGaussianBlur stdDeviation="2"/><feComposite in2="hardAlpha" operator="arithmetic" k2="-1" k3="1"/><feColorMatrix values="0 0 0 0 0.14902 0 0 0 0 0 0 0 0 0 0.337255 0 0 0 0.25 0"/><feBlend in2="shape" result="effect1_innerShadow"/></filter><linearGradient id="paint0_linear" x1="38.2851" y1="35.8472" x2="39.8639" y2="31.3744" gradientUnits="userSpaceOnUse"><stop stop-color="gray" stop-opacity=".25"/><stop offset=".54" stop-color="gray" stop-opacity=".12"/><stop offset="1" stop-color="gray" stop-opacity=".1"/></linearGradient><linearGradient id="paint1_linear" x1="698.292" y1="1548.57" x2="540.952" y2="1140.59" gradientUnits="userSpaceOnUse"><stop stop-color="gray" stop-opacity=".25"/><stop offset=".54" stop-color="gray" stop-opacity=".12"/><stop offset="1" stop-color="gray" stop-opacity=".1"/></linearGradient><linearGradient id="paint2_linear" x1="954.407" y1="1826.15" x2="1050.25" y2="1121.31" gradientUnits="userSpaceOnUse"><stop stop-color="gray" stop-opacity=".25"/><stop offset=".54" stop-color="gray" stop-opacity=".12"/><stop offset="1" stop-color="gray" stop-opacity=".1"/></linearGradient><linearGradient id="paint3_linear" x1="-227.052" y1="3088.12" x2="-131.203" y2="2383.29" gradientUnits="userSpaceOnUse"><stop stop-color="gray" stop-opacity=".25"/><stop offset=".54" stop-color="gray" stop-opacity=".12"/><stop offset="1" stop-color="gray" stop-opacity=".1"/></linearGradient><linearGradient id="paint4_linear" x1="-333.834" y1="2347" x2="-237.986" y2="1642.17" gradientUnits="userSpaceOnUse"><stop stop-color="gray" stop-opacity=".25"/><stop offset=".54" stop-color="gray" stop-opacity=".12"/><stop offset="1" stop-color="gray" stop-opacity=".1"/></linearGradient><linearGradient id="paint5_linear" x1="464.876" y1="1780.15" x2="340.207" y2="1361.08" gradientUnits="userSpaceOnUse"><stop stop-color="gray" stop-opacity=".25"/><stop offset=".54" stop-color="gray" stop-opacity=".12"/><stop offset="1" stop-color="gray" stop-opacity=".1"/></linearGradient><linearGradient id="paint6_linear" x1="-1160.81" y1="2093.87" x2="-1285.48" y2="1674.8" gradientUnits="userSpaceOnUse"><stop stop-color="gray" stop-opacity=".25"/><stop offset=".54" stop-color="gray" stop-opacity=".12"/><stop offset="1" stop-color="gray" stop-opacity=".1"/></linearGradient><linearGradient id="paint7_linear" x1="2028.17" y1="309.779" x2="1870.83" y2="-98.1935" gradientUnits="userSpaceOnUse"><stop stop-color="gray" stop-opacity=".25"/><stop offset=".54" stop-color="gray" stop-opacity=".12"/><stop offset="1" stop-color="gray" stop-opacity=".1"/></linearGradient><linearGradient id="paint8_linear" x1="-214.437" y1="654.442" x2="-290.637" y2="456.859" gradientUnits="userSpaceOnUse"><stop stop-color="gray" stop-opacity=".25"/><stop offset=".54" stop-color="gray" stop-opacity=".12"/><stop offset="1" stop-color="gray" stop-opacity=".1"/></linearGradient><linearGradient id="paint9_linear" x1="-2451.17" y1="1307.55" x2="-2527.37" y2="1109.97" gradientUnits="userSpaceOnUse"><stop stop-color="gray" stop-opacity=".25"/><stop offset=".54" stop-color="gray" stop-opacity=".12"/><stop offset="1" stop-color="gray" stop-opacity=".1"/></linearGradient><linearGradient id="paint10_linear" x1="881.798" y1="762.693" x2="805.598" y2="565.109" gradientUnits="userSpaceOnUse"><stop stop-color="gray" stop-opacity=".25"/><stop offset=".54" stop-color="gray" stop-opacity=".12"/><stop offset="1" stop-color="gray" stop-opacity=".1"/></linearGradient><linearGradient id="paint11_linear" x1="99.8742" y1="352.824" x2="23.6738" y2="155.241" gradientUnits="userSpaceOnUse"><stop stop-color="gray" stop-opacity=".25"/><stop offset=".54" stop-color="gray" stop-opacity=".12"/><stop offset="1" stop-color="gray" stop-opacity=".1"/></linearGradient><linearGradient id="paint12_linear" x1="1789.03" y1="188.303" x2="1712.83" y2="-9.2808" gradientUnits="userSpaceOnUse"><stop stop-color="gray" stop-opacity=".25"/><stop offset=".54" stop-color="gray" stop-opacity=".12"/><stop offset="1" stop-color="gray" stop-opacity=".1"/></linearGradient><linearGradient id="paint13_linear" x1="-2309.71" y1="835.524" x2="-2385.9" y2="637.972" gradientUnits="userSpaceOnUse"><stop stop-color="gray" stop-opacity=".25"/><stop offset=".54" stop-color="gray" stop-opacity=".12"/><stop offset="1" stop-color="gray" stop-opacity=".1"/></linearGradient><linearGradient id="paint14_linear" x1="6.6279" y1="1896.63" x2="102.476" y2="1191.8" gradientUnits="userSpaceOnUse"><stop stop-color="gray" stop-opacity=".25"/><stop offset=".54" stop-color="gray" stop-opacity=".12"/><stop offset="1" stop-color="gray" stop-opacity=".1"/></linearGradient><linearGradient id="paint15_linear" x1="5804.68" y1="10794.3" x2="5804.68" y2="3299.93" gradientUnits="userSpaceOnUse"><stop stop-color="gray" stop-opacity=".25"/><stop offset=".54" stop-color="gray" stop-opacity=".12"/><stop offset="1" stop-color="gray" stop-opacity=".1"/></linearGradient><linearGradient id="paint16_linear" x1="-39579" y1="10796" x2="-39579" y2="3300.44" gradientUnits="userSpaceOnUse"><stop stop-color="gray" stop-opacity=".25"/><stop offset=".54" stop-color="gray" stop-opacity=".12"/><stop offset="1" stop-color="gray" stop-opacity=".1"/></linearGradient><linearGradient id="paint17_linear" x1="63.0436" y1="51.4851" x2="63.0436" y2="51.4815" gradientUnits="userSpaceOnUse"><stop stop-color="gray" stop-opacity=".25"/><stop offset=".54" stop-color="gray" stop-opacity=".12"/><stop offset="1" stop-color="gray" stop-opacity=".1"/></linearGradient><linearGradient id="paint18_linear" x1="8272.28" y1="14294.4" x2="8272.28" y2="6055.58" gradientUnits="userSpaceOnUse"><stop stop-color="gray" stop-opacity=".25"/><stop offset=".54" stop-color="gray" stop-opacity=".12"/><stop offset="1" stop-color="gray" stop-opacity=".1"/></linearGradient><clipPath id="clip0"><path fill="#fff" d="M11.2 17.5h48.3v42.7H11.2z"/></clipPath></defs></svg>