<svg viewBox="0 0 53 53" width="53" height="53" fill="none" xmlns="http://www.w3.org/2000/svg"><circle cx="26.375" cy="26.1456" r="26.1456" fill="#8066C9" filter="url(#filter0_i)"/><g clip-path="url(#clip0)"><path opacity=".1" d="M24.9753 44.9704c6.2939 0 11.3962-.8468 11.3962-1.8912 0-1.0445-5.1023-1.8912-11.3962-1.8912-6.294 0-11.3963.8467-11.3963 1.8912 0 1.0444 5.1023 1.8912 11.3963 1.8912z" fill="#F9A826"/><path d="M17.8287 42.1265s-.672-2.2766.1259-3.9522a3.59 3.59 0 0 0 .2916-2.2559 6.0396 6.0396 0 0 0-.3201-1.0588" stroke="#535461" stroke-width="2" stroke-miterlimit="10"/><path d="M18.4225 33.8013c0 .279-.5064 1.088-.5064 1.088s-.5064-.809-.5064-1.088a.5036.5036 0 0 1 .1432-.3663.5078.5078 0 0 1 .363-.153.5074.5074 0 0 1 .363.153.5043.5043 0 0 1 .1433.3663h.0003zM19.2594 35.3469c-.1521.234-1.0186.6387-1.0186.6387s.0158-.9538.1675-1.1879a.5075.5075 0 0 1 .6936-.1394.5052.5052 0 0 1 .1563.6886h.0012zM19.2228 37.9878c-.2495.1257-1.2015.0385-1.2015.0385s.496-.8155.7455-.9412a.5072.5072 0 0 1 .6878.2198.5055.5055 0 0 1 .0274.3898.5045.5045 0 0 1-.2592.2928v.0003zM18.7441 39.9802c-.2249.166-1.1777.2409-1.1777.2409s.3509-.8874.5758-1.0534a.5076.5076 0 0 1 .5699-.0366.5056.5056 0 0 1 .2417.5164.5045.5045 0 0 1-.2097.3327zM17.1786 36.04c.2007.1944 1.135.3958 1.135.3958s-.2288-.9262-.4294-1.1207a.507.507 0 0 0-.3627-.151.5075.5075 0 0 0-.3617.1532.505.505 0 0 0-.0983.5603.505.505 0 0 0 .1171.1624zM16.6487 38.3762c.2496.1257 1.2016.0385 1.2016.0385s-.4953-.8148-.7456-.9404a.5072.5072 0 0 0-.6878.2198.504.504 0 0 0 .0727.5621.506.506 0 0 0 .1591.1204v-.0004zM16.4458 40.7184c.2249.1661 1.1776.241 1.1776.241s-.3508-.8874-.5757-1.0534a.5061.5061 0 0 0-.3802-.1025.5073.5073 0 0 0-.3389.2003.5043.5043 0 0 0 .1172.7146z" fill="#F9A826"/><path opacity=".1" d="M18.4225 33.8013c0 .279-.5064 1.088-.5064 1.088s-.5064-.809-.5064-1.088a.5036.5036 0 0 1 .1432-.3663.5078.5078 0 0 1 .363-.153.5074.5074 0 0 1 .363.153.5043.5043 0 0 1 .1433.3663h.0003zM19.2594 35.3469c-.1521.234-1.0186.6387-1.0186.6387s.0158-.9538.1675-1.1879a.5075.5075 0 0 1 .6936-.1394.5052.5052 0 0 1 .1563.6886h.0012zM19.2228 37.9878c-.2495.1257-1.2015.0385-1.2015.0385s.496-.8155.7455-.9412a.5072.5072 0 0 1 .6878.2198.5055.5055 0 0 1 .0274.3898.5045.5045 0 0 1-.2592.2928v.0003zM18.7441 39.9802c-.2249.166-1.1777.2409-1.1777.2409s.3509-.8874.5758-1.0534a.5076.5076 0 0 1 .5699-.0366.5056.5056 0 0 1 .2417.5164.5045.5045 0 0 1-.2097.3327zM17.1786 36.04c.2007.1944 1.135.3958 1.135.3958s-.2288-.9262-.4294-1.1207a.507.507 0 0 0-.3627-.151.5075.5075 0 0 0-.3617.1532.505.505 0 0 0-.0983.5603.505.505 0 0 0 .1171.1624zM16.6487 38.3762c.2496.1257 1.2016.0385 1.2016.0385s-.4953-.8148-.7456-.9404a.5072.5072 0 0 0-.6878.2198.504.504 0 0 0 .0727.5621.506.506 0 0 0 .1591.1204v-.0004zM16.4458 40.7184c.2249.1661 1.1776.241 1.1776.241s-.3508-.8874-.5757-1.0534a.5061.5061 0 0 0-.3802-.1025.5073.5073 0 0 0-.3389.2003.5043.5043 0 0 0 .1172.7146z" fill="#F9A826"/><path d="M31.1463 41.9756s-.672-2.2766.126-3.9522a3.5892 3.5892 0 0 0 .2915-2.2559 6.0394 6.0394 0 0 0-.32-1.058" stroke="#535461" stroke-width="2" stroke-miterlimit="10"/><path d="M31.7402 33.6494c0 .279-.5065 1.088-.5065 1.088s-.5064-.809-.5064-1.088a.5053.5053 0 0 1 .1531-.3483.5071.5071 0 0 1 .7063 0 .5053.5053 0 0 1 .1531.3483h.0004zM32.577 35.1947c-.1521.2341-1.0174.6387-1.0174.6387s.0157-.9538.1675-1.1879a.506.506 0 0 1 .5202-.2332.5076.5076 0 0 1 .3301.2133.5042.5042 0 0 1-.0004.5691zM32.5404 37.8362c-.2495.1256-1.2015.0384-1.2015.0384s.496-.8155.7456-.9412a.507.507 0 0 1 .6726.2275.5045.5045 0 0 1-.2167.6749v.0004zM32.0617 39.8279c-.2249.166-1.1777.2409-1.1777.2409s.3509-.8873.5758-1.0534a.5068.5068 0 0 1 .6973.1138.5046.5046 0 0 1-.0954.6987zM30.4962 35.8875c.2007.1944 1.135.3958 1.135.3958s-.2288-.9262-.4294-1.1206a.5072.5072 0 0 0-.7077.0184.505.505 0 0 0 .0021.7064zM29.9663 38.2246c.2496.1256 1.2016.0384 1.2016.0384s-.496-.8151-.7456-.9404a.507.507 0 0 0-.6726.2274.5046.5046 0 0 0 .2166.675v-.0004zM29.7634 40.5662c.2249.166 1.1777.2409 1.1777.2409s-.3509-.8874-.5758-1.0534a.5068.5068 0 0 0-.6973.1138.505.505 0 0 0 .0954.6987z" fill="#F9A826"/><path opacity=".1" d="M31.7402 33.6494c0 .279-.5065 1.088-.5065 1.088s-.5064-.809-.5064-1.088a.5053.5053 0 0 1 .1531-.3483.5071.5071 0 0 1 .7063 0 .5053.5053 0 0 1 .1531.3483h.0004zM32.577 35.1947c-.1521.2341-1.0174.6387-1.0174.6387s.0157-.9538.1675-1.1879a.506.506 0 0 1 .5202-.2332.5076.5076 0 0 1 .3301.2133.5042.5042 0 0 1-.0004.5691zM32.5404 37.8362c-.2495.1256-1.2015.0384-1.2015.0384s.496-.8155.7456-.9412a.507.507 0 0 1 .6726.2275.5045.5045 0 0 1-.2167.6749v.0004zM32.0617 39.8279c-.2249.166-1.1777.2409-1.1777.2409s.3509-.8873.5758-1.0534a.5068.5068 0 0 1 .6973.1138.5046.5046 0 0 1-.0954.6987zM30.4962 35.8875c.2007.1944 1.135.3958 1.135.3958s-.2288-.9262-.4294-1.1206a.5072.5072 0 0 0-.7077.0184.505.505 0 0 0 .0021.7064zM29.9663 38.2246c.2496.1256 1.2016.0384 1.2016.0384s-.496-.8151-.7456-.9404a.507.507 0 0 0-.6726.2274.5046.5046 0 0 0 .2166.675v-.0004zM29.7634 40.5662c.2249.166 1.1777.2409 1.1777.2409s-.3509-.8874-.5758-1.0534a.5068.5068 0 0 0-.6973.1138.505.505 0 0 0 .0954.6987z" fill="#F9A826"/><path d="M12.9689 37.4744s.8088 1.5814.1495 2.4469c-.6593.8654.0597 3.2228.0597 3.2228" stroke="#F9A826" stroke-miterlimit="10"/><path d="M13.2081 36.9823c0 .3047-.2241.5519-.2241.5519s-.2242-.2472-.2242-.5519c0-.3048.2242-.5519.2242-.5519s.2241.2467.2241.5519z" fill="#F9A826"/><path d="M13.3883 37.4744s-.8087 1.5814-.1494 2.4469c.6593.8654-.0597 3.2228-.0597 3.2228" stroke="#F9A826" stroke-miterlimit="10"/><path d="M13.1484 36.9823c0 .3047.2241.5519.2241.5519s.2242-.2472.2242-.5519c0-.3048-.2242-.5519-.2242-.5519s-.2241.2467-.2241.5519z" fill="#F9A826"/><path opacity=".1" d="M13.1484 36.9823c0 .3047.2241.5519.2241.5519s.2242-.2472.2242-.5519c0-.3048-.2242-.5519-.2242-.5519s-.2241.2467-.2241.5519z" fill="#000"/><path d="M13.7165 37.4744s.8087 1.5814.1494 2.4469c-.6593.8654.0616 3.2228.0616 3.2228" stroke="#F9A826" stroke-miterlimit="10"/><path d="M13.9556 36.9823c0 .3047-.2241.5519-.2241.5519s-.2242-.2472-.2242-.5519c0-.3048.2242-.5519.2242-.5519s.2241.2467.2241.5519zM13.8301 38.2493c-.2119.2198-.5454.2425-.5454.2425s.01-.3332.2219-.553c.2118-.2198.5453-.2425.5453-.2425s-.0089.3332-.2218.553zM13.8505 39.3401c-.2118.2199-.5454.2425-.5454.2425s.0101-.3332.2219-.553c.2118-.2198.5453-.2425.5453-.2425s-.0096.3332-.2218.553zM12.7024 39.9406c.2003.2306.1926.5634.1926.5634s-.3316-.0384-.5318-.269c-.2003-.2306-.1926-.5634-.1926-.5634s.332.0388.5318.269zM12.8877 37.6136c.2545.1683.3373.4915.3373.4915s-.3304.05-.5849-.1184c-.2546-.1683-.3374-.4915-.3374-.4915s.3308-.0499.585.1184z" fill="#F9A826"/><path opacity=".1" d="M12.8877 37.6136c.2545.1683.3373.4915.3373.4915s-.3304.05-.5849-.1184c-.2546-.1683-.3374-.4915-.3374-.4915s.3308-.0499.585.1184z" fill="#000"/><path d="M14.1351 37.4744s-.8088 1.5814-.1495 2.4469c.6594.8654-.0581 3.2228-.0581 3.2228" stroke="#F9A826" stroke-miterlimit="10"/><path d="M13.8959 36.9822c0 .3047.2241.5519.2241.5519s.2242-.2472.2242-.5519c0-.3048-.2242-.5523-.2242-.5523s-.2241.2471-.2241.5523z" fill="#F9A826"/><path opacity=".1" d="M13.8959 36.9822c0 .3047.2241.5519.2241.5519s.2242-.2472.2242-.5519c0-.3048-.2242-.5523-.2242-.5523s-.2241.2471-.2241.5523z" fill="#000"/><path d="M13.9602 38.2726c-.2145.2171-.2283.5503-.2283.5503s.3335-.0188.548-.236c.2145-.2171.2283-.5503.2283-.5503s-.3335.0189-.548.236z" fill="#F9A826"/><path opacity=".1" d="M13.9602 38.2726c-.2145.2171-.2283.5503-.2283.5503s.3335-.0188.548-.236c.2145-.2171.2283-.5503.2283-.5503s-.3335.0189-.548.236z" fill="#000"/><path d="M14.3808 39.7823c-.2145.2171-.2284.5503-.2284.5503s.3335-.0188.548-.2359c.2145-.2172.2284-.5496.2284-.5496s-.3335.0192-.548.2352z" fill="#F9A826"/><path d="M13.7623 39.4513s.486-.7644 1.1665-.7809M13.3837 38.9899s-.486-.7644-1.168-.7809M13.3206 40.081s.486-.7644 1.168-.781" stroke="#F9A826" stroke-miterlimit="10"/><path d="M14.9087 38.7913a.1265.1265 0 1 0 0-.2527.1264.1264 0 0 0 0 .2527zM12.2279 38.3402c.07 0 .1267-.0566.1267-.1264a.1265.1265 0 0 0-.1267-.1264.1265.1265 0 1 0 0 .2528z" fill="#F9A826"/><path d="M13.6779 40.3327s-.486-.7644-1.168-.7809" stroke="#F9A826" stroke-miterlimit="10"/><path d="M12.5222 39.6829a.1264.1264 0 1 0 0-.2527.1265.1265 0 0 0 0 .2527zM14.4986 39.4312a.1264.1264 0 1 0 0-.2527.1265.1265 0 0 0 0 .2527z" fill="#F9A826"/><path d="M16.3645 42.2258s-1.1711-.2337-1.4835-.5454c-.3123-.3116-1.7176-.857-1.8739-.4673-.1564.3897-2.1081 1.714-.7806 1.9481 1.3274.234 3.1232.3117 3.5133.1556.3902-.156.6247-1.091.6247-1.091z" fill="#A8A8A8"/><path opacity=".2" d="M12.2264 43.0159c1.3275.2336 3.1233.3117 3.5134.1556.2974-.1187.5038-.6887.5858-.9542l.0385.0081s-.2338.9354-.6243 1.0925c-.3905.1572-2.1862.0769-3.5134-.1556-.3831-.0676-.4925-.226-.4513-.4266.0343.1295.166.2302.4513.2802z" fill="#000"/><path d="M35.9071 39.3999s.3851.5046-.1783 1.2682-1.031 1.4051-.8426 1.8797c0 0 .8526-1.4147 1.5466-1.4346.694-.02.2376-.8624-.5257-1.7133z" fill="#F9A826"/><path opacity=".1" d="M35.9071 39.3999a.627.627 0 0 1 .079.1583c.677.794 1.0378 1.535.3851 1.5534-.6062.0173-1.3337 1.0991-1.5078 1.3724a.6131.6131 0 0 0 .0208.0622s.8527-1.4146 1.5467-1.4346c.6939-.02.2395-.8608-.5238-1.7117z" fill="#000"/><path d="M36.6257 40.0432c0 .1775-.02.3216-.0447.3216-.0246 0-.0446-.1441-.0446-.3216 0-.1776.025-.0942.0497-.0942.0246 0 .0396-.0834.0396.0942z" fill="#FFD037"/><path d="M36.8726 40.2552c-.1564.0849-.2923.1364-.3043.1153-.0119-.0212.1052-.108.2615-.1922.1564-.0841.0948-.023.1063 0 .0116.0231.0925-.0084-.0635.0769z" fill="#FFD037"/><path d="M33.8648 39.3999s-.3851.5046.1783 1.2682c.5635.7636 1.031 1.4051.8427 1.8797 0 0-.8527-1.4147-1.5466-1.4346-.694-.02-.238-.8624.5256-1.7133z" fill="#F9A826"/><path opacity=".1" d="M33.8648 39.3999a.6266.6266 0 0 0-.0789.1583c-.677.794-1.0379 1.535-.3851 1.5534.6061.0173 1.3336 1.0991 1.5077 1.3724a.5893.5893 0 0 1-.0208.0622s-.8526-1.4146-1.5466-1.4346c-.694-.02-.2399-.8608.5237-1.7117z" fill="#000"/><path d="M33.1447 40.0432c0 .1775.02.3216.0447.3216.0246 0 .0446-.1441.0446-.3216 0-.1776-.025-.0942-.0496-.0942-.0247 0-.0397-.0834-.0397.0942z" fill="#FFD037"/><path d="M32.8994 40.2552c.1563.0849.2922.1364.3042.1153.0119-.0212-.1051-.108-.2615-.1922-.1564-.0841-.0947-.023-.1063 0-.0115.0231-.0928-.0084.0636.0769z" fill="#FFD037"/><path d="M33.2691 42.4801s1.081-.0331 1.4068-.2648c.3258-.2317 1.6629-.5081 1.7438-.1368.0809.3712 1.6248 1.8466.404 1.8566-1.2208.01-2.836-.1899-3.161-.3874-.3251-.1975-.3936-1.0676-.3936-1.0676z" fill="#A8A8A8"/><path opacity=".2" d="M36.8456 43.8059c-1.2204.01-2.836-.1898-3.161-.3874-.2476-.1506-.3466-.6917-.3793-.94h-.0362s.0681.8716.3936 1.0699c.3254.1983 1.9405.3974 3.161.3874.3524-.0027.474-.128.4671-.3132-.0485.1115-.1829.1814-.4452.1833z" fill="#000"/><path d="M27.2898 22.4774l-1.1838 3.3397 5.4457 1.9223 1.1838-3.3398-5.4457-1.9222z" fill="url(#paint0_linear)"/><path d="M27.3273 22.584l-1.1049 3.1169 5.2613 1.8572 1.1048-3.117-5.2612-1.8571z" fill="#F4F6F7"/><g opacity=".6" fill="#F9A826"><path opacity=".6" d="M27.2956 23.3989l.6696.2364.1751-.4942-.6695-.2364-.1752.4942zM27.5036 24.5547l2.5701.9072.0568-.1601-2.5702-.9073-.0567.1602zM28.102 25.2777l1.8687.6547.0375-.1066-1.8687-.6546-.0375.1065z"/></g><path d="M35.3907 21.1499l-5.388 2.0779 1.2798 3.3044 5.3879-2.078-1.2797-3.3043z" fill="url(#paint1_linear)"/><path d="M35.3064 21.2771l-5.2055 2.0076 1.1943 3.0839 5.2055-2.0076-1.1943-3.0839z" fill="#fff"/><g opacity=".6" fill="#F9A826"><path opacity=".6" d="M30.6064 23.9183l.6624-.2555-.1894-.4889-.6624.2555.1894.4889zM31.5185 24.6604l2.5429-.9807-.0613-.1585-2.5429.9808.0613.1584zM32.3402 24.7381l1.8543-.7152-.041-.1057-1.8543.7151.041.1058z"/></g><path d="M27.1895 19.0143l-.4793 3.5101 5.7234.7783.4793-3.5101-5.7234-.7783z" fill="url(#paint2_linear)"/><path d="M27.3814 19.1673l-.4639 3.2731 5.5249.7797.4638-3.2732-5.5248-.7796z" fill="#fff"/><g opacity=".6" fill="#F9A826"><path opacity=".6" d="M27.3827 19.9148l.7036.0957.071-.5194-.7037-.0957-.0709.5194zM27.8217 21.0042l2.7013.3674.023-.1683-2.7013-.3674-.023.1683zM28.5035 21.469l1.9697.2678.0154-.1123-1.9698-.2679-.0153.1124z"/></g><path d="M18.1185 24.8258l-.4793 3.5101 5.7234.7783.4793-3.5101-5.7234-.7783z" fill="url(#paint3_linear)"/><path d="M18.1774 24.9228l-.4473 3.2759 5.5296.752.4473-3.276-5.5296-.7519z" fill="#fff"/><g opacity=".6" fill="#F9A826"><path opacity=".6" d="M18.3111 25.7261l.7037.0957.0709-.5194-.7037-.0957-.0709.5194zM18.8406 26.7392l2.6989.3809.0239-.1681-2.699-.3809-.0238.1681zM19.4315 27.28l1.9697.2679.0154-.1124-1.9698-.2678-.0153.1123z"/></g><path d="M16.9334 21.0714l-.4793 3.5101 5.7234.7784.4794-3.5102-5.7235-.7783z" fill="url(#paint4_linear)"/><path d="M16.992 21.1679l-.4473 3.2759 5.5295.752.4474-3.2759-5.5296-.752z" fill="#fff"/><g opacity=".6" fill="#F9A826"><path opacity=".6" d="M17.1264 21.9715l.7036.0956.071-.5194-.7037-.0956-.0709.5194zM17.565 23.0614l2.7012.3673.023-.1683-2.7013-.3673-.0229.1683zM18.2467 23.5256l1.9698.2679.0153-.1124-1.9697-.2678-.0154.1123z"/></g><path d="M27.0925 22.1167l-5.5356 1.6467 1.0142 3.3949 5.5356-1.6467-1.0142-3.3949z" fill="url(#paint5_linear)"/><path d="M26.9984 22.2366l-5.3481 1.591.9465 3.1685 5.3481-1.5911-.9465-3.1684z" fill="#F4F6F7"/><g opacity=".6" fill="#F9A826"><path opacity=".6" d="M22.1045 24.4991l.6806-.2025-.1501-.5023-.6806.2024.1501.5024zM22.9551 25.3107l2.6126-.7773-.0486-.1627-2.6126.7772.0486.1628zM23.7682 25.453l1.9051-.5668-.0325-.1086-1.9051.5667.0325.1087z"/></g><path d="M18.7941 23.1962l-5.5356 1.6468 1.0142 3.3949 5.5356-1.6467-1.0142-3.395z" fill="url(#paint6_linear)"/><path d="M18.6995 23.3162l-5.3481 1.591.9465 3.1684 5.3481-1.591-.9465-3.1684z" fill="#F4F6F7"/><g opacity=".6" fill="#F9A826"><path opacity=".6" d="M13.8065 25.5804l.6806-.2025-.1501-.5023-.6806.2024.1501.5024zM14.657 26.3912l2.6126-.7772-.0486-.1628-2.6126.7773.0486.1627zM15.3846 26.5692l1.9084-.5753-.033-.1088-1.9084.5753.033.1088z"/></g><path d="M41.3186 13.0751l-5.3879 2.078 1.2797 3.3044 5.388-2.078-1.2798-3.3044z" fill="url(#paint7_linear)"/><path d="M41.2343 13.2022l-5.2055 2.0075 1.1944 3.0839 5.2054-2.0075-1.1943-3.0839z" fill="#fff"/><g opacity=".6" fill="#F9A826"><path opacity=".6" d="M36.533 15.8429l.6624-.2555-.1893-.489-.6624.2555.1893.489zM37.4452 16.5845l2.5429-.9807-.0614-.1585-2.5429.9807.0614.1585zM38.2668 16.6626l1.8543-.7151-.0409-.1057-1.8543.7151.0409.1057z"/></g><path d="M28.8392 16.6704l-3.7495 1.4461.8906 2.2995 3.7495-1.446-.8906-2.2996z" fill="url(#paint8_linear)"/><path d="M28.7804 16.7585l-3.6224 1.397.8311 2.1462 3.6224-1.397-.8311-2.1462z" fill="#fff"/><g opacity=".6" fill="#F9A826"><path opacity=".6" d="M25.5094 18.5964l.4609-.1777-.1317-.3402-.4609.1778.1317.3401zM26.1441 19.1126l1.7696-.6824-.0428-.1104-1.7695.6824.0427.1104zM26.7157 19.1668l1.2903-.4976-.0285-.0735-1.2903.4976.0285.0735z"/></g><path d="M12.3451 20.5268l-3.7496 1.4461.8906 2.2996 3.7496-1.4461-.8906-2.2996z" fill="url(#paint9_linear)"/><path d="M12.286 20.6152l-3.6224 1.397.8311 2.1462 3.6224-1.397-.8311-2.1462z" fill="#fff"/><g opacity=".6" fill="#F9A826"><path opacity=".6" d="M9.0167 22.4551l.4608-.1778-.1317-.3401-.4609.1777.1318.3402zM9.651 22.971l1.7695-.6824-.0428-.1104-1.7695.6824.0428.1104zM10.2229 23.0255l1.2903-.4977-.0285-.0735-1.2903.4977.0285.0735z"/></g><path d="M37.5499 19.4485l-3.7495 1.446.8906 2.2996 3.7495-1.446-.8906-2.2996z" fill="url(#paint10_linear)"/><path d="M37.4912 19.5368l-3.6224 1.397L34.7 23.08l3.6224-1.397-.8312-2.1462z" fill="#F4F6F7"/><g opacity=".6" fill="#F9A826"><path opacity=".6" d="M34.2201 21.3731l.4609-.1778-.1317-.3402-.4609.1778.1317.3402zM34.8545 21.8892l1.7695-.6824-.0428-.1104-1.7695.6824.0428.1104zM35.4264 21.9437l1.2903-.4977-.0285-.0734-1.2903.4976.0285.0735z"/></g><path d="M30.8494 13.8415l-3.7496 1.4461.8906 2.2996 3.7496-1.4461-.8906-2.2996z" fill="url(#paint11_linear)"/><path d="M30.7905 13.9296l-3.6224 1.3971.8312 2.1461 3.6224-1.397-.8312-2.1462z" fill="#F4F6F7"/><g opacity=".6" fill="#F9A826"><path opacity=".6" d="M27.5192 15.7673l.4608-.1777-.1317-.3402-.4609.1778.1318.3401zM28.1538 16.2835l1.7696-.6824-.0428-.1104-1.7695.6824.0427.1104zM28.7257 16.3377l1.2904-.4976-.0285-.0735-1.2903.4976.0284.0735z"/></g><path d="M43.7867 14.5107l-3.7495 1.4461.8906 2.2996 3.7495-1.4461-.8906-2.2996z" fill="url(#paint12_linear)"/><path d="M43.7279 14.5993l-3.6224 1.397.8312 2.1462 3.6223-1.397-.8311-2.1462z" fill="#F4F6F7"/><g opacity=".6" fill="#F9A826"><path opacity=".6" d="M40.4564 16.4351l.4609-.1778-.1318-.3402-.4608.1778.1317.3402zM41.0907 16.9512l1.7695-.6824-.0427-.1104-1.7695.6824.0427.1104zM41.6628 17.0059l1.2903-.4976-.0285-.0735-1.2903.4976.0285.0735z"/></g><path d="M12.7577 15.5893l-3.7495 1.4461.8906 2.2996 3.7495-1.4461-.8906-2.2996z" fill="url(#paint13_linear)"/><path d="M12.699 15.6777l-3.6224 1.397.8312 2.1462 3.6224-1.397-.8312-2.1462z" fill="#F4F6F7"/><g opacity=".6" fill="#F9A826"><path opacity=".6" d="M9.4285 17.5173l.4609-.1777-.1317-.3402-.461.1778.1318.3401zM10.0632 18.0335l1.7695-.6824-.0427-.1104-1.7695.6824.0427.1104zM10.6348 18.088l1.2903-.4977-.0285-.0735-1.2903.4977.0285.0735z"/></g><path d="M19.5102 18.9625l-.4793 3.5102 5.7234.7783.4793-3.5102-5.7234-.7783z" fill="url(#paint14_linear)"/><path d="M19.5687 19.0598l-.4474 3.2759 5.5296.7519.4474-3.2759-5.5296-.7519z" fill="#fff"/><g opacity=".6" fill="#F9A826"><path opacity=".6" d="M19.7033 19.8628l.7036.0957.0709-.5194-.7036-.0957-.0709.5194zM20.1423 20.9527l2.7012.3674.023-.1683-2.7012-.3674-.023.1683zM20.824 21.4174l1.9698.2679.0153-.1123-1.9698-.2679-.0153.1123z"/></g><path d="M24.7538 29.0039a2.471 2.471 0 0 0-.7436-1.5327c-.5061-.49-1.4007-1.1398-2.8884-1.6214-2.717-.8804-3.7402-1.6548-4.9398-3.7662l-1.0587-2.6056v1.1971l-.6705-2.5364s-.3 2.6936.6162 4.8423c0 0-.4587.3873 0 1.0564 0 0-1.0938-.176-.1764 1.6199l.7764 1.1268s-.7764.352.3177 1.5845l.6366.5976s-1.5174.4931.4941 2.2536c0 0 2.5756 2.0776 4.6576 1.4788 1.8235-.5257 3.159-1.8324 2.9788-3.6947z" fill="url(#paint15_linear)"/><path d="M24.6283 28.9182a2.4118 2.4118 0 0 0-.7264-1.4954c-.4937-.478-1.3667-1.1121-2.8163-1.5822-2.6511-.8589-3.6493-1.614-4.8201-3.6763l-1.0329-2.5422v1.1683l-.6546-2.4737s-.2927 2.6282.6023 4.7239c0 0-.4475.3777 0 1.0307 0 0-1.0672-.1718-.1722 1.5803l.7575 1.0995s-.7575.3435.3081 1.546l.6197.5842s-1.4804.4812.4821 2.1986c0 0 2.5133 2.0269 4.5444 1.4431 1.7811-.5111 3.0844-1.7859 2.9084-3.6048z" fill="#DFE5EE"/><path d="M16.8343 24.9303l-1.9968-4.913s.2064 2.3362.7229 3.3328c0 0-.6547-.4466.2753 1.443 0 0-1.9968-1.5114 0 1.5461l.7918.756s-1.4068-.6015-.6797.6148a3.4408 3.4408 0 0 0 1.113 1.1349l.5996.3809s-1.9968-.6184-.6886 1.2025c0 0 1.4115 1.34 2.3069 1.443 0 0-2.3069-1.4772-1.7558-2.0268.5511-.5496 2.0658.4112 2.0658.4112s-2.6854-1.8551-2.5476-2.3362c.1379-.4812 1.4461.6183 1.4461.6183s-2.7543-2.6455-2.6164-3.0575c.1378-.412.2064-.4466 1.1018.4466 0 0-1.1708-1.6491-.9986-1.8897.1721-.2406.8603.8931.8603.8931z" fill="#EBF1F6"/><path d="M23.6512 30.9082s1.9256-2.2674-1.8246-3.5741a19.0025 19.0025 0 0 1-2.764-1.1998 6.789 6.789 0 0 1-2.0762-1.7181 6.7729 6.7729 0 0 1-1.2423-2.389c-.0928-.3263-.1356-.5723-.0805-.6368 0 0 1.1361 3.0233 3.5118 4.0883l3.1329 1.1683s3.5808 1.3412 1.3429 4.2612z" fill="#EBF1F6"/><path d="M25.7505 29.0039a2.471 2.471 0 0 1 .7436-1.5326c.5061-.49 1.4007-1.1399 2.8884-1.6214 2.717-.8805 3.7402-1.6548 4.9398-3.7662l1.056-2.6072v1.1971l.6705-2.5364s.3 2.6936-.6162 4.8423c0 0 .4587.3874 0 1.0565 0 0 1.0938-.1761.1764 1.6198l-.7764 1.1268s.7768.3524-.3181 1.5857l-.635.5987s1.5173.4931-.4941 2.2536c0 0-2.5757 2.0776-4.6576 1.4788-1.822-.5265-3.1579-1.8331-2.9773-3.6955z" fill="url(#paint16_linear)"/><path d="M25.8756 28.9182a2.4118 2.4118 0 0 1 .7256-1.4954c.4937-.478 1.3668-1.1121 2.8163-1.5822 2.6512-.8589 3.6494-1.614 4.8201-3.6763l1.0329-2.5422v1.1683l.6547-2.4737s.2927 2.6282-.6023 4.7239c0 0 .4475.3777 0 1.0307 0 0 1.0671-.1718.1721 1.5803l-.7575 1.0995s.7575.3435-.3081 1.546l-.6196.5842s1.4803.4812-.4822 2.1986c0 0-2.5133 2.0269-4.5443 1.4431-1.7804-.5111-3.0836-1.7859-2.9077-3.6048z" fill="#DFE5EE"/><path d="M33.67 24.9303l1.9968-4.913s-.2064 2.3362-.7229 3.3328c0 0 .6547-.4466-.2753 1.443 0 0 1.9968-1.5114 0 1.5461l-.7922.7556s1.4068-.6015.6797.6149a3.4405 3.4405 0 0 1-1.113 1.1348l-.5996.3809s1.9957-.6188.6886 1.2021c0 0-1.4114 1.3401-2.3068 1.4431 0 0 2.3068-1.4773 1.7557-2.0269-.5511-.5495-2.0657.4124-2.0657.4124s2.6854-1.8551 2.5475-2.3362c-.1379-.4812-1.4461.6183-1.4461.6183s2.7543-2.6456 2.6164-3.0575c-.1378-.412-.2064-.4466-1.1018.4465 0 0 1.1708-1.649.9986-1.8896-.1721-.2406-.8599.8927-.8599.8927z" fill="#EBF1F6"/><path d="M26.8531 30.9082s-1.9256-2.2674 1.8246-3.5741a19.0025 19.0025 0 0 0 2.764-1.1998 6.7896 6.7896 0 0 0 2.076-1.7182 6.7711 6.7711 0 0 0 1.2421-2.3889c.0928-.3263.1356-.5723.0805-.6368 0 0-1.1361 3.0233-3.5118 4.0883l-3.1329 1.1683s-3.5804 1.3412-1.3425 4.2612z" fill="#EBF1F6"/><path d="M24.3171 32.9131a.037.037 0 0 0 .0433.0055.1475.1475 0 0 1-.0433-.0055z" fill="url(#paint17_linear)"/><path d="M29.0193 25.2865a8.2731 8.2731 0 0 1-.3439-.1126 1.7996 1.7996 0 0 0 .3189-.6411l-.0123.0046c.0042-.0142.0085-.0284.0123-.0426-.2734.1107-.5777-.0769-.7702-.3182-.1926-.2414-.3235-.5404-.5346-.7625a2.4424 2.4424 0 0 0-.2834-.2433c-.0624-.048-.1294-.098-.2053-.1003-.1232-.0034-.2195.1153-.3385.1538a.4634.4634 0 0 1-.2361-.0089c-.3057-.0699-.6011-.1994-.9119-.2332a1.0706 1.0706 0 0 0-.4949.0557c-.1567.0595-.2284.1775-.3554.2725-.1368.1018-.409.0995-.57.1176a4.092 4.092 0 0 1-.5888.0242 1.3832 1.3832 0 0 0-.3389.0126c-.2338.0512-.4237.2368-.5974.4151a.3071.3071 0 0 0-.0985.1537.19.19 0 0 0 0 .0511.3314.3314 0 0 0 .0234.1357c.0541.1599.1304.3114.2269.45.0716.1022.154.1987.1956.3198a.6186.6186 0 0 1 .0301.184 1.343 1.343 0 0 1-.0208.198 2.4868 2.4868 0 0 1-.1518.5269c-.0385.0899-.0801.1798-.0886.2782a.4437.4437 0 0 0 0 .0588c-.0115.304.2958.5227.3551.8247a.4852.4852 0 0 1 .0085.0769c-.0066.1883-.1155.3728-.2727.4454.0139.0054.0281.01.0424.015a.3938.3938 0 0 1-.0424.023.996.996 0 0 0 .0886.0289 2.0545 2.0545 0 0 0-.449.5491c-.5307.99-4.1439 2.9323-4.1439 2.9323s.0205.0112.0536.0304l-.0435.028c-.3128.2076-1.0472.8132-.3852 1.5788 0 0 .5184-.8159.8812-1.1637.0162-.0154.0319-.03.0477-.0434a.1054.1054 0 0 1 .0139.0837l2.3769-1.3327s.8446-.5903 1.0803-.7237c.0812-.0457.288-.1729.5357-.2306l-.0278.0115a1.0877 1.0877 0 0 1 .2727-.0384c.4209.0066.8765.314 1.0267 1.5319.2014 1.631.1078 1.925.0435 1.9653a.1155.1155 0 0 1-.0219-.0023.0337.0337 0 0 0 .0061.0046.1194.1194 0 0 1-.0258-.0046.0385.0385 0 0 0 .0351.0085.033.033 0 0 0 .0266-.0031.2759.2759 0 0 0 .0315 0 .3418.3418 0 0 1-.0031.0457c-.003 0-.0188.0085-.0019.0096a3.0553 3.0553 0 0 0 0 .2967 118.382 118.382 0 0 0-.6008.035l.0162-.0861.0073-.0384c.1606-.0127.3127-.06.3309-.1899.0385-.2855-.3536-.4377-.6875-.4569-.3339-.0192-2.3376.1153-2.3376.1153s-.3004.3881.6524.5084a2.407 2.407 0 0 1 .0882.0481c.3731.2125.8796.6029 1.1222.7959l.0339.0269-.109.0864c.5892.1334 1.1588 2.3801 1.4734 3.4081.3147 1.028 1.0013.99 1.5717.8378.5337-.143.6019-1.691.6085-1.8831v-.02l.9493 1.1679.072.0888c.0277.0143.0551.0279.082.0407.719.3413 1.5131-.3132 1.2871-1.0576-.2284-.7521-.5827-1.8635-.8192-2.3339-.1979-.3935-.4536-1.0473-.6088-1.4569a.5068.5068 0 0 0 .0585-.0281l-.0096-.0519.0096-.0053s-.2284-1.1845-.2411-2.0257v-.0442-.0273a4.196 4.196 0 0 1 .2804-.0542l.0031-.0384-.0201.0042.0955-1.0911s.3505-.7444.0821-1.0545a.6493.6493 0 0 1-.1575-.3221c-.0447-.2851 0-.7605.6254-1.1556.9628-.6091 1.3359-1.1041 1.3359-1.1041s.0201-.3639-.5692-.5353zm-1.9113.7567v-.5042c.1787-.0089.3609.0119.5392 0a1.3704 1.3704 0 0 0 .2607-.0435l.0431.03a4.749 4.749 0 0 1-.843.5177zm-2.7293 7.9025c.0709.0488.1417.0995.2114.1503.0432.2486.0817.4227.0844.4366a3.4475 3.4475 0 0 0-.2958-.5869z" fill="url(#paint18_linear)"/><path d="M25.9045 33.5315l-.0416.2252-.0315.1722-.0582.3151-.5638.3939s-.0508-.043-.1348-.1118c-.2311-.1899-.7167-.5765-1.0733-.784a1.2048 1.2048 0 0 0-.295-.1357l2.1982-.0749z" fill="#FFBDC6"/><path opacity=".1" d="M25.9045 33.5315l-.0416.2252a1.7612 1.7612 0 0 1-.372-.0188l-1.3155.0188a4.0221 4.0221 0 0 1-.1749-.0142 1.1994 1.1994 0 0 0-.295-.1357l2.199-.0753z" fill="#000"/><path d="M25.4905 33.7002s.6578.1126.6952-.1687c.0373-.2814-.3382-.4312-.6578-.4501-.3197-.0188-2.2364.1126-2.2364.1126s-.3381.4501.8831.525l1.3159-.0188z" fill="#7679B4"/><path opacity=".1" d="M25.9045 33.5315l-.0416.2252-.0315.1722-.0582.3151-.5638.3939s-.0508-.043-.1348-.1118c-.2311-.1899-.7167-.5765-1.0733-.784a1.2048 1.2048 0 0 0-.295-.1357l2.1982-.0749z" fill="#000"/><path opacity=".1" d="M25.9045 33.5315l-.0416.2252a1.7612 1.7612 0 0 1-.372-.0188l-1.3155.0188a4.0221 4.0221 0 0 1-.1749-.0142 1.1994 1.1994 0 0 0-.295-.1357l2.199-.0753z" fill="#000"/><path opacity=".1" d="M25.4905 33.7002s.6578.1126.6952-.1687c.0373-.2814-.3382-.4312-.6578-.4501-.3197-.0188-2.2364.1126-2.2364.1126s-.3381.4501.8831.525l1.3159-.0188z" fill="#000"/><path d="M26.9285 24.4551h-3.439v4.0694h3.439v-4.0694z" fill="#A66477"/><path opacity=".1" d="M26.9285 24.4551h-3.439v4.0694h3.439v-4.0694z" fill="#000"/><path d="M19.4585 31.4219c-.0566.0143-.129.0688-.2095.148-.3466.3424-.843 1.146-.843 1.146-.6347-.7544.0658-1.3501.367-1.5553.0728-.0496.1217-.0769.1217-.0769l.5638.3382zM25.866 25.74s.1691 1.1814.7518 1.4627c.5826.2813-.7518.807-.7518.807l-1.8227-.6752s1.0336-.3374.8268-1.3316l.9959-.2629zM23.912 32.8469l-.0416.2252-.0316.1722-.0582.3151-.5638.3939s-.0508-.043-.1348-.1118c-.231-.1898-.7167-.5764-1.0733-.784a1.2028 1.2028 0 0 0-.295-.1356l2.1983-.075z" fill="#FFBDC6"/><path opacity=".1" d="M23.912 32.8469l-.0416.2252a1.7552 1.7552 0 0 1-.3721-.0188l-1.3155.0188a3.8828 3.8828 0 0 1-.1749-.0142 1.2041 1.2041 0 0 0-.2949-.1357l2.199-.0753z" fill="#000"/><path d="M23.4987 33.0156s.6578.1126.6952-.1687c.0373-.2813-.3382-.4312-.6578-.45-.3197-.0189-2.2364.1126-2.2364.1126s-.3381.45.8831.5249l1.3159-.0188z" fill="#7679B4"/><path opacity=".1" d="M23.8388 33.2448l-.0582.3151-.5638.3939s-.0508-.043-.1348-.1118l.7456-.6103.0112.0131z" fill="#000"/><path d="M27.5605 37.5379a5.524 5.524 0 0 1-.077-.0385l-.0689-.0872-.9093-1.1522v.0196c-.0062.1922-.0712 1.7148-.5819 1.8555-.5449.1499-1.2027.1875-1.5019-.8251-.2993-1.0127-.8473-3.2255-1.4096-3.3566l.8361-.6844s.5538.6464.7799 1.2651c-.0085-.0384-.3909-1.822-.0751-2.1371h2.742s.4236 1.2036.714 1.8001c.2261.4631.5653 1.558.7837 2.2989.216.7333-.5434 1.3781-1.232 1.0419z" fill="#7679B4"/><path opacity=".1" d="M27.4835 32.7342c-.4236.2502-2.2833.1484-2.8883.1077l-.1645-.012c-.0177 0 .0027-.0099.0027-.0099l.0169-.1703.451-1.1441 2.4147-1.397c-.0489.1472-.0655.3724-.0616.6303.0096.829.2291 1.9953.2291 1.9953z" fill="#000"/><path d="M27.4835 32.6782c-.4236.2501-2.2833.1483-2.8883.1076l-.1645-.0119-.0273-.002.03-.0077.1483-.0384.3196-1.2751 2.4147-1.397c-.0489.1472-.0655.3724-.0616.6303.0096.8278.2291 1.9942.2291 1.9942z" fill="#F2F1F2"/><path opacity=".1" d="M27.2524 30.6832c-.491.113-1.5716.4447-1.9868 1.2452-.2769.5334-.5099.7621-.6724.8578l-.1644-.012.0027-.01.1483-.0384.3196-1.2751 2.4147-1.397c-.0497.146-.0659.3713-.0617.6295zM18.8955 31.084l.5638.3374c-.0566.0142-.129.0688-.2095.148-.047-.1368-.3424-.3278-.476-.4089.072-.0496.1217-.0765.1217-.0765zM24.3288 32.7963a.035.035 0 0 1-.0398-.0055.1406.1406 0 0 0 .0398.0055z" fill="#000"/><path d="M25.6034 27.1278s-.5072.0561-.8646-.319c0 0-1.5019.4312-2.0107 1.4066-.5087.9753-3.9666 2.888-3.9666 2.888s.6011.3375.5449.5062l2.2722-1.3128s.8087-.5815 1.0336-.7125c.2249-.1311 1.4657-.9378 1.7288 1.2563.263 2.194 0 1.9315 0 1.9315s.3758.1314.9208-.9189c.5449-1.0503 2.2394-1.2943 2.2394-1.2943l.094-1.1065s.3354-.7332.077-1.0376a.6482.6482 0 0 1-.1506-.3174c-.0427-.281 0-.749.5981-1.138.9208-.5999 1.2778-1.0876 1.2778-1.0876s.0189-.3562-.5449-.5249c-.5638-.1687-2.8564-1.0876-2.8564-1.0876l-.077.319 1.8038 1.2751s-.9019.7302-1.6174.7125c.0054-.0008.1367.543-.5022.5619z" fill="#565388"/><path opacity=".1" d="M25.9515 26.2545a3.6875 3.6875 0 0 1-.104-.4581l-.9959.2625a1.0935 1.0935 0 0 1-.0227.5734c.2036.0542.4187.0473.6184-.0199a1.0708 1.0708 0 0 0 .5042-.3579z" fill="#000"/><path d="M25.1243 26.6114c.5915 0 1.071-.4785 1.071-1.0688 0-.5902-.4795-1.0687-1.071-1.0687-.5915 0-1.071.4785-1.071 1.0687 0 .5903.4795 1.0688 1.071 1.0688z" fill="#FFBDC6"/><path opacity=".1" d="M25.6939 23.1125c.2973.0334.5799.161.8722.2305a.4324.4324 0 0 0 .2257.0085c.1156-.035.2061-.1537.3239-.1503.0728.0023.1367.0515.1964.0988a2.351 2.351 0 0 1 .2696.2398c.2018.2187.327.5131.5114.7509.1845.2379.4745.4228.736.3136-.1779.6918-.7606 1.2187-1.3911 1.2617-.2514.0173-.5091-.0353-.7525.0385a.6607.6607 0 0 1-.1898.0461c-.1402 0-.253-.1284-.3405-.2533-.2048-.2936-.367-.6268-.5977-.8947-.077-.0883-.1659-.1725-.2738-.1887-.1078-.0161-.2068.035-.3027.0846-.1583.0819-.3204.1664-.4429.3074-.1224.1411-.1998.3498-.1494.5381.0274.1022.0897.1944.0909.3013.0019.1702-.1487.2951-.1787.4611a1.7727 1.7727 0 0 0-.0073.2099c-.0131.2275-.1621.4139-.3177.5568-.0605.0558-.1275.1153-.1452.201-.012.0588 0 .1207-.0077.1803-.0227.1476-.1702.2225-.3008.2417a.8738.8738 0 0 1-.4513-.0534c.1825-.0865.2946-.3313.2526-.5511-.0582-.3044-.3647-.5227-.3389-.8328a.961.961 0 0 1 .0847-.274 2.4986 2.4986 0 0 0 .1452-.5192c.0227-.1372.0339-.2829-.0089-.4139-.0385-.1192-.119-.2141-.1871-.3148a1.7849 1.7849 0 0 1-.2157-.4423.3107.3107 0 0 1-.0208-.1468.3036.3036 0 0 1 .0944-.1518c.1679-.1756.3466-.3586.5711-.4085a1.2808 1.2808 0 0 1 .3243-.0123c.1881.006.3764-.002.5634-.0239.154-.018.4144-.0153.5453-.1153.1217-.0933.1899-.2098.3401-.269a.9968.9968 0 0 1 .4733-.0545zM26.2897 34.1506s.62 1.2191.4321 1.5941l-.4321-1.5941zM27.4138 37.4102l-.9085-1.1502v.0196s-.0524-.372.1206-.2471c.3789.2736.9851.7221.9982.7993.0131.0773-.1229.3874-.2103.5784z" fill="#000"/><g opacity=".1" fill="#000"><path opacity=".1" d="M26.1294 26.5653s.0771.3167-.1713.475c.3812-.0653.3982-.3613.3851-.49a1.2145 1.2145 0 0 1-.2138.015zM18.9887 31.0281s3.4575-1.9127 3.9666-2.8881c.364-.6998 1.2412-1.1195 1.7076-1.3009-.34.1153-1.4842.5496-1.914 1.3758-.5072.975-3.9667 2.8881-3.9667 2.8881l.2065-.0749zM26.8015 26.4161c.5884-.1826 1.1507-.6388 1.1507-.6388l-1.8039-1.2751.0412-.1749-.1729-.0688-.077.319 1.8039 1.2752a4.3594 4.3594 0 0 1-.942.5634zM26.813 30.7375a4.485 4.485 0 0 1 .709-.1787l.0031-.0361a4.8012 4.8012 0 0 0-.7121.2148zM24.6263 32.7022h-.0165a.034.034 0 0 1-.0385-.0054.1393.1393 0 0 0 .0385.0054c.0616-.0358.154-.3159-.0385-1.9369-.2076-1.7294-1.0225-1.5945-1.4685-1.3955.456-.1253 1.0834-.0169 1.2617 1.4704.1925 1.621.1016 1.9008.0385 1.9369a.4168.4168 0 0 0 .2233-.0749zM24.4038 32.7778a.1442.1442 0 0 1-.0397-.0056.035.035 0 0 0 .0397.0056z"/></g><path d="M25.6939 23.0748c.2973.0334.5799.161.8722.2306a.4313.4313 0 0 0 .2257.0084c.1156-.0349.2061-.1537.3239-.1502.0728.0023.1367.0515.1964.0988a2.351 2.351 0 0 1 .2696.2398c.2018.2186.327.513.5114.7509.1845.2379.4745.4227.736.3136-.1779.6918-.7606 1.2186-1.3911 1.2617-.2514.0173-.5091-.0354-.7525.0384a.6574.6574 0 0 1-.1898.0461c-.1402 0-.253-.1283-.3405-.2532-.2048-.2936-.367-.6268-.5977-.8947-.077-.0884-.1659-.1726-.2738-.1887-.1078-.0161-.2068.035-.3027.0846-.1583.0818-.3204.1664-.4429.3074-.1224.141-.1998.3497-.1494.538.0274.1023.0897.1945.0909.3013.0019.1703-.1487.2952-.1787.4612a1.7703 1.7703 0 0 0-.0073.2098c-.0131.2275-.1621.4139-.3177.5569-.0605.0557-.1275.1153-.1452.201-.012.0588 0 .1207-.0077.1802-.0227.1476-.1702.2225-.3008.2418a.8728.8728 0 0 1-.4513-.0535c.1825-.0864.2946-.3312.2526-.5511-.0582-.3043-.3647-.5226-.3389-.8328a.962.962 0 0 1 .0847-.274 2.4952 2.4952 0 0 0 .1452-.5192c.0227-.1372.0339-.2828-.0089-.4139-.0385-.1191-.119-.214-.1871-.3147a1.7866 1.7866 0 0 1-.2157-.4431.3107.3107 0 0 1-.0208-.1468.3036.3036 0 0 1 .0944-.1518c.1679-.1757.3466-.3586.5711-.4086a1.2854 1.2854 0 0 1 .3243-.0123 3.7879 3.7879 0 0 0 .5634-.0238c.154-.018.4144-.0154.5453-.1153.1217-.0934.1899-.2098.3401-.269a.9967.9967 0 0 1 .4733-.0538z" fill="#A66477"/></g><defs><filter id="filter0_i" x=".2294" y="0" width="52.2912" height="56.2912" filterUnits="userSpaceOnUse" color-interpolation-filters="sRGB"><feFlood flood-opacity="0" result="BackgroundImageFix"/><feBlend in="SourceGraphic" in2="BackgroundImageFix" result="shape"/><feColorMatrix in="SourceAlpha" values="0 0 0 0 0 0 0 0 0 0 0 0 0 0 0 0 0 0 127 0" result="hardAlpha"/><feOffset dy="7"/><feGaussianBlur stdDeviation="2"/><feComposite in2="hardAlpha" operator="arithmetic" k2="-1" k3="1"/><feColorMatrix values="0 0 0 0 0.14902 0 0 0 0 0 0 0 0 0 0.337255 0 0 0 0.25 0"/><feBlend in2="shape" result="effect1_innerShadow"/></filter><linearGradient id="paint0_linear" x1="28.829" y1="26.7783" x2="30.0085" y2="23.437" gradientUnits="userSpaceOnUse"><stop stop-color="gray" stop-opacity=".25"/><stop offset=".54" stop-color="gray" stop-opacity=".12"/><stop offset="1" stop-color="gray" stop-opacity=".1"/></linearGradient><linearGradient id="paint1_linear" x1="521.866" y1="1156.81" x2="404.33" y2="852.043" gradientUnits="userSpaceOnUse"><stop stop-color="gray" stop-opacity=".25"/><stop offset=".54" stop-color="gray" stop-opacity=".12"/><stop offset="1" stop-color="gray" stop-opacity=".1"/></linearGradient><linearGradient id="paint2_linear" x1="713.188" y1="1364.16" x2="784.788" y2="837.641" gradientUnits="userSpaceOnUse"><stop stop-color="gray" stop-opacity=".25"/><stop offset=".54" stop-color="gray" stop-opacity=".12"/><stop offset="1" stop-color="gray" stop-opacity=".1"/></linearGradient><linearGradient id="paint3_linear" x1="-169.382" y1="2306.88" x2="-97.7821" y2="1780.36" gradientUnits="userSpaceOnUse"><stop stop-color="gray" stop-opacity=".25"/><stop offset=".54" stop-color="gray" stop-opacity=".12"/><stop offset="1" stop-color="gray" stop-opacity=".1"/></linearGradient><linearGradient id="paint4_linear" x1="-249.151" y1="1753.25" x2="-177.551" y2="1226.73" gradientUnits="userSpaceOnUse"><stop stop-color="gray" stop-opacity=".25"/><stop offset=".54" stop-color="gray" stop-opacity=".12"/><stop offset="1" stop-color="gray" stop-opacity=".1"/></linearGradient><linearGradient id="paint5_linear" x1="347.5" y1="1329.8" x2="254.37" y2="1016.75" gradientUnits="userSpaceOnUse"><stop stop-color="gray" stop-opacity=".25"/><stop offset=".54" stop-color="gray" stop-opacity=".12"/><stop offset="1" stop-color="gray" stop-opacity=".1"/></linearGradient><linearGradient id="paint6_linear" x1="-866.919" y1="1564.16" x2="-960.048" y2="1251.11" gradientUnits="userSpaceOnUse"><stop stop-color="gray" stop-opacity=".25"/><stop offset=".54" stop-color="gray" stop-opacity=".12"/><stop offset="1" stop-color="gray" stop-opacity=".1"/></linearGradient><linearGradient id="paint7_linear" x1="1515.31" y1="231.411" x2="1397.77" y2="-73.3522" gradientUnits="userSpaceOnUse"><stop stop-color="gray" stop-opacity=".25"/><stop offset=".54" stop-color="gray" stop-opacity=".12"/><stop offset="1" stop-color="gray" stop-opacity=".1"/></linearGradient><linearGradient id="paint8_linear" x1="-159.959" y1="488.88" x2="-216.882" y2="341.281" gradientUnits="userSpaceOnUse"><stop stop-color="gray" stop-opacity=".25"/><stop offset=".54" stop-color="gray" stop-opacity=".12"/><stop offset="1" stop-color="gray" stop-opacity=".1"/></linearGradient><linearGradient id="paint9_linear" x1="-1830.84" y1="976.767" x2="-1887.76" y2="829.168" gradientUnits="userSpaceOnUse"><stop stop-color="gray" stop-opacity=".25"/><stop offset=".54" stop-color="gray" stop-opacity=".12"/><stop offset="1" stop-color="gray" stop-opacity=".1"/></linearGradient><linearGradient id="paint10_linear" x1="658.948" y1="569.745" x2="602.025" y2="422.147" gradientUnits="userSpaceOnUse"><stop stop-color="gray" stop-opacity=".25"/><stop offset=".54" stop-color="gray" stop-opacity=".12"/><stop offset="1" stop-color="gray" stop-opacity=".1"/></linearGradient><linearGradient id="paint11_linear" x1="74.8371" y1="263.566" x2="17.9142" y2="115.967" gradientUnits="userSpaceOnUse"><stop stop-color="gray" stop-opacity=".25"/><stop offset=".54" stop-color="gray" stop-opacity=".12"/><stop offset="1" stop-color="gray" stop-opacity=".1"/></linearGradient><linearGradient id="paint12_linear" x1="1336.67" y1="140.665" x2="1279.74" y2="-6.9332" gradientUnits="userSpaceOnUse"><stop stop-color="gray" stop-opacity=".25"/><stop offset=".54" stop-color="gray" stop-opacity=".12"/><stop offset="1" stop-color="gray" stop-opacity=".1"/></linearGradient><linearGradient id="paint13_linear" x1="-1725.17" y1="624.151" x2="-1782.08" y2="476.576" gradientUnits="userSpaceOnUse"><stop stop-color="gray" stop-opacity=".25"/><stop offset=".54" stop-color="gray" stop-opacity=".12"/><stop offset="1" stop-color="gray" stop-opacity=".1"/></linearGradient><linearGradient id="paint14_linear" x1="5.1805" y1="1416.82" x2="76.7807" y2="890.295" gradientUnits="userSpaceOnUse"><stop stop-color="gray" stop-opacity=".25"/><stop offset=".54" stop-color="gray" stop-opacity=".12"/><stop offset="1" stop-color="gray" stop-opacity=".1"/></linearGradient><linearGradient id="paint15_linear" x1="4336.42" y1="8063.56" x2="4336.42" y2="2465.1" gradientUnits="userSpaceOnUse"><stop stop-color="gray" stop-opacity=".25"/><stop offset=".54" stop-color="gray" stop-opacity=".12"/><stop offset="1" stop-color="gray" stop-opacity=".1"/></linearGradient><linearGradient id="paint16_linear" x1="-29566" y1="8064.81" x2="-29566" y2="2465.49" gradientUnits="userSpaceOnUse"><stop stop-color="gray" stop-opacity=".25"/><stop offset=".54" stop-color="gray" stop-opacity=".12"/><stop offset="1" stop-color="gray" stop-opacity=".1"/></linearGradient><linearGradient id="paint17_linear" x1="47.7312" y1="38.5621" x2="47.7312" y2="38.5593" gradientUnits="userSpaceOnUse"><stop stop-color="gray" stop-opacity=".25"/><stop offset=".54" stop-color="gray" stop-opacity=".12"/><stop offset="1" stop-color="gray" stop-opacity=".1"/></linearGradient><linearGradient id="paint18_linear" x1="6179.77" y1="10678.1" x2="6179.77" y2="4523.62" gradientUnits="userSpaceOnUse"><stop stop-color="gray" stop-opacity=".25"/><stop offset=".54" stop-color="gray" stop-opacity=".12"/><stop offset="1" stop-color="gray" stop-opacity=".1"/></linearGradient><clipPath id="clip0"><path fill="#fff" d="M8.596 13.0728h36.0809v31.8976H8.596z"/></clipPath></defs></svg>