<svg viewBox="0 0 710 334" width="710" height="334" fill="none" xmlns="http://www.w3.org/2000/svg"><path fill-rule="evenodd" clip-rule="evenodd" d="M706 0s-65.54 244.032-151.599 214.151c-.928-.323-1.88-.624-2.854-.905-6.502-2.232-13.731-5.191-21.443-8.348-27.999-11.463-62.366-25.532-91.444-16.844-23.183 6.928-14.804 12.442-5.223 18.747 7.197 4.736 15.072 9.918 10.757 16.481-38.927 9.819-83.731 24.11-130.933 39.167C207.899 296.057 90.5849 333.477 0 333.477h706V0z" fill="#A1A0E0"/><path d="M525.619 252.298C629.171 285.699 706 199.812 706 199.812v134H204.943c-48.911 0 217.124-114.914 320.676-81.514z" fill="#8066C9" filter="url(#filter0_d)"/><circle cx="408" cy="212.812" r="5" fill="#A1A0E0"/><defs><filter id="filter0_d" x="195" y="191.812" width="515" height="142" filterUnits="userSpaceOnUse" color-interpolation-filters="sRGB"><feFlood flood-opacity="0" result="BackgroundImageFix"/><feColorMatrix in="SourceAlpha" values="0 0 0 0 0 0 0 0 0 0 0 0 0 0 0 0 0 0 127 0"/><feOffset dy="-4"/><feGaussianBlur stdDeviation="2"/><feColorMatrix values="0 0 0 0 1 0 0 0 0 1 0 0 0 0 1 0 0 0 0.5 0"/><feBlend in2="BackgroundImageFix" result="effect1_dropShadow"/><feBlend in="SourceGraphic" in2="effect1_dropShadow" result="shape"/></filter></defs></svg>