<svg viewBox="0 0 69 69" width="69" height="69" fill="none" xmlns="http://www.w3.org/2000/svg"><circle cx="34.1793" cy="34.7672" r="33.9471" fill="#fff" filter="url(#filter0_i)"/><g clip-path="url(#clip0)"><path opacity=".1" d="M11.1712 33.2719c.1394 1.5699 1.0288 2.991 1.5716 4.486a10.642 10.642 0 0 1 .2068 6.6032c-.1292.4455-.2886.8924-.2886 1.3485 0 1.5727 1.7904 2.6167 3.4172 3.3109a62.2614 62.2614 0 0 0 12.8632 3.8894c1.4437.273 3.2471.3906 4.1607-.6357.4386-.4929.5446-1.1365.8666-1.6894.8211-1.4104 2.8192-1.9581 4.6128-2.272a56.296 56.296 0 0 1 6.5366-.7529c2.2063-.1241 4.7114-.2325 6.1737-1.6819.9294-.9217 1.1998-2.1935 1.237-3.3946.1213-3.9405-1.7602-8.2047.6547-11.6174 1.0125-1.4314 2.6658-2.4767 3.6709-3.9122 1.4549-2.08 1.3295-4.7217.3444-6.9385-.9852-2.2167-2.73-4.1014-4.4498-5.9484-.5687-.6106-1.1756-1.2458-2.0297-1.529-.8889-.2948-1.8968-.1595-2.8498-.02-4.3355.6334-8.8354 1.3235-12.4715 3.4988-1.8057 1.0802-3.314 2.4813-4.9255 3.7699-3.48 2.784-7.5115 5.3555-12.1067 6.4548-3.7332.8933-7.53 3.3025-7.1946 7.0305z" fill="#F9A826"/><path d="M42.6474 48.3309c.0748-1.0333.0521-1.8257-.0464-1.9066-.0419-.0349-.0804-.1604-.1111-.293.1055-.079.1622-.1715.1366-.279-.1236-.5161-2.0789-4.3162-2.3935-4.3855-.3146-.0693-.2496-5.7006-.2496-5.7006l.4591-4.2958h-.0065a3.1374 3.1374 0 0 1 .1892-.6789 3.8793 3.8793 0 0 1 .0548-.1265c.3801.0135.7435-.1553 1.0576-.5994a43.65 43.65 0 0 1 .9479-1.2909c.6803-.5301 1.5177-1.3485 1.7607-2.2976.4298-1.6778-1.5334-3.3946-1.5334-3.3946l-.6111-.4115a1.3276 1.3276 0 0 1-.0214-.0698c-.0065-.0232-.012-.0465-.0172-.0679.1411-.0166.28-.0487.4141-.0958a.4248.4248 0 0 0 .4182.0358l.0083-.0046a.3913.3913 0 0 0 .0665-.0233c.0669-.0364.13-.0792.1887-.1278.2388-.1758.5241-.273.7848-.4134.4438-.2386.8313-.6315.9442-1.124a2.6813 2.6813 0 0 0 .0507-.4845.944.944 0 0 0-.0288-.3497c-.0307-.0893-.0879-.1669-.1237-.2544-.0776-.1897-.0464-.4036-.0506-.6087-.0056-.3864-.1394-.777-.4098-1.0537-.2705-.2767-.6752-.425-1.0516-.3446a2.022 2.022 0 0 0-.2955.093c-.0433.0159-.086.0326-.1288.0465-.1686.0619-.3368.1089-.5111.0684-.2086-.0488-.3903-.2241-.6041-.199a.4114.4114 0 0 0-.1282.039.6982.6982 0 0 0-.2124.1116 2.4452 2.4452 0 0 0-.2737.227c-.1087.1046-.2128.2301-.2281.3803a.4715.4715 0 0 0 .1189.3428 1.965 1.965 0 0 0-1.047 1.1969 1.9686 1.9686 0 0 0 .1804 1.5806 4.7933 4.7933 0 0 1-.1278.5524.4257.4257 0 0 1 .0135-.0883 1.7455 1.7455 0 0 0-.0962-.0186h-.0149a2.0597 2.0597 0 0 0-.0883-.0131h-.0074c-.4465-.0562-.9916-.0065-1.3011.1707a2.6583 2.6583 0 0 0-1.1287 1.2867 3.1862 3.1862 0 0 0-.7337 1.1625 1.5895 1.5895 0 0 0-.7323-.1516c-.3764-.744-1.0883-1.6712-2.0214-.6803-.9818 1.043.224 1.3486 1.0507 1.4383.0273.0956.07.186.1264.2679.0598.0906.1254.1773.1965.2594a.161.161 0 0 1-.0818.0042c-.19-.053-.1761 1.8898.6738 2.4567a4.7732 4.7732 0 0 1-.5455 1.0012 5.6154 5.6154 0 0 0-.731 1.455c-.0878.2702-.1505.5273-.1329.6742a.2562.2562 0 0 0 .0103.0498.1629.1629 0 0 0 .0079.02.1145.1145 0 0 0 .0102.0172.0912.0912 0 0 0 .0255.0237.0889.0889 0 0 0 .0154.007.1072.1072 0 0 0 .0167.0033h.0028a.1443.1443 0 0 0 .0186 0h.0037a.202.202 0 0 0 .0205-.0028h.0046l.0209-.0056h.007l.0214-.0084.0092-.0037.0233-.0112.0102-.0051.0265-.0153.0097-.0056.033-.0209.0065-.0042.0423-.0302a4.127 4.127 0 0 1-.1426.2566c-.2686.439-.7101.9477-1.3606 1.091-1.2082.2655-4.3173 4.2423-4.3173 4.2423s-.9586-.0665-.5702 2.9914c.3885 3.0579.4619 4.7176.4619 4.7176l.0172.0107c-.3643.4147-1.1073 1.1597-1.7532 1.1685-.8959.0121-1.4238.6018-.9981.9705.4256.3688 5.0649-.212 5.0649-.212s.0307-1.2132-.19-1.7708a1.059 1.059 0 0 0 .1041-.1056l-.2291-6.133s2.8963-2.4846 4.3085-2.7255c-.0093-.0051-.0186-.0097-.0274-.0144a.9918.9918 0 0 1 .2699-.0051c1.2342.1679 2.171 5.7983 2.171 5.7983s.2272.8863.9056 1.5694c.6785.6831 2.184 3.322 2.184 3.322l.0628-.0069.0083.0144c0 .3999-.0609 1.0002-.3717 1.4685-.5112.771.9233 1.0695.9233 1.0695s1.0432.2897 1.1175-.7435z" fill="url(#paint0_linear)"/><path d="M29.5301 44.4118s-1.0794 1.4196-1.9725 1.4322c-.8931.0125-1.4196.598-.9949.9644.4247.3665 5.0529-.2092 5.0529-.2092s.0437-1.7448-.3569-1.9996c-.4005-.2548-1.7286-.1878-1.7286-.1878zM41.1214 46.1159s.1655 1.1244-.3448 1.8912c-.5102.7668.921 1.0626.921 1.0626s1.0395.2897 1.1152-.7375c.0758-1.0272.0512-1.8136-.0464-1.8973-.0976-.0837-.1789-.6617-.1789-.6617l-1.4661.3427z" fill="#444176"/><path d="M41.0759 46.5415s-1.5037-2.6245-2.1803-3.3016c-.6765-.677-.9037-1.5606-.9037-1.5606s-.9359-5.5983-2.1668-5.7661c-1.231-.1679-4.6078 2.7203-4.6078 2.7203l.2408 6.0954c-.7328.85-2.1705-.054-2.1705-.054s-.0739-1.6535-.4615-4.6943c-.3875-3.0407.5674-2.9761.5674-2.9761s3.098-3.9526 4.3034-4.2167c.6505-.1418 1.0882-.6478 1.3563-1.0839a3.5693 3.5693 0 0 0 .3328-.6976l5.15.5511-.4564 4.2711s-.0632 5.5988.251 5.6681c.3141.0693 2.2648 3.8484 2.3884 4.3613.1236.5129-1.6431.6836-1.6431.6836z" fill="#565387"/><g opacity=".1" fill="#000"><path opacity=".1" d="M35.5839 35.9291a.5079.5079 0 0 0-.1817-.0647c-1.2309-.1674-4.6077 2.7204-4.6077 2.7204l.2412 6.0967c-.2198.2549-.5033.352-.79.3632.4354.1014.9396.093 1.2858-.3102l-.2431-6.0981s2.8875-2.4679 4.2955-2.7073zM42.7892 45.8663c-.1236-.5116-2.0743-4.2921-2.3885-4.3614-.3141-.0693-.2509-5.668-.2509-5.668l.4563-4.2712-.4939-.053-.4563 4.2711s-.0632 5.5988.2509 5.6681c.3141.0693 2.2648 3.8484 2.3884 4.3613.0837.3474-.697.5367-1.2132.6227l.0646.1116s1.7662-.1683 1.6426-.6812z"/></g><path d="M43.5894 24.3516s-4.8703-.1641-3.98-.8184c.5493-.4041.7867-1.1941.8885-1.7405a4.653 4.653 0 0 0 .0734-.5846s2.5961-.2576 1.9577.7092c-.1673.2539-.1743.5417-.093.8282.2291.8072 1.1534 1.6061 1.1534 1.6061z" fill="#FFBEC7"/><path d="M38.2916 23.1777s-1.1784.6594-1.4108 2.1698c-.2323 1.5103-.4233-.0465-.4233-.0465s-.6752.6417-.8829.584c-.2077-.0576-.171 2.2665.9391 2.5641 1.1101.2976 1.987-4.5715 1.987-4.5715l-.2091-.6999z" fill="#DFE5EE"/><path opacity=".05" d="M38.2916 23.1777s-1.1784.6594-1.4108 2.1698c-.2323 1.5103-.4233-.0465-.4233-.0465s-.6752.6417-.8829.584c-.2077-.0576-.171 2.2665.9391 2.5641 1.1101.2976 1.987-4.5715 1.987-4.5715l-.2091-.6999z" fill="#000"/><path d="M36.602 25.3173s-.9052-2.8831-2.3131-1.3899c-1.408 1.4931 1.6983 1.4671 1.6983 1.4671l.6148-.0772z" fill="#FFBEC7"/><path opacity=".1" d="M42.5294 21.9177c-.1673.2539-.1742.5418-.0929.8282a1.9515 1.9515 0 0 1-1.9387-.9533 4.631 4.631 0 0 0 .0735-.5845s2.5966-.2576 1.9581.7096z" fill="#000"/><path d="M44.1204 21.0164c.154-1.0673-.5857-2.0575-1.6522-2.2117-1.0665-.1541-2.056.5861-2.2101 1.6534-.1541 1.0673.5856 2.0575 1.6522 2.2117 1.0665.1542 2.056-.5861 2.2101-1.6534z" fill="#FFBEC7"/><path opacity=".1" d="M40.536 31.5582l-.067.6245c-.5683-.1521-4.4669-1.1625-5.2922-.5552a.9529.9529 0 0 1-.1236.0786 3.5631 3.5631 0 0 0 .3327-.6976l5.1501.5497z" fill="#000"/><path d="M44.5977 26.6018c-.2598 1.0123-1.1998 1.8726-1.8987 2.3929a7.881 7.881 0 0 1-.8043.5311s-.7235.4217-1.1064 1.3643a3.2004 3.2004 0 0 0-.2324 1.1347s-4.4711-1.2281-5.3614-.5739c-.4679.3441-.394-.1423-.2184-.6808a5.5757 5.5757 0 0 1 .7282-1.4461c.2458-.3539.5543-.8724.6473-1.3556.1231-.6417.959-3.0825 1.3475-4.1986a2.6578 2.6578 0 0 1 1.1905-1.4466c.3606-.2042 1.0353-.2381 1.5056-.1344 0 0-.1515.5045.5446.5947.0752.0098.1501.0233.2239.0405.2788.0656.9661.1962 1.2709-.0242l.6325.4246s1.9586 1.7094 1.5306 3.3774z" fill="#DFE5EE"/><path opacity=".1" d="M42.5401 19.8627c.0442-.0828.0121-.1897-.0511-.2595a.6946.6946 0 0 0-.2365-.1493l-.4243-.1925a1.4744 1.4744 0 0 1-.3945-.2325c-.1134-.1032-.1952-.2525-.1798-.4045.0153-.1521.1189-.2744.2277-.3781a2.4305 2.4305 0 0 1 .2727-.2255.5942.5942 0 0 1 .2654-.1219c.2123-.0251.3936.1493.6017.1981.3137.0735.6153-.1437.9294-.2106.3754-.08.7811.0679 1.0488.3427.2676.2748.4033.6636.4089 1.0477.0032.2041-.0265.4185.0506.6045.0353.0869.093.1641.1232.253a.9362.9362 0 0 1 .0288.3478 2.6623 2.6623 0 0 1-.0488.4836c-.1125.4897-.4991.8798-.9415 1.116-.2602.1395-.5446.2363-.7825.4106a1.1756 1.1756 0 0 1-.1858.127.4251.4251 0 0 1-.4155-.0358.3038.3038 0 0 1-.1394-.2511c.0047-.0995.0716-.1837.1232-.2688.1347-.2218.1663-.5362-.013-.7245-.0786-.0823-.1859-.1307-.2635-.2148-.1245-.1395-.1394-.3404-.1436-.5264-.0121-.3474-.0209-.7092.1241-1.0231" fill="#000"/><path d="M42.5638 19.5754a.6946.6946 0 0 0-.2365-.1493l-.4243-.1925a1.4802 1.4802 0 0 1-.3945-.2325c-.1134-.1032-.1951-.2525-.1798-.4046.0153-.152.119-.2743.2277-.378a2.4343 2.4343 0 0 1 .2728-.2256.5942.5942 0 0 1 .2653-.1218c.2123-.0251.3936.1493.6017.1981.3137.0735.6153-.1437.9294-.2106.3755-.08.7811.0678 1.0488.3427.2676.2748.4033.6635.4089 1.0476.0032.2042-.0265.4186.0506.6046.0353.0869.093.1641.1232.2529a.9366.9366 0 0 1 .0288.3479 2.6512 2.6512 0 0 1-.0502.4817c-.1125.4897-.4991.8798-.9414 1.116-.2603.1395-.5446.2363-.7826.4106a1.171 1.171 0 0 1-.1858.127.4246.4246 0 0 1-.4154-.0358.3031.3031 0 0 1-.1394-.2511c.0046-.0995.0715-.1837.1231-.2688.1347-.2218.1663-.5362-.013-.7245-.0785-.0823-.1859-.1307-.2635-.2148-.1245-.1395-.1394-.3404-.1436-.5264-.0121-.3474-.0711-.6748.0739-.9905" fill="#88455E"/><path opacity=".1" d="M43.8974 27.5159c-.2857.3306-.697.8235-1.197 1.4787a7.881 7.881 0 0 1-.8043.5311s-.7235.4217-1.1064 1.3643c-1.5228.08-3.3633-2.9491-3.3633-2.9491l1.2053-1.2634 2.0548 1.4694.6692-1.4346a2.4169 2.4169 0 0 1 1.9549-1.3848l.032-.0027c.428-.0391.6752.2166.8174.5403a1.5693 1.5693 0 0 1-.2626 1.6508z" fill="#000"/><g opacity=".05" fill="#000"><path opacity=".05" d="M40.0778 22.1548s-.1515.5045.5446.5948a2.265 2.265 0 0 1 .224.0404c.2072.0497.4183.0816.631.0953a4.1507 4.1507 0 0 1-.3137-.0613 2.1157 2.1157 0 0 0-.2239-.0405c-.6971-.0902-.5446-.5947-.5446-.5947a2.5443 2.5443 0 0 0-.4159-.0531c.0339.0061.0669.0121.0985.0191zM43.0675 23.2248l-.6324-.4245a.5485.5485 0 0 1-.1552.0749l.4702.3157s1.9582 1.7089 1.5302 3.3769c-.2598 1.0124-1.1998 1.8726-1.8987 2.393a7.8634 7.8634 0 0 1-.8043.531s-.7235.4218-1.1064 1.3644a3.1904 3.1904 0 0 0-.2286 1.0839c.1984.0507.315.0828.315.0828a3.1981 3.1981 0 0 1 .2324-1.1346c.3829-.9426 1.1064-1.3644 1.1064-1.3644a7.891 7.891 0 0 0 .8043-.531c.697-.5199 1.6389-1.3807 1.8987-2.393.4265-1.6661-1.5316-3.3751-1.5316-3.3751zM34.8785 31.417l-.0334.0233c.0176.1469.1161.1832.3508.0107.2788-.2037.901-.2251 1.6264-.1577-.8578-.1036-1.6273-.1088-1.9438.1237z"/></g><path opacity=".05" d="M36.1294 28.6082s.3592.93.8578 1.2671c.4986.3371 1.1515.9086 1.1515.9086" fill="#000"/><path d="M42.9216 45.3644l-.7491-3.2374c-.3197-.5315-.6482-.817-.9237-.9691-.355-.2185-.6376-.2172-.7268-.2092l-.1004-.1061c-.3819-.5399-.5845-1.953-.5845-1.953-.02-.6627-.4396-1.1114-.9796-1.4146-.9098-.5455-2.2146-.651-2.492-.6673l-.2212-.4404-.0595-.0144-.0139-.0279a2.5745 2.5745 0 0 0-.1496-.0335l.3912-8.0349.0037-.0777 1.5451.0754a.4678.4678 0 0 0 .4724-.445.4678.4678 0 0 0-.426-.4897l-1.8089-.0884v-.039l.1691-3.4718v-.0391a.7084.7084 0 0 0 .2714-.5273.6814.6814 0 0 0-.1703-.4981.6791.6791 0 0 0-1.1866.4321.7091.7091 0 0 0 .2189.551v.0391l-.1701 3.4722v.0391l-1.8108-.0856a.4682.4682 0 0 0-.0465.9347l1.4698.0716-.0037.0777-.3964 8.1377a10.7427 10.7427 0 0 0-1.6793.3492l-.6394 2.2716-1.8676.3385-.973 2.1391-.9071 1.5917a5.468 5.468 0 0 0-.2788.1116c-3.3805 1.4276-3.5176 4.9729-3.5176 4.9729.9419 1.6071 5.6984.9026 5.6984.9026 2.7146 2.4352 8.1104 1.0202 8.1104 1.0202 1.3011.3209 2.3308.4599 3.1431.4911 2.2648.0865 2.8345-.6683 2.8345-.6683.815-2.0683-1.4456-4.4813-1.4456-4.4813z" fill="url(#paint1_linear)"/><path d="M35.4277 23.6195l-.4344 4.068.8659.0926.4344-4.068-.8659-.0926z" fill="#F9A826"/><path d="M34.6301 27.8773l-.9735 9.1154 1.468.157.9734-9.1154-1.4679-.157z" fill="#F0F5FA"/><path opacity=".05" d="M36.1002 28.0343l-.7152-.0765-.9735 9.1153.7153.0765.9734-9.1153z" fill="#000"/><path opacity=".1" d="M34.6305 27.8776l-.0403.3768 1.4679.157.0403-.3769-1.4679-.1569zM35.0375 27.2735l-.0442.4142.8659.0926.0442-.4142-.8659-.0926z" fill="#000"/><path d="M37.7074 27.5959l-4.4786-.479a.4545.4545 0 0 0-.0966.904l4.4786.479a.4546.4546 0 0 0 .0966-.904z" fill="#F9A826"/><path d="M24.802 48.2397s-.0376-3.6364 3.5581-5.1151l.8327-1.5908.8708-2.1214 1.8549-.4185.5298-2.2349s2.0445-.7198 3.3689-.4548l.2648.4548s3.407-.0377 3.5581 1.8182c0 0 .3406 1.7047.8327 2.0079 0 0 .8327-.1892 1.6654 1.0231l.9084 3.1063s2.3847 2.2348 1.6654 4.2804c0 0-.9842 1.4016-5.9808.4548 0 0-5.3373 1.6275-8.1783-.6045.0032.0004-4.7286.9095-5.7509-.6055z" fill="#A8A8A8"/><path opacity=".1" d="M27.1867 47.6714s.757-1.0607.7194-1.8182c-.0377-.7575.1784-2.6064.1784-2.6064M29.9502 44.8303s.7569-1.4016.6812-2.1591c0 0 .7951-1.4415 1.4005-1.3257M34.1141 40.8529s2.0818-.7575 2.1956-1.3639M34.8711 42.5954s2.1956-.983 2.1956-1.2499h1.0976s1.5896 2.0832 1.4005 2.9928M37.4454 44.1103s-2.1199-.1515-2.8768.4548c-.757.6064-2.1199.9091-2.1199.9091s-.795 1.7048-1.0975 2.0079c-.3025.3032-.7951 1.3639-.7951 1.3639M37.4454 46.1182s.2254.7951.5297 1.2499c.3044.4548.757 2.0833.757 2.0833M41.0034 48.429s.4805 1.3378.9029 1.3485" stroke="#000" stroke-miterlimit="10"/><path opacity=".1" d="M37.8566 42.6865s1.2482.3376 1.77 1.1556c.5218.8179 2.1175 1.5601 2.1175 1.5601M38.3915 38.6558s0 1.7424.4921 1.7424 1.5901.1911 1.5901.1911M35.9812 36.5879s-.1259 3.01-.769 3.7889" stroke="#000" stroke-miterlimit="10"/><g opacity=".05" fill="#000"><path opacity=".05" d="M42.9718 44.6786l-.9085-3.1063c-.8327-1.2123-1.6654-1.023-1.6654-1.023-.4921-.3027-.8327-2.0061-.8327-2.0061-.1514-1.8563-3.558-1.8182-3.558-1.8182l-.2648-.4547c-.3355-.067-.717-.0712-1.0995-.0396.093.0093.1808.0224.2668.0396l.2648.4547s3.407-.0376 3.558 1.8182c0 0 .3406 1.7048.8327 2.008 0 0 .8327-.1893 1.6654 1.023l.9085 3.1063s2.3847 2.233 1.6654 4.279c0 0-.4856.6915-2.506.7747 2.7234.1 3.3387-.7747 3.3387-.7747.7193-2.046-1.6654-4.2809-1.6654-4.2809zM29.6472 48.8079a17.6914 17.6914 0 0 1-2.4251.2627c.9479.0363 1.9344-.066 2.5701-.1539a5.89 5.89 0 0 1-.145-.1088zM37.8236 49.4138a15.5434 15.5434 0 0 1-3.5747.5655c1.7449.0632 3.3977-.3004 4.0794-.4753a22.0976 22.0976 0 0 1-.5047-.0902z"/></g><path opacity=".05" d="M36.2791 23.6911l-.4519-.0483-.3941 3.6912.4518.0483.3942-3.6912z" fill="#000"/><path opacity=".1" d="M36.2949 23.7136l-.0316.2958a.6818.6818 0 0 1-.8657-.093l.0316-.2958.8657.093z" fill="#000"/><path d="M36.5662 23.4751a.6813.6813 0 0 0-1.3547-.1449.6815.6815 0 0 0 .6049.7503.6814.6814 0 0 0 .7498-.6054z" fill="#F9A826"/><path opacity=".05" d="M36.5676 23.4768a.6816.6816 0 0 1-.75.6045l.145-1.356a.681.681 0 0 1 .5815.4862.6814.6814 0 0 1 .0235.2653z" fill="#000"/><path d="M38.9022 26.8132l-.4749.7706-.4545-.3948-.6227-.5413s-1.1514.093-1.8884-1.023c-.316-.4776-.0702-.751.3132-.9068a1.5901 1.5901 0 0 1 1.8313.4882l1.296 1.6071z" fill="#FFBEC7"/><path opacity=".1" d="M38.9022 26.8134l-.4745.7705-.4544-.3953.6677-.6993.2612.3241z" fill="#000"/><path d="M41.5118 26.5863l-.6691 1.4341-2.0567-1.4695-1.2035 1.2635s2.7611 4.5441 4.3168 2.3539c.9438-1.3304 1.704-2.2567 2.1552-2.7789a1.5686 1.5686 0 0 0 .2635-1.6508c-.1422-.3255-.3894-.579-.8174-.5404l-.0321.0033a2.4151 2.4151 0 0 0-1.162.4325 2.418 2.418 0 0 0-.7947.9523z" fill="#DFE5EE"/><path d="M51.092 43.07s-.6162-2.0926.1157-3.6336a3.308 3.308 0 0 0 .2672-2.074 5.5598 5.5598 0 0 0-.2932-.9732" stroke="#535461" stroke-width="2" stroke-miterlimit="10"/><path d="M51.6361 35.4155c0 .2566-.4646 1.0002-.4646 1.0002s-.4647-.744-.4647-1.0002a.465.465 0 0 1 .4647-.4651.465.465 0 0 1 .4646.4651zM52.4038 36.8362c-.1394.2153-.9331.5873-.9331.5873s.0144-.877.1538-1.0923a.4648.4648 0 0 1 .6307-.12.4654.4654 0 0 1 .1486.625zM52.3699 39.2645c-.2291.1154-1.1018.0358-1.1018.0358s.4549-.7496.6836-.8649a.4645.4645 0 0 1 .665.5607.4643.4643 0 0 1-.2468.2689v-.0005zM51.9312 41.0962c-.2063.1525-1.0799.2214-1.0799.2214s.3216-.8157.5279-.9682a.465.465 0 0 1 .5287-.0414.464.464 0 0 1 .2176.2945.4647.4647 0 0 1-.1943.4937zM50.4958 37.4737c.1859.1786 1.0405.3641 1.0405.3641s-.2096-.8514-.3936-1.03a.4655.4655 0 0 0-.3355-.1496.465.465 0 0 0-.3114.8155zM50.0102 39.6217c.2291.1153 1.1018.0358 1.1018.0358s-.4549-.7496-.6836-.8649a.465.465 0 0 0-.3627-.0389.465.465 0 0 0-.2063.7593.4657.4657 0 0 0 .1508.1092v-.0005zM49.8239 41.7747c.2063.1525 1.0799.2214 1.0799.2214s-.3215-.8157-.5279-.9682a.4643.4643 0 0 0-.6314.1103.4649.4649 0 0 0 .0794.6365zM11.8469 35.8867s1.9442 1.9456.8466 4.8324c-1.0975 2.8868 1.8829 7.6876 1.8829 7.6876s-.0321-.0046-.093-.0148c-3.9929-.7055-5.9766-5.2752-3.7564-8.6702.8257-1.2625 1.5032-2.7431 1.1199-3.835z" fill="#F9A826"/><path opacity=".1" d="M11.8469 35.9187s1.9442 1.9456.8466 4.8324 1.8829 7.6876 1.8829 7.6876-.0321-.0046-.093-.0149c-3.9925-.7054-5.9762-5.2769-3.7559-8.6715.8252-1.2607 1.5027-2.7436 1.1194-3.8336z" fill="#000"/><path d="M11.8469 35.8867s1.0975 2.3846 0 4.3302c-1.0976 1.9456-.1859 7.4054 2.7281 8.1898" stroke="#535461" stroke-miterlimit="10"/><path d="M8.3846 43.7552s2.2184-.3534 2.4205 1.636c.2022 1.9893 4.2658 2.2664 4.2658 2.2664l-.0762.0498c-3.355 2.2041-6.5627 1.4039-6.079-1.5229.1776-1.0877.165-2.1805-.531-2.4293z" fill="#F9A826"/><path d="M8.3846 43.7551s1.7221.3781 1.58 1.9452c-.1423 1.5671 2.5575 3.4453 5.1063 1.9572" stroke="#535461" stroke-miterlimit="10"/><path d="M49.2003 42.6261s1.0413-.0321 1.355-.2558c.3136-.2236 1.6017-.4906 1.6793-.132.0776.3585 1.5646 1.7833.3894 1.7931-1.1751.0097-2.7313-.1832-3.0445-.372-.3132-.1888-.3792-1.0333-.3792-1.0333z" fill="#A8A8A8"/><path opacity=".2" d="M52.6449 43.9067c-1.1756.0093-2.7313-.1832-3.0445-.372-.2384-.1456-.3337-.6669-.3653-.9077h-.0348s.066.8402.3792 1.0314c.3132.1911 1.8689.3836 3.0445.372.3392-.0028.4563-.1237.4503-.3023-.0474.1088-.1771.1762-.4294.1786z" fill="#000"/><path d="M16.791 47.8221s-1.7476-.3506-2.2146-.8156c-.467-.465-2.5627-1.282-2.7955-.6975-.2328.5845-3.144 2.5622-1.1636 2.9119 1.9805.3497 4.6593.465 5.2416.2325.5822-.2325.9321-1.6313.9321-1.6313z" fill="#A8A8A8"/><path opacity=".2" d="M10.6173 49.0061c1.9805.3497 4.6593.465 5.2416.2325.4437-.1776.7518-1.0304.8736-1.4276l.0581.0121s-.3495 1.3988-.9317 1.6318c-.5823.2329-3.2616.1167-5.2416-.2325-.5715-.101-.735-.3381-.6733-.638.0483.1943.2477.345.6733.4217z" fill="#000"/></g><defs><filter id="filter0_i" x=".2321" y=".8201" width="67.8942" height="71.8942" filterUnits="userSpaceOnUse" color-interpolation-filters="sRGB"><feFlood flood-opacity="0" result="BackgroundImageFix"/><feBlend in="SourceGraphic" in2="BackgroundImageFix" result="shape"/><feColorMatrix in="SourceAlpha" values="0 0 0 0 0 0 0 0 0 0 0 0 0 0 0 0 0 0 127 0" result="hardAlpha"/><feOffset dy="7"/><feGaussianBlur stdDeviation="2"/><feComposite in2="hardAlpha" operator="arithmetic" k2="-1" k3="1"/><feColorMatrix values="0 0 0 0 0.1485 0 0 0 0 0 0 0 0 0 0.3375 0 0 0 0.25 0"/><feBlend in2="shape" result="effect1_innerShadow"/></filter><linearGradient id="paint0_linear" x1="34.331" y1="48.3134" x2="37.6787" y2="17.0108" gradientUnits="userSpaceOnUse"><stop stop-color="gray" stop-opacity=".25"/><stop offset=".54" stop-color="gray" stop-opacity=".12"/><stop offset="1" stop-color="gray" stop-opacity=".1"/></linearGradient><linearGradient id="paint1_linear" x1="11182.8" y1="23964.9" x2="12056.4" y2="7028.58" gradientUnits="userSpaceOnUse"><stop stop-color="gray" stop-opacity=".25"/><stop offset=".54" stop-color="gray" stop-opacity=".12"/><stop offset="1" stop-color="gray" stop-opacity=".1"/></linearGradient><clipPath id="clip0"><path fill="#fff" d="M8.3795 12.3621h49.5628v40.7365H8.3795z"/></clipPath></defs></svg>